<?xml version="1.0" encoding="UTF-8"?>
<svg version="1.1" xmlns="http://www.w3.org/2000/svg" width="1300" height="1300">
<path d="M0 0 C0 47.52 0 95.04 0 144 C-6.6 144 -13.2 144 -20 144 C-20 161.82 -20 179.64 -20 198 C-13.4 198 -6.8 198 0 198 C-0.00112793 200.70727295 -0.00225586 203.4145459 -0.00341797 206.20385742 C-0.00278538 215.23240489 0.03097887 224.26062123 0.0802784 233.28902721 C0.10913012 238.75342692 0.12743698 244.2174043 0.12011719 249.68188477 C0.11344292 254.97314027 0.13646143 260.2635672 0.17855453 265.55465126 C0.18954354 267.55522008 0.19051736 269.55587444 0.18042374 271.55644798 C0.04480887 302.43982335 11.99200792 333.9530592 33.94140625 356.09765625 C47.62525184 369.33014759 62.96182608 374.8398095 80.80560303 380.015625 C111.71707664 389.00998737 136.68877236 404.36139294 153 433 C168.45407615 461.43242467 173.21206508 494.63523295 176.125 526.4375 C176.20073242 527.25702148 176.27646484 528.07654297 176.35449219 528.92089844 C178.32814449 552.47076772 178.16669446 576.09307474 178.18936086 599.70390713 C178.1953946 604.91926969 178.20698243 610.13462085 178.21765137 615.34997559 C178.241976 627.8922816 178.25676042 640.43459131 178.26971143 652.97691354 C178.27343404 656.5240441 178.27740622 660.0711743 178.2814641 663.61830449 C178.30668006 685.70019562 178.3287069 707.78208752 178.34119225 729.86398983 C178.34412125 734.95758504 178.34708305 740.05118023 178.35009766 745.14477539 C178.35121673 747.04343074 178.35121673 747.04343074 178.35235842 748.98044277 C178.36503454 769.52206798 178.39830327 790.0636071 178.43989949 810.605192 C178.48234748 831.74174989 178.50588937 852.87826363 178.51111281 874.01486403 C178.51452048 885.86405827 178.52620266 897.71311712 178.55921555 909.56226921 C178.58725455 919.64142923 178.59819758 929.72042594 178.58702008 939.79962193 C178.58184625 944.93594542 178.58463836 950.07192701 178.60948563 955.20820045 C178.63208365 959.91887143 178.63115702 964.62895693 178.61228175 969.3396389 C178.60949679 971.03438776 178.61499561 972.72917725 178.63009469 974.42386114 C178.75303256 989.13286621 175.41283186 1001.59231876 169.3125 1015 C168.97637695 1015.74217773 168.64025391 1016.48435547 168.29394531 1017.24902344 C161.84345681 1031.08493907 153.29574544 1042.79680729 143 1054 C142.33613281 1054.74636719 141.67226563 1055.49273438 140.98828125 1056.26171875 C119.94593058 1078.76470982 86.77723877 1092.03632729 56.2666409 1093.09482813 C53.13878952 1093.13413388 50.01228543 1093.14289531 46.88418579 1093.14044189 C45.09191309 1093.14489858 45.09191309 1093.14489858 43.26343286 1093.1494453 C39.96837756 1093.15658649 36.67335416 1093.15930155 33.37829232 1093.16004276 C29.81567577 1093.16190372 26.25307028 1093.16945632 22.69046021 1093.17617798 C14.9089754 1093.18972096 7.12749577 1093.19578002 -0.65399885 1093.20018864 C-5.52119142 1093.20295851 -10.38838203 1093.20719726 -15.25557327 1093.21169281 C-28.75480461 1093.22388137 -42.25403438 1093.23418074 -55.7532711 1093.2375679 C-56.61615304 1093.23778747 -57.47903498 1093.23800703 -58.36806486 1093.23823325 C-59.66533698 1093.23856067 -59.66533698 1093.23856067 -60.98881662 1093.2388947 C-62.74107957 1093.23933815 -64.49334252 1093.23978472 -66.24560547 1093.24023438 C-67.1147728 1093.2404558 -67.98394013 1093.24067723 -68.87944587 1093.24090537 C-82.94369005 1093.24484822 -97.00788227 1093.26228841 -111.07210641 1093.2855939 C-125.54229392 1093.30937671 -140.01245544 1093.32177293 -154.4826628 1093.32293582 C-162.59467568 1093.32384882 -170.70662086 1093.32950573 -178.81861496 1093.34775543 C-185.73010522 1093.36325045 -192.64150687 1093.3682221 -199.55301122 1093.36001733 C-203.07135735 1093.35614345 -206.58952555 1093.35687779 -210.10784912 1093.37107468 C-251.92192664 1093.51107789 -288.39703745 1084.03754489 -318.8984375 1054.19921875 C-329.57521864 1043.14003141 -337.73103982 1030.22363838 -344.4375 1016.4375 C-344.82623291 1015.64867432 -345.21496582 1014.85984863 -345.61547852 1014.04711914 C-352.17433796 999.97340152 -354.74984947 986.70736461 -354.60800171 971.32661438 C-354.61090645 969.61327655 -354.61600823 967.89994132 -354.62308562 966.18661565 C-354.6360781 961.52827635 -354.61828029 956.87050903 -354.59498715 952.21222913 C-354.57530877 947.16827505 -354.58480553 942.12436081 -354.59057617 937.0803833 C-354.59737142 927.21522479 -354.5777913 917.3502887 -354.54941289 907.48517565 C-354.51743093 895.96774127 -354.51315494 884.45034503 -354.51022096 872.93287268 C-354.50416349 852.35648583 -354.47509321 831.78019768 -354.43212891 811.20385742 C-354.39060458 791.29955859 -354.36221327 771.39530591 -354.35009766 751.4909668 C-354.34934944 750.26681804 -354.34860123 749.04266927 -354.34783034 747.7814251 C-354.34485503 742.85875622 -354.34191776 737.93608733 -354.33904406 733.0134184 C-354.32625118 711.67076105 -354.30257486 690.3281137 -354.2774058 668.98546788 C-354.27343943 665.55244978 -354.2697169 662.11943149 -354.26605177 658.68641305 C-354.25294338 646.63776779 -354.23640971 634.5891404 -354.21106736 622.54051403 C-354.20060814 617.56464939 -354.19145504 612.5887942 -354.18649673 607.61292076 C-354.12615889 550.68230864 -354.12615889 550.68230864 -351.6875 524.625 C-351.59137924 523.57593475 -351.59137924 523.57593475 -351.49331665 522.50567627 C-347.49232625 479.22648519 -338.42371399 432.22574173 -303.9375 402.4375 C-288.02319378 389.90498385 -269.56603367 383.52859037 -250.3125 378.0625 C-235.598916 373.84947115 -223.5001314 368.3746737 -212 358 C-210.97519531 357.09701172 -210.97519531 357.09701172 -209.9296875 356.17578125 C-193.32601741 340.64646629 -178.13598974 311.86645893 -176.89453697 289.06279945 C-176.83710074 286.67335562 -176.8108301 284.28534707 -176.79467773 281.89526367 C-176.78477814 280.98745148 -176.77487854 280.07963928 -176.76467896 279.14431763 C-176.73316365 276.15222761 -176.70834599 273.16012172 -176.68359375 270.16796875 C-176.66301561 268.09002781 -176.64201892 266.01209098 -176.62062073 263.93415833 C-176.56548886 258.47127614 -176.51604044 253.00835673 -176.46777344 247.54541016 C-176.41749349 241.96839087 -176.36184134 236.39142549 -176.30664062 230.81445312 C-176.19916772 219.87634646 -176.09819526 208.93819389 -176 198 C-169.4 198 -162.8 198 -156 198 C-156 180.18 -156 162.36 -156 144 C-162.6 144 -169.2 144 -176 144 C-176 96.48 -176 48.96 -176 0 C-154.84265278 -10.57867361 -134.52603267 -18.27693296 -111 -21 C-110.11441406 -21.11085938 -109.22882813 -21.22171875 -108.31640625 -21.3359375 C-69.80167685 -25.37861832 -34.38562814 -17.19281407 0 0 Z M-273 550 C-273 607.09 -273 664.18 -273 723 C-150.57 723 -28.14 723 98 723 C98 665.91 98 608.82 98 550 C-24.43 550 -146.86 550 -273 550 Z " fill="#fff" transform="translate(752,128)"/>
<path d="M0 0 C112.53 0 225.06 0 341 0 C341 47.19 341 94.38 341 143 C228.47 143 115.94 143 0 143 C0 95.81 0 48.62 0 0 Z " fill="#fff" transform="translate(494,693)"/>
</svg>
