<!--?xml version="1.0" encoding="utf-8"?-->
<!-- Generator: Adobe Illustrator 18.1.1, SVG Export Plug-In . SVG Version: 6.00 Build 0)  -->

<svg version="1.1" id="_x32_" xmlns="http://www.w3.org/2000/svg" xmlns:xlink="http://www.w3.org/1999/xlink" x="0px" y="0px" viewBox="0 0 512 512" style="width: 256px; height: 256px; opacity: 1;" xml:space="preserve">
<style type="text/css">
	.st0{fill:#4B4B4B;}
</style>
<g>
	<path class="st0" d="M383.231,0H128.766H99.484v29.286V150.56c0,35.062,11.933,69.564,33.607,97.137l1.353,1.722l1.59,1.5
		l66.196,62.346c4.084,5.818,6.306,12.824,6.306,19.948v56.859c0,5.343-3.172,10.169-8.083,12.28l-0.618,0.254l-0.607,0.297
		l-38.496,18.642c-18.197,8.142-29.909,26.174-29.909,46.172v14.996V512h29.282h191.792h29.282v-29.285v-14.996
		c0-19.998-11.717-38.03-29.922-46.172l-38.492-18.642l-0.602-0.297l-0.615-0.254c-4.916-2.111-8.092-6.938-8.092-12.28v-56.859
		c0-7.124,2.227-14.13,6.306-19.948l66.2-62.346l1.599-1.5l1.353-1.722c21.67-27.573,33.603-62.066,33.603-97.137V29.286V0H383.231z
		 M383.231,150.56c0,28.667-9.626,56.503-27.34,79.046l-68.049,64.085c-8.855,11.263-13.668,25.181-13.668,39.523v56.859
		c0,17.055,10.157,32.466,25.826,39.184l38.98,18.879c7.837,3.35,12.917,11.068,12.917,19.583v14.996H160.104v-14.996
		c0-8.515,5.08-16.233,12.913-19.583l38.976-18.879c15.674-6.718,25.83-22.128,25.83-39.184v-56.859
		c0-14.342-4.813-28.26-13.672-39.523l-68.037-64.085c-17.714-22.544-27.348-50.379-27.348-79.046V29.286h254.465V150.56z" style="fill: #fff;"></path>
	<path class="st0" d="M219.32,256.195c9.707,9.762,22.908,15.259,36.678,15.259c13.769,0,26.974-5.488,36.677-15.259l43.852-44.145
		c13.329-17.615,20.648-39.379,20.648-61.49V94.083H154.82v56.477c0,22.103,7.323,43.866,20.66,61.498L219.32,256.195z" style="fill: #fff;"></path>
</g>
</svg>
