<?xml version="1.0" encoding="UTF-8"?>
<svg version="1.1" xmlns="http://www.w3.org/2000/svg" width="624" height="624">
<path d="M0 0 C0.33 0 0.66 0 1 0 C0.41274571 11.38216257 -1.06707866 22.54966432 -2.75 33.8125 C-2.88549255 34.71994965 -3.02098511 35.62739929 -3.1605835 36.56234741 C-3.96784595 41.93998182 -4.79395741 47.31443642 -5.6373291 52.68652344 C-5.95428903 54.70840986 -6.26614901 56.73109443 -6.57714844 58.75390625 C-9.34793636 76.26145683 -14.94480773 92.67592346 -20.71751404 109.37190247 C-23.20115631 116.55692403 -25.59733198 123.76689014 -27.9375 131 C-28.30641357 132.13574463 -28.67532715 133.27148926 -29.05541992 134.44165039 C-31.20097486 141.15853484 -32.99367566 147.87822951 -34.5625 154.75 C-40.23101379 179.13247543 -57.51786781 200.70074816 -78.25 214.3125 C-90.87517196 221.81289802 -104.26833572 223.1869206 -118.63012695 223.18530273 C-120.79593744 223.18748332 -122.96123287 223.20565717 -125.12695312 223.22460938 C-144.5639357 223.3044893 -144.5639357 223.3044893 -152 217 C-157.11298298 211.14272203 -161.91578338 205.53064365 -161.76953125 197.43359375 C-160.38717389 193.0619763 -156.78440124 190.9436909 -153.1875 188.3359375 C-145.11582367 182.4206649 -138.14538477 175.30282603 -131.09985352 168.23022461 C-129.4407268 166.56573723 -127.77631949 164.90666553 -126.11132812 163.24804688 C-121.07366634 158.21353668 -116.11496712 153.1525905 -111.48754883 147.73266602 C-109.11775577 144.97238022 -106.61357919 142.34025338 -104.125 139.6875 C-99.61012862 134.83996873 -95.35968939 129.84690555 -91.2109375 124.6796875 C-88.09519339 120.9033616 -84.76879017 117.33482122 -81.453125 113.734375 C-79.12283732 111.13692058 -76.92752832 108.47594286 -74.75 105.75 C-69.86920354 99.69677023 -64.55239055 94.091697 -59.22265625 88.4375 C-56.32359772 85.35885377 -53.51774329 82.21507531 -50.76171875 79.0078125 C-48.89750443 76.88318686 -46.98283785 74.80909142 -45.06079102 72.73681641 C-40.24262208 67.53768359 -35.62287079 62.23832297 -31.18359375 56.70703125 C-29.72050839 54.89322418 -28.2330292 53.0988422 -26.72265625 51.32421875 C-13.92075901 36.2026615 -5.9482852 18.7948695 0 0 Z " fill="#008000" transform="translate(437,281)"/>
<path d="M0 0 C0.33 0 0.66 0 1 0 C1.06628601 0.97606201 1.13257202 1.95212402 1.2008667 2.95776367 C1.84051618 12.36409822 2.48707853 21.7699381 3.13965988 31.17538452 C3.47458955 36.00554353 3.80744992 40.83582248 4.13476562 45.66650391 C5.88445026 71.45672781 7.89491822 97.19710283 10.7644577 122.88960648 C10.98074044 124.82743972 11.19287425 126.76573484 11.40460205 128.70407104 C14.20273373 153.56686452 19.5336079 178.06161645 24.42932129 202.57513428 C26.04876319 210.69322972 27.65492069 218.81396615 29.26242065 226.93443298 C30.11368029 231.23458606 30.96861728 235.53398061 31.82669067 239.83277893 C38.92896926 275.48927595 38.92896926 275.48927595 35.6328125 281.48828125 C33.56847701 284.17363052 31.36418372 286.57388851 29 289 C28.5447998 289.48114258 28.08959961 289.96228516 27.62060547 290.45800781 C18.40912067 300.19219664 8.42329169 308.59929572 -2.78515625 315.98046875 C-5.47800814 318.43585575 -6.12589492 320.50851811 -7 324 C-13.62405952 318.56080746 -19.5976379 312.51534411 -25.625 306.4375 C-26.65861797 305.39885344 -27.69247059 304.36044033 -28.7265625 303.32226562 C-30.62987582 301.41085723 -32.53154757 299.4978702 -34.43212891 297.58374023 C-36.18007464 295.82499241 -37.94210935 294.08016054 -39.71630859 292.34790039 C-44.8003758 287.12088795 -45.62822559 281.74085713 -45.6237793 274.6027832 C-45.31646977 267.6708858 -43.24245345 261.39581627 -41.18945312 254.8125 C-19.32043254 183.53569217 -12.85394717 107.74686838 -4.56130409 33.98856735 C-4.14264221 30.26585459 -3.72192924 26.54337462 -3.30122375 22.82089233 C-3.00954129 20.22974607 -2.72154871 17.63820712 -2.43371582 15.04663086 C-2.25749475 13.48403024 -2.08111275 11.92144775 -1.90454102 10.35888672 C-1.82717744 9.65185041 -1.74981386 8.94481411 -1.67010593 8.21635246 C-1.33974185 5.32152504 -0.92517712 2.77553136 0 0 Z " fill="#008000" transform="translate(280,154)"/>
<path d="M0 0 C12.95753293 12.95753293 12.37465756 53.40163872 12.5 70.6875 C12.17437148 109.28700436 4.06289392 148.26977256 -4.5625 185.75 C-4.73405609 186.49937836 -4.90561218 187.24875671 -5.08236694 188.02084351 C-28.36199701 288.9132197 -28.36199701 288.9132197 -68 317 C-68.66 317 -69.32 317 -70 317 C-69.58427734 315.31197266 -69.58427734 315.31197266 -69.16015625 313.58984375 C-68.793643 312.03921076 -68.42779426 310.48842061 -68.0625 308.9375 C-67.88009766 308.20466797 -67.69769531 307.47183594 -67.50976562 306.71679688 C-64.62714182 294.29530885 -64.88492813 281.67942754 -65.35592651 269.0291748 C-65.44038789 266.60459924 -65.50447742 264.18022385 -65.56274414 261.75488281 C-65.81710115 251.15523319 -65.81710115 251.15523319 -66.27734375 240.56298828 C-67.52352533 217.22582057 -67.44722634 200.91939687 -53.93261719 180.97460938 C-50.67011697 175.95309565 -48.0701929 170.62100106 -45.4375 165.25 C-44.90688965 164.17999756 -44.3762793 163.10999512 -43.82958984 162.00756836 C-22.96658107 119.56377223 4.2512295 61.08673311 1 13 C0.88011719 11.08767578 0.88011719 11.08767578 0.7578125 9.13671875 C0.5415619 6.08627473 0.29188899 3.04398514 0 0 Z " fill="#008000" transform="translate(434,60)"/>
<path d="M0 0 C2.17632175 3.26448262 3.1418021 6.39591887 4.21484375 10.11328125 C4.65179187 11.58876246 5.08923214 13.06409799 5.52709961 14.53930664 C5.75638153 15.31694366 5.98566345 16.09458069 6.22189331 16.89578247 C20.01508206 63.47757318 37.69185086 108.27350744 69 146 C69.67409912 146.81839355 69.67409912 146.81839355 70.36181641 147.65332031 C76.53210629 155.12595943 82.95438237 162.34095102 89.55126953 169.43798828 C91.10079867 171.10868047 92.64281938 172.78607567 94.18359375 174.46484375 C95.24735039 175.6224376 96.31115144 176.77999063 97.375 177.9375 C97.86282959 178.46923828 98.35065918 179.00097656 98.85327148 179.54882812 C100.99143261 181.86893694 103.11375844 184.10099891 105.47485352 186.19726562 C108.41154126 189.45678175 109.74242631 192.67458697 111.12890625 196.75390625 C111.40003738 197.51490631 111.67116852 198.27590637 111.95051575 199.05996704 C112.83533893 201.5560743 113.69907354 204.05891944 114.5625 206.5625 C115.17756804 208.31129881 115.79363018 210.05974827 116.41064453 211.80786133 C120.80280344 224.30761674 124.98054039 236.87781635 129.12380981 249.46179199 C132.04629618 258.32847988 135.03457328 267.13898937 138.5 275.8125 C138.80212402 276.57006592 139.10424805 277.32763184 139.41552734 278.1081543 C140.81934946 281.51161137 142.35727024 284.7083237 144.21875 287.88671875 C146 291 146 291 146 293 C141.62198312 292.57150669 137.24892781 292.11035706 132.87744141 291.62060547 C131.3946392 291.4589212 129.91088601 291.3056978 128.42626953 291.16162109 C115.5077975 289.89852032 106.18833119 286.69716608 97.6796875 276.39453125 C94.26043582 271.52010967 92.52862817 266.49042605 91.296875 260.6875 C85.38398018 232.86211264 67.48342521 205.99555153 53.4375 181.4375 C22.04681645 126.48544237 -3.0127963 64.60774288 0 0 Z " fill="#008000" transform="translate(55,205)"/>
<path d="M0 0 C-2.37426849 10.76551877 -5.91732535 21.08943045 -9.5 31.5 C-9.80990875 32.40395508 -10.1198175 33.30791016 -10.43911743 34.23925781 C-22.68081595 69.88576367 -36.11919787 106.35717384 -56.375 138.3125 C-79.12011361 174.23630092 -94.87585329 214.77307921 -106.00390625 255.69140625 C-108.23244278 263.58919051 -111.47392243 270.15593126 -116 277 C-116.44988281 277.74894531 -116.89976562 278.49789063 -117.36328125 279.26953125 C-119.50146718 282.36643181 -120.97326209 283.75560955 -124.69140625 284.640625 C-127.81723109 284.94402562 -130.86020219 285.02354848 -134 285 C-134.99 285.01289063 -135.98 285.02578125 -137 285.0390625 C-139.33536565 285.05896618 -141.66516566 285.04649006 -144 285 C-142.28875735 280.2877604 -139.7705313 276.51702205 -136.94921875 272.40234375 C-131.8496187 263.50103786 -129.08018617 254.19276523 -126.8125 244.25 C-124.25313457 233.54962822 -121.31348546 223.04954602 -118 212.5625 C-117.7857135 211.88348633 -117.571427 211.20447266 -117.35064697 210.50488281 C-115.00073603 203.08163806 -112.57499499 195.68645465 -110.0612793 188.31689453 C-105.42345161 174.69238481 -101.0619746 161.44552378 -100.61132812 146.96850586 C-100.12804916 133.53949758 -96.47392313 126.24877618 -87.80664062 116.15771484 C-84.80410215 112.57171011 -82.14051526 108.75109129 -79.4375 104.9375 C-78.3499469 103.42897431 -77.26141132 101.92115643 -76.171875 100.4140625 C-71.06135427 93.31335721 -66.02211955 86.16338996 -61 79 C-60.37158203 78.10587402 -59.74316406 77.21174805 -59.09570312 76.29052734 C-50.8897223 64.60713306 -42.85030349 52.85488593 -35.16552734 40.82226562 C-9.05546624 0 -9.05546624 0 0 0 Z " fill="#008000" transform="translate(535,186)"/>
<path d="M0 0 C4.85298321 3.32876104 7.41895406 7.29413746 10.375 12.25 C10.85541748 13.05066895 11.33583496 13.85133789 11.83081055 14.67626953 C44.56599742 70.3211415 37.57395588 146.50268535 39.30297852 208.87109375 C39.36114422 210.96169504 39.41938365 213.05229424 39.47771454 215.14289093 C39.51594821 216.5141997 39.55404983 217.88551216 39.59201813 219.25682831 C39.84624363 228.3929783 40.16914372 237.52436775 40.546875 246.65625 C40.97854334 257.2938276 41.18627357 267.91775088 41.18530273 278.56396484 C41.18753607 281.29409383 41.20597002 284.02384536 41.22460938 286.75390625 C41.29552864 308.45629847 37.4316099 327.25108691 24 345 C23.34 345 22.68 345 22 345 C20.60346752 339.68129121 19.2862466 334.34637967 18 329 C17.82919922 328.3095459 17.65839844 327.6190918 17.48242188 326.90771484 C13.15363318 309.07055907 11.87823984 290.6803818 10.22460938 272.44702148 C10.01718953 270.18727245 9.80159166 267.9285189 9.58203125 265.66992188 C8.58263908 255.30794795 7.85076829 244.93792829 7.21917725 234.54742432 C7.06064673 231.98157858 6.89781173 229.41625247 6.7300415 226.85101318 C1.67564278 149.37407765 1.67564278 149.37407765 11.20684814 118.16766357 C13.47382409 110.72053652 14.76364024 103.17524752 16 95.5 C16.19464844 94.34685303 16.38929688 93.19370605 16.58984375 92.00561523 C22.13011012 58.62500487 16.49877815 33.80617093 1.03125 4.1875 C0 2 0 2 0 0 Z " fill="#008000" transform="translate(324,53)"/>
<path d="M0 0 C0.33 0 0.66 0 1 0 C1.29782492 5.58302019 1.58860584 11.16638182 1.875 16.75 C1.94269089 18.06833328 1.94269089 18.06833328 2.01174927 19.41329956 C2.7393685 33.7004413 3.30917433 47.98936636 3.8196106 62.28573608 C4.93648695 93.32957901 6.42666861 124.38645509 9.4375 155.3125 C9.53538818 156.36493896 9.63327637 157.41737793 9.73413086 158.50170898 C11.26203612 172.85987961 15.08112041 186.6049224 19.14453125 200.41796875 C19.33190794 201.05511118 19.51928463 201.69225361 19.7123394 202.34870338 C21.47140476 208.32108171 23.24218672 214.28993085 25.03198242 220.25317383 C25.82919605 222.91122596 26.61886162 225.57130652 27.40055847 228.23396301 C28.13004298 230.71714288 28.87066113 233.19708734 29.62397766 235.67314148 C31.32716969 241.51099234 32.59791226 245.97572312 31 252 C30.82737137 252.70819382 30.65474274 253.41638763 30.47688293 254.14604187 C29.86461752 256.62389967 29.20320828 259.08456213 28.53125 261.546875 C28.29088013 262.43989319 28.05051025 263.33291138 27.80285645 264.25299072 C27.03907899 267.08638071 26.2695155 269.9181637 25.5 272.75 C24.98271539 274.66787236 24.46578472 276.58584021 23.94921875 278.50390625 C22.0510166 285.53551127 22.0510166 285.53551127 21.10742188 289.00683594 C20.91724487 289.70742126 20.72706787 290.40800659 20.53112793 291.12982178 C20.06622378 292.76681651 19.53813452 294.38559644 19 296 C15.88163667 294.62647072 13.88134572 293.08161027 11.57421875 290.5859375 C10.62579102 289.56693359 10.62579102 289.56693359 9.65820312 288.52734375 C9.00787109 287.81707031 8.35753906 287.10679687 7.6875 286.375 C7.04876953 285.68792969 6.41003906 285.00085938 5.75195312 284.29296875 C2.55444704 280.83953259 -0.56699069 277.34195055 -3.6171875 273.7578125 C-5.6857051 271.36299436 -7.46377954 269.64961546 -10.01953125 267.71875 C-15.88676492 263.05778675 -18.16769434 258.90917126 -19.11328125 251.41015625 C-19.67721595 244.48340278 -19.84990108 237.55485408 -19.93359375 230.60742188 C-19.99120048 225.87609024 -20.14585917 221.15044679 -20.3125 216.421875 C-20.62477986 207.2824343 -20.82755407 198.14301575 -21 189 C-21.02336426 187.96875 -21.04672852 186.9375 -21.07080078 185.875 C-22.19833053 133.72438047 -12.98472625 81.66185885 -5.42578125 30.25 C-5.3170594 29.50885326 -5.20833755 28.76770653 -5.09632111 28.0041008 C-1.39142902 2.78285805 -1.39142902 2.78285805 0 0 Z " fill="#008000" transform="translate(224,79)"/>
<path d="M0 0 C0.66 0 1.32 0 2 0 C2.46672119 1.00244751 2.46672119 1.00244751 2.94287109 2.02514648 C19.37013908 37.1614149 38.21771286 68.60156329 71.74267578 89.59106445 C92.66908669 102.82884858 113.9644435 122.89333049 122 147 C121.21908815 154.7631825 118.43750394 162.07574144 112.625 167.375 C106.81117786 171.90781048 101.16397674 172.64170717 94 172 C74.41683417 169.53071192 57.93536799 159.17567294 45.75 143.875 C35.98348936 130.25711554 30.01802787 115.49800193 24.75 99.6875 C23.78880804 96.85580346 22.82250146 94.02588637 21.85577393 91.19607544 C21.20246899 89.28309824 20.55073253 87.36958465 19.90057373 85.45553589 C16.39865804 75.16674601 12.68110799 64.95758318 8.92468262 54.7593689 C3.50438815 40.03743098 -0.1900429 26.86800883 -0.0625 11.0625 C-0.05798828 9.99708984 -0.05347656 8.93167969 -0.04882812 7.83398438 C-0.03711787 5.22259709 -0.02071724 2.61132876 0 0 Z " fill="#008000" transform="translate(164,361)"/>
<path d="M0 0 C0.33 0.66 0.66 1.32 1 2 C-16.50478947 30.39665848 -43.08228816 45.28945457 -73.03396606 57.74316406 C-92.25971039 65.75498898 -110.52278882 74.49419232 -128.42333984 85.15771484 C-151.64465901 98.91025201 -179.61727301 115.35033697 -207.65625 110.34765625 C-220.5006317 107.03710212 -230.78114094 100.46376234 -240 91 C-240.64453125 90.44183594 -241.2890625 89.88367188 -241.953125 89.30859375 C-243.49947667 85.89854211 -242.3355781 83.68414073 -241.13085938 80.25 C-240.66389648 79.0125 -240.66389648 79.0125 -240.1875 77.75 C-239.88779297 76.90953125 -239.58808594 76.0690625 -239.27929688 75.203125 C-238.53667483 73.12849834 -237.77661161 71.06209235 -237 69 C-236.16597656 69.20496094 -235.33195312 69.40992188 -234.47265625 69.62109375 C-219.80945154 73.13152878 -205.61676045 73.88953897 -190.625 72.3125 C-189.40039062 72.18488281 -188.17578125 72.05726563 -186.9140625 71.92578125 C-178.00115735 70.26117702 -170.38638526 64.43758825 -163.1875 59.25 C-161.88655396 58.32900513 -161.88655396 58.32900513 -160.55932617 57.3894043 C-156.73328018 54.68016163 -152.92482136 51.94803709 -149.1328125 49.19140625 C-148.56280518 48.7830957 -147.99279785 48.37478516 -147.40551758 47.95410156 C-145.93695224 46.901686 -144.47778071 45.83619484 -143.01953125 44.76953125 C-136.32429077 40.84592978 -129.34266671 39.52905102 -121.69140625 38.9375 C-120.81907349 38.86116333 -119.94674072 38.78482666 -119.04797363 38.70617676 C-117.18442879 38.54458439 -115.32044334 38.38800581 -113.45608521 38.23608398 C-110.52302283 37.99677911 -107.59148009 37.74325308 -104.65991211 37.48632812 C-96.23579475 36.75297545 -87.80904847 36.05687287 -79.37831116 35.40405273 C-76.31756277 35.16557887 -73.25763372 34.91742533 -70.19772339 34.66845703 C-68.13257577 34.50552858 -66.06672918 34.35963676 -64.00024414 34.21484375 C-52.67015197 33.30434489 -42.06833588 30.82901179 -32.1875 25.0625 C-31.53007812 24.68625488 -30.87265625 24.31000977 -30.1953125 23.92236328 C-22.14525693 19.13930133 -15.06460515 13.10810982 -8 7 C-7.0821875 6.21238281 -6.164375 5.42476563 -5.21875 4.61328125 C-3.4644795 3.09064858 -1.72258259 1.55825728 0 0 Z " fill="#008000" transform="translate(528,435)"/>
<path d="M0 0 C0.66 0 1.32 0 2 0 C2.01361761 0.55765108 2.02723522 1.11530216 2.04126549 1.68985176 C2.37801115 15.46457399 2.72088819 29.23913289 3.06982994 43.01355171 C3.2384931 49.67563523 3.40520284 56.33775453 3.56738281 63 C4.93083517 120.115294 4.93083517 120.115294 9.06738281 177.08251953 C9.3796134 180.2975034 9.6747843 183.5137684 9.96875 186.73046875 C11.01000693 197.8252625 12.31636379 208.85276681 13.98828125 219.87109375 C14.14521454 220.91271667 14.30214783 221.9543396 14.46383667 223.02752686 C15.84180747 231.76717646 17.87529715 240.28605755 20.14453125 248.83203125 C20.93171796 252.25942493 21.39679868 254.65885756 20 258 C18.24812779 260.31177865 16.50292974 262.42296011 14.5625 264.5625 C13.47164729 265.79468042 12.38182198 267.02777107 11.29296875 268.26171875 C10.74302246 268.88095215 10.19307617 269.50018555 9.62646484 270.13818359 C8.06478451 271.92584109 6.54972395 273.74160892 5.05078125 275.58203125 C4.59823975 276.13753662 4.14569824 276.69304199 3.67944336 277.26538086 C2.43776298 278.79755356 1.19926448 280.33230325 -0.0390625 281.8671875 C-0.68617188 282.57101562 -1.33328125 283.27484375 -2 284 C-2.66 284 -3.32 284 -4 284 C-3.938125 282.865625 -3.87625 281.73125 -3.8125 280.5625 C-3.8173602 276.02086697 -4.46166092 271.67151907 -5.26953125 267.21484375 C-5.40332184 266.46859741 -5.53711243 265.72235107 -5.67495728 264.95349121 C-7.00613551 257.69494438 -8.64830909 250.52054044 -10.33078003 243.33694458 C-14.54435337 225.24336492 -18.35850233 207.06261762 -22.06085205 188.85864258 C-22.63594473 186.03266122 -23.21787276 183.20823659 -23.80633545 180.38500977 C-34.56053541 128.70051646 -34.56053541 128.70051646 -29.296875 109.375 C-29.01191917 108.30474075 -29.01191917 108.30474075 -28.72120667 107.21286011 C-28.07685121 104.80494943 -27.41329196 102.40275714 -26.75 100 C-26.27882046 98.25313631 -25.80907004 96.50588666 -25.34057617 94.75830078 C-24.24249578 90.66944053 -23.13649521 86.58280807 -22.02685547 82.49707031 C-19.59494207 73.52385754 -17.20648834 64.53911586 -14.81640625 55.5546875 C-13.9020638 52.11847746 -12.98765207 48.68228585 -12.07324219 45.24609375 C-11.84574217 44.39110165 -11.61824215 43.53610954 -11.38384819 42.65520859 C-8.92395805 33.41195332 -6.45667396 24.17067521 -3.98828125 14.9296875 C-3.78387484 14.16439602 -3.57946842 13.39910454 -3.36886787 12.61062241 C-2.24608962 8.40703412 -1.12313712 4.20349242 0 0 Z " fill="#008000" transform="translate(323,145)"/>
<path d="M0 0 C0.33 0.66 0.66 1.32 1 2 C0.11988965 4.21527776 -0.82184148 6.29722346 -1.875 8.4296875 C-2.19044769 9.08304077 -2.50589539 9.73639404 -2.8309021 10.4095459 C-3.8779098 12.56940205 -4.93782007 14.72256829 -6 16.875 C-6.36313293 17.61518372 -6.72626587 18.35536743 -7.10040283 19.11798096 C-9.70600529 24.42592253 -12.34346674 29.71738256 -15 35 C-15.32883179 35.65484375 -15.65766357 36.3096875 -15.99645996 36.984375 C-25.37708375 55.6175677 -36.11509256 72.90508397 -48 90 C-48.6492041 90.93875977 -49.2984082 91.87751953 -49.96728516 92.84472656 C-53.9426011 98.58858448 -57.96241815 104.29981195 -62 110 C-63.03687083 111.46976117 -64.07333623 112.93980845 -65.109375 114.41015625 C-68.55449901 119.29795365 -72.00665632 124.18076627 -75.45898438 129.06347656 C-78.97670071 134.03947183 -82.49015157 139.01845202 -86 144 C-86.85561523 145.21357178 -86.85561523 145.21357178 -87.72851562 146.45166016 C-102.04530637 166.69926099 -102.04530637 166.69926099 -115.125 187.75 C-122.39328231 200.25296655 -127.7424537 208.8034638 -141.984375 213.484375 C-144 214 -144 214 -147 214 C-145.34214424 209.37760414 -142.89814383 205.96924109 -139.94921875 202.0859375 C-134.79515295 193.92619405 -132.11390061 185.37563455 -129.875 176.0625 C-126.68353384 163.63686939 -122.37305735 151.95994283 -117.44110107 140.13095093 C-115.60402227 135.65677513 -113.98753927 131.13311148 -112.43281555 126.5537262 C-100.21013516 90.7143904 -79.36605496 68.35963294 -48.25 47.375 C-43.21914217 43.95181606 -38.71000665 40.26376024 -34.265625 36.11328125 C-32.20590624 34.19206082 -30.09300454 32.37431189 -27.9375 30.5625 C-23.19515923 26.42961668 -19.14266319 21.72038153 -15 17 C-13.43952308 15.26900739 -11.87705341 13.53980896 -10.3125 11.8125 C-6.81245378 7.92560656 -3.38242374 3.98952544 0 0 Z " fill="#008000" transform="translate(564,257)"/>
<path d="M0 0 C0.33 0 0.66 0 1 0 C1.03092239 0.75420227 1.06184479 1.50840454 1.09370422 2.28546143 C4.6938212 89.77809604 12.08050421 169.52261456 46.35351562 251.23901367 C47 253 47 253 47 255 C46.34 255 45.68 255 45 255 C43.67822266 253.46557617 43.67822266 253.46557617 42.1640625 251.29296875 C41.60001709 250.48762695 41.03597168 249.68228516 40.45483398 248.85253906 C39.54906616 247.53334473 39.54906616 247.53334473 38.625 246.1875 C38.00375244 245.2912793 37.38250488 244.39505859 36.74243164 243.47167969 C31.07802705 235.23857539 25.70086025 226.83462107 20.44702148 218.33496094 C18.30817847 214.88365428 16.15196324 211.44314119 14 208 C14 218.23 14 228.46 14 239 C4.45762593 233.27457556 -1.32991281 225.22103476 -7.4375 216.0625 C-8.15615234 215.02931641 -8.87480469 213.99613281 -9.61523438 212.93164062 C-10.29779297 211.91392578 -10.98035156 210.89621094 -11.68359375 209.84765625 C-12.29775146 208.94023682 -12.91190918 208.03281738 -13.54467773 207.09790039 C-15.44881195 203.0446276 -15.73960547 199.43055002 -16 195 C-16.05256454 194.24268082 -16.10512909 193.48536163 -16.1592865 192.70509338 C-17.21649073 176.07682922 -17.24668393 159.4050103 -17.25 142.75 C-17.25029457 142.06739861 -17.25058914 141.38479721 -17.25089264 140.68151093 C-17.25237678 119.30810261 -16.86092209 98.2171632 -14 77 C-13.90054077 76.2457373 -13.80108154 75.49147461 -13.6986084 74.71435547 C-11.12389208 55.22390176 -7.93173814 35.86186666 -4.1875 16.5625 C-4.03470581 15.77353333 -3.88191162 14.98456665 -3.7244873 14.17169189 C-1.19326091 1.19326091 -1.19326091 1.19326091 0 0 Z " fill="#008000" transform="translate(155,74)"/>
<path d="M0 0 C0.66 0 1.32 0 2 0 C2.32572998 0.7621582 2.65145996 1.52431641 2.98706055 2.30957031 C13.01348376 25.72379567 23.1840333 49.12002501 34.85693359 71.77148438 C36.24710083 74.48174635 37.61616667 77.20243022 38.98828125 79.921875 C47.69612887 97.06358338 56.77925576 112.99803211 69.58642578 127.39208984 C71.05201099 129.05916138 72.48027267 130.75273156 73.90234375 132.45703125 C74.63493408 133.32908203 74.63493408 133.32908203 75.38232422 134.21875 C76.38322211 135.41314827 77.3782956 136.61244999 78.36767578 137.81640625 C80.85543038 140.77438263 83.2482536 143.29542198 86.40234375 145.54296875 C98.78812173 154.79388919 99.27910609 169.23651905 101.62635803 183.48522949 C103.45637887 194.21301618 106.3795727 204.67869264 109.20370483 215.17889404 C109.65087917 216.84384176 110.09568043 218.50942921 110.5377655 220.17573547 C110.94075094 221.6926998 111.35027575 223.20794671 111.76728821 224.72111511 C113.11212783 229.77574433 113.11212783 229.77574433 112 232 C109.19274127 226.68331812 106.3922136 221.36315181 103.59716797 216.04003906 C102.48280467 213.91896726 101.36714251 211.79857756 100.25048828 209.67871094 C98.45453299 206.26712299 96.66426213 202.8526022 94.875 199.4375 C94.00452026 197.78729858 94.00452026 197.78729858 93.11645508 196.10375977 C92.58044678 195.07822998 92.04443848 194.0527002 91.4921875 192.99609375 C91.01120605 192.08013428 90.53022461 191.1641748 90.03466797 190.22045898 C89 188 89 188 89 186 C88.34 186 87.68 186 87 186 C84.97437341 197.08668839 84.78447282 207.76863917 85 219 C81.57930673 217.85976891 81.27136634 217.31409661 79.43359375 214.37890625 C78.95325684 213.61787598 78.47291992 212.8568457 77.97802734 212.07275391 C77.46965332 211.24437012 76.9612793 210.41598633 76.4375 209.5625 C75.90592285 208.70575684 75.3743457 207.84901367 74.82666016 206.96630859 C69.59394927 198.46178623 64.65060546 189.83539906 60 181 C59.40155273 179.88625 59.40155273 179.88625 58.79101562 178.75 C50.6371945 163.4139886 45.55593866 147.17592529 40.2099762 130.72271729 C34.8504258 114.2873542 28.67163245 98.15755179 22.296875 82.09375 C21.87865982 81.03988098 21.46044464 79.98601196 21.02955627 78.90020752 C18.93826991 73.63723286 16.83809967 68.37802276 14.72436523 63.12402344 C6.199462 41.86126366 -0.48725627 23.09053322 0 0 Z " fill="#008000" transform="translate(76,166)"/>
<path d="M0 0 C3.29686931 2.77143076 5.0034796 6.45725286 7 10.1875 C16.31474888 27.10498321 28.00980054 41.48685485 40.953125 55.73828125 C42.8250969 57.80673875 44.6686339 59.89560914 46.5 62 C51.54849643 67.78956013 56.6721917 73.51359948 61.9140625 79.12890625 C62.40616211 79.65838867 62.89826172 80.18787109 63.40527344 80.73339844 C64.36049189 81.75970291 65.31929123 82.78269024 66.28222656 83.80175781 C68.98673612 86.71202376 71.3825812 89.3624009 73 93 C72.58665632 95.68254332 72.06841516 97.8203149 71.2109375 100.35546875 C70.99184723 101.05714676 70.77275696 101.75882477 70.54702759 102.48176575 C69.84225946 104.72365988 69.10939052 106.95515535 68.375 109.1875 C67.90303519 110.66931402 67.43296342 112.1517324 66.96484375 113.63476562 C66.06224807 116.48493704 65.15221562 119.33250661 64.23339844 122.17749023 C63.19947363 125.38065018 62.16570245 128.58342764 61.1640625 131.796875 C60.93412598 132.52616211 60.70418945 133.25544922 60.46728516 134.00683594 C58.74734032 141.34311059 62.2675816 146.92221059 66 153 C66.33 153.66 66.66 154.32 67 155 C58.61358155 153.6810093 50.39302883 144.58801464 44.0625 139.1875 C43.55090332 138.75139404 43.03930664 138.31528809 42.51220703 137.8659668 C41.38443846 136.89064119 40.27127466 135.89829899 39.16918945 134.89404297 C37.46023997 133.40186176 35.67582376 131.99610741 33.86791992 130.62548828 C23.54062639 122.46995486 20.91501075 114.06199355 18.1875 101.5 C17.74580806 99.62776552 17.30026604 97.75643558 16.85107422 95.88598633 C15.94805041 92.08695127 15.07464558 88.28296959 14.22705078 84.47119141 C13.28527509 80.2389925 12.29349448 76.02211539 11.26698303 71.80975342 C-0.47271301 23.61292367 -0.47271301 23.61292367 0 0 Z " fill="#008000" transform="translate(170,290)"/>
<path d="M0 0 C3.67107688 1.34148086 6.70014932 3.00765062 9.9375 5.1875 C26.55528646 15.87353648 43.76861997 21.0277466 63.0625 24.125 C64.59327065 24.37925832 66.12395005 24.63406655 67.65454102 24.8894043 C79.06315989 26.77285039 90.50093934 28.39344813 101.98999023 29.70629883 C106.42007699 30.3536199 108.39116969 31.01671775 111.25 34.5625 C120.75769777 45.84658292 130.46095748 52.18284485 144 58 C136.9092536 65.0907464 118.59880479 64.24501912 108.92700195 64.25146484 C80.49296653 63.78972344 56.77320392 52.64254181 35 35 C34.40622559 34.52191895 33.81245117 34.04383789 33.20068359 33.55126953 C25.91730608 27.63644414 19.10252433 21.28849619 12.4375 14.6875 C11.43686523 13.70088379 11.43686523 13.70088379 10.41601562 12.69433594 C6.46155408 8.71372587 3.13677674 4.65398928 0 0 Z " fill="#008000" transform="translate(98,472)"/>
<path d="M0 0 C-1.13260254 0.74721313 -1.13260254 0.74721313 -2.28808594 1.50952148 C-5.15285164 3.40207866 -8.01533956 5.29799284 -10.87646484 7.19604492 C-12.10314026 8.00887324 -13.33064874 8.82044607 -14.55908203 9.63061523 C-22.01602955 14.55000199 -29.28329558 19.60174916 -36.36328125 25.05615234 C-62.18102037 44.08956335 -99.85294273 48.95176612 -130.8125 46.125 C-131.69164062 46.04677002 -132.57078125 45.96854004 -133.4765625 45.88793945 C-134.70439453 45.76165161 -134.70439453 45.76165161 -135.95703125 45.6328125 C-136.68897705 45.55949707 -137.42092285 45.48618164 -138.17504883 45.41064453 C-140 45 -140 45 -142 43 C-137.6921629 40.29077433 -133.35223278 37.63705823 -129 35 C-128.09926758 34.4534375 -127.19853516 33.906875 -126.27050781 33.34375 C-119.24849816 29.10404606 -112.1576792 25.00599142 -105 21 C-104.31744141 20.60377441 -103.63488281 20.20754883 -102.93164062 19.79931641 C-91.82929819 13.49956882 -79.69726864 14.38086378 -67.30859375 14.17578125 C-50.51404556 13.86060206 -36.12195688 9.71851044 -20.3125 4.15625 C-4.26559691 -1.42186564 -4.26559691 -1.42186564 0 0 Z " fill="#008000" transform="translate(532,485)"/>
<path d="M0 0 C0.495 0.99 0.495 0.99 1 2 C0.01879883 4.1887207 0.01879883 4.1887207 -1.54296875 6.92578125 C-2.11660156 7.94019287 -2.69023438 8.95460449 -3.28125 9.99975586 C-4.22484375 11.63956421 -4.22484375 11.63956421 -5.1875 13.3125 C-5.82300781 14.43084229 -6.45851563 15.54918457 -7.11328125 16.70141602 C-8.42794202 19.01238407 -9.74521162 21.32156125 -11.06787109 23.62792969 C-12.85097966 26.73992052 -14.62474033 29.85698444 -16.39453125 32.9765625 C-19.24623252 37.99427901 -22.10461259 43.00734905 -25 48 C-25.48847412 48.85851562 -25.97694824 49.71703125 -26.48022461 50.6015625 C-34.31741182 64.11247438 -46.81577898 75.56146689 -61.921875 80.48046875 C-70.29125948 82.57281487 -78.38965589 83.30509093 -87 83 C-83.85472899 78.10293248 -80.54491456 73.36431957 -77.04956055 68.71289062 C-72.97502145 63.27737866 -69.20449458 57.86400035 -65.875 51.9375 C-65.235625 50.80699219 -64.59625 49.67648437 -63.9375 48.51171875 C-62.92919605 46.70891619 -61.94980545 44.90152047 -61.01171875 43.06103516 C-55.26018461 31.81056804 -55.26018461 31.81056804 -49.80859375 29.85546875 C-47.4418875 29.57252175 -45.06397833 29.37299081 -42.68359375 29.25 C-27.41269798 28.21358714 -14.75541814 18.12973802 -5 7 C-3.22499316 4.71722837 -1.60563609 2.40845413 0 0 Z " fill="#008000" transform="translate(524,383)"/>
<path d="M0 0 C0.33 0 0.66 0 1 0 C1.15855469 0.83402344 1.31710938 1.66804688 1.48046875 2.52734375 C4.04039652 14.8743987 8.92770215 24.93524753 19.24609375 32.6875 C32.12194504 40.80626338 47.20873413 45.31982531 61.5 50.25 C63.31265735 50.8797556 65.12515835 51.50996144 66.9375 52.140625 C70.24711952 53.29078132 73.55725698 54.43938596 76.86914062 55.58300781 C77.57668991 55.83014023 78.2842392 56.07727264 79.01322937 56.33189392 C80.8098026 56.93604091 82.63137963 57.46454368 84.4543457 57.98364258 C87 59 87 59 88.57421875 62.30859375 C88.97082924 63.67776069 89.34073219 65.05486842 89.6875 66.4375 C89.88754639 67.15164063 90.08759277 67.86578125 90.29370117 68.6015625 C90.88500273 70.72900677 91.44363152 72.86320046 92 75 C92.6038865 77.16674477 93.20800572 79.33342471 93.8125 81.5 C94.21153859 82.9991505 94.60879395 84.49878654 95 86 C89.47211261 84.77971581 84.65901102 83.12081622 79.625 80.5 C78.59644897 79.9755127 78.59644897 79.9755127 77.54711914 79.44042969 C71.69463278 76.42721601 65.94757237 73.22937861 60.21435547 69.99633789 C54.9495782 67.04042797 49.62117955 64.23480102 44.24975586 61.4777832 C9.84947978 43.81428994 9.84947978 43.81428994 3.765625 27.73828125 C1.43049152 20.31831 -0.14924629 13.43216646 -0.0625 5.625 C-0.05347656 4.56539063 -0.04445312 3.50578125 -0.03515625 2.4140625 C-0.01775391 1.21910156 -0.01775391 1.21910156 0 0 Z " fill="#008000" transform="translate(53,391)"/>
</svg>
