<?xml version="1.0" encoding="UTF-8"?>
<svg version="1.1" xmlns="http://www.w3.org/2000/svg" width="1300" height="1300">
<path d="M0 0 C0.792854 0.17909912 1.58570801 0.35819824 2.40258789 0.54272461 C7.98072616 1.86478163 13.3758245 3.50723001 18.75 5.5 C19.41733154 5.74500244 20.08466309 5.99000488 20.7722168 6.24243164 C24.0301094 7.50776819 26.6695153 8.61265654 28.8125 11.4375 C30.71591442 16.51327179 29.2003834 20.46263688 27.28125 25.2734375 C22.21278443 36.19220641 15.37456367 45.65301148 7.86181641 55.00805664 C3.87771144 59.97374447 0.26054346 65.08538339 -3.1875 70.4375 C-2.67687012 70.04916992 -2.16624023 69.66083984 -1.64013672 69.26074219 C0.49990369 67.63813073 2.6546895 66.03640221 4.8125 64.4375 C5.53695313 63.89609375 6.26140625 63.3546875 7.0078125 62.796875 C44.88484454 35.31997718 90.6661613 29.09972978 136.3125 33.625 C137.375896 33.72586914 138.43929199 33.82673828 139.53491211 33.93066406 C163.4758123 36.55209813 186.87117586 42.74060813 210.17553711 48.60308838 C216.36843849 50.16009475 222.56378654 51.70726829 228.76020241 53.25022125 C230.89637688 53.78367902 233.03132914 54.32182188 235.16618347 54.86053467 C236.47622747 55.18810769 237.78630946 55.51552885 239.09643555 55.84277344 C240.22824753 56.12747498 241.36005951 56.41217651 242.52616882 56.70550537 C264.73999921 61.65339518 289.42834973 56.94230833 311.14453125 51.328125 C314.87848105 50.42147904 317.98679815 50.13144385 321.8125 50.4375 C323.8125 52.4375 323.8125 52.4375 324.12890625 55.28515625 C322.97909489 66.7406842 304.48808804 80.61903804 296 87.5625 C294.28469803 88.87252263 292.55314625 90.16134532 290.8125 91.4375 C289.84787842 92.15220459 289.84787842 92.15220459 288.86376953 92.88134766 C281.32901815 98.45492976 273.76830115 103.91650068 265.8125 108.875 C254.11831848 116.25865182 243.21855133 124.99238459 233.07421875 134.37890625 C229.79258509 137.36581633 226.35774828 140.14621803 222.90625 142.93359375 C220.64268164 144.76559794 218.39492755 146.61076857 216.15625 148.47265625 C186.81161689 172.78060598 161.77190026 181.21455028 123.8125 182.4375 C123.12591309 182.46086426 122.43932617 182.48422852 121.73193359 182.50830078 C74.99073588 183.86526651 19.81746565 179.29656966 -15.85107422 145.87890625 C-17.60387353 144.20535453 -19.3375425 142.51471887 -21.0625 140.8125 C-21.86578735 140.02335205 -21.86578735 140.02335205 -22.68530273 139.21826172 C-26.31767446 135.55570092 -29.27896433 131.69834376 -32.1875 127.4375 C-37.70509766 140.87092166 -42.12929664 154.49756213 -46.1875 168.4375 C-45.26042236 168.53248779 -44.33334473 168.62747559 -43.37817383 168.7253418 C11.33331595 174.36129668 67.23017665 180.67013377 119.8125 197.4375 C120.81893555 197.75525391 121.82537109 198.07300781 122.86230469 198.40039062 C174.21360448 214.81079655 221.60085186 241.08018486 261.52734375 277.37109375 C263.72481847 279.35821192 265.94949868 281.30875024 268.1875 283.25 C273.73876263 288.10454545 273.73876263 288.10454545 275.8125 290.4375 C275.8125 291.0975 275.8125 291.7575 275.8125 292.4375 C276.41191406 292.70304687 277.01132812 292.96859375 277.62890625 293.2421875 C281.56274392 295.39559417 283.9904137 299.01382511 286.8125 302.4375 C287.54364014 303.31825195 287.54364014 303.31825195 288.28955078 304.21679688 C294.79500991 312.06490122 301.20687613 319.91063553 306.8125 328.4375 C307.50601563 329.4790625 308.19953125 330.520625 308.9140625 331.59375 C314.65144943 340.30012565 319.86793352 349.25989671 324.8125 358.4375 C325.30484131 359.34411377 325.30484131 359.34411377 325.80712891 360.26904297 C357.59187331 419.37157378 369.98916046 490.20088651 372.81787109 556.64648438 C372.93746106 559.43659146 373.06775512 562.22605482 373.19921875 565.015625 C374.04644489 583.64743749 373.99974196 602.18584473 373.0625 620.8125 C372.99814758 622.09911026 372.99814758 622.09911026 372.93249512 623.41171265 C371.61745803 648.88188922 368.09005455 673.6840473 361.8125 698.4375 C361.55629883 699.44973633 361.30009766 700.46197266 361.03613281 701.50488281 C350.12413912 743.60573677 329.09057916 786.28716988 298.97265625 818.13671875 C297.1465133 820.08174261 295.4063779 822.06352581 293.66796875 824.0859375 C283.1334406 836.16730776 271.54092471 847.6833516 258.8125 857.4375 C257.63138076 858.39246194 256.45321145 859.35107911 255.27734375 860.3125 C247.36579258 866.7666334 239.29795081 872.75011899 230.8125 878.4375 C229.71138805 879.19798729 228.61114306 879.9597312 227.51171875 880.72265625 C159.005184 927.85484183 74.5199957 956.36049647 -7.1875 969.4375 C-8.45352051 969.64568359 -9.71954102 969.85386719 -11.02392578 970.06835938 C-30.674697 973.29229427 -50.33274183 975.83391581 -70.1875 977.4375 C-71.330979 977.53321289 -72.47445801 977.62892578 -73.65258789 977.72753906 C-86.91788094 978.70464071 -100.20465409 978.68110749 -113.5 978.6875 C-115.39525421 978.68851212 -115.39525421 978.68851212 -117.32879639 978.68954468 C-201.41151722 978.6184177 -289.68689111 958.69531897 -356.1875 904.4375 C-357.55841797 903.35275391 -357.55841797 903.35275391 -358.95703125 902.24609375 C-365.27014713 897.19740737 -371.20994744 891.81076218 -377.109375 886.29296875 C-379.71036335 883.86436403 -382.37179863 881.51669557 -385.0625 879.1875 C-388.46171664 876.18382857 -391.46146201 873.01401624 -394.38671875 869.55078125 C-396.36683129 867.22704831 -398.43004634 864.99396028 -400.5 862.75 C-413.43345962 848.37219464 -424.37730458 832.06361432 -434.1875 815.4375 C-434.52426758 814.87224609 -434.86103516 814.30699219 -435.20800781 813.72460938 C-447.27547299 793.36146348 -456.87112741 771.93588421 -464.1875 749.4375 C-464.50557617 748.45990723 -464.82365234 747.48231445 -465.15136719 746.47509766 C-475.26150013 714.83999516 -480.81014564 681.53344626 -483.1875 648.4375 C-483.27507568 647.23867188 -483.36265137 646.03984375 -483.45288086 644.8046875 C-484.25344415 633.10008986 -484.38835235 621.41642895 -484.375 609.6875 C-484.37439575 608.6999472 -484.3737915 607.71239441 -484.37316895 606.69491577 C-484.34589682 590.19411571 -483.81964312 573.86804383 -482.1875 557.4375 C-482.06922852 556.19291016 -481.95095703 554.94832031 -481.82910156 553.66601562 C-473.16183897 464.87619582 -451.90301655 365.25059758 -396.1875 293.4375 C-395.53910156 292.57769531 -394.89070313 291.71789062 -394.22265625 290.83203125 C-388.09346017 282.8886968 -381.12234385 275.6731749 -374.1875 268.4375 C-373.67719238 267.90382813 -373.16688477 267.37015625 -372.64111328 266.8203125 C-366.53103808 260.46534038 -360.18284401 254.79054928 -353.1875 249.4375 C-351.77791016 248.30248047 -351.77791016 248.30248047 -350.33984375 247.14453125 C-294.88912879 203.05034704 -218.17384813 177.64601698 -147.7980957 175.15136719 C-139.61380389 174.85120777 -132.4210026 173.75724969 -124.5703125 171.42578125 C-118.151759 169.55061493 -111.87076673 168.38477753 -105.1875 168.4375 C-105.08663086 167.79063232 -104.98576172 167.14376465 -104.88183594 166.47729492 C-103.63461475 159.02905415 -101.70339361 151.94767006 -99.4375 144.75 C-99.07825439 143.60225098 -98.71900879 142.45450195 -98.34887695 141.27197266 C-85.85370516 101.74989751 -66.31290717 64.68348212 -40.1875 32.4375 C-39.15051853 31.13453076 -38.11409485 29.83111747 -37.078125 28.52734375 C-30.42245843 20.19718427 -23.55591677 12.14835922 -16.1875 4.4375 C-15.32125 3.52355469 -14.455 2.60960937 -13.5625 1.66796875 C-9.09815697 -2.52469551 -5.48868183 -1.25319448 0 0 Z " fill="#daa520" transform="translate(629.1875,136.5625)"/>
</svg>
