<?xml version="1.0" encoding="UTF-8"?>
<svg version="1.1" xmlns="http://www.w3.org/2000/svg" width="1300" height="1300">
<path d="M0 0 C1.11084961 0.02030273 1.11084961 0.02030273 2.24414062 0.04101562 C4.05891075 0.07614021 5.87330288 0.12994028 7.6875 0.1875 C6.2025 2.6625 6.2025 2.6625 4.6875 5.1875 C6.77223947 4.73560561 8.85525036 4.27573175 10.9375 3.8125 C12.09765625 3.55726563 13.2578125 3.30203125 14.453125 3.0390625 C17.54040945 2.37609907 17.54040945 2.37609907 19.49902344 1.14916992 C28.05272758 -2.60953608 40.53824843 0.51452488 49.65869141 1.73168945 C51.71226464 2.00327513 53.76776541 2.2532239 55.82421875 2.50195312 C57.15381117 2.67320033 58.48324548 2.84568065 59.8125 3.01953125 C60.99070312 3.17139893 62.16890625 3.3232666 63.3828125 3.47973633 C66.88288557 4.22934565 69.51477376 5.56490255 72.6875 7.1875 C75.12554767 7.74542165 75.12554767 7.74542165 77.56640625 7.8828125 C78.47737061 7.95814209 79.38833496 8.03347168 80.3269043 8.11108398 C81.29152588 8.17755127 82.25614746 8.24401855 83.25 8.3125 C84.25780518 8.39250244 85.26561035 8.47250488 86.30395508 8.55493164 C92.26530419 9.00891238 98.22241496 9.30852258 104.1965332 9.52587891 C125.0997763 10.29943799 125.0997763 10.29943799 131.88671875 15.65625 C136.14182017 18.81355832 140.47793475 19.57257681 145.625 20.4375 C146.48029297 20.59734375 147.33558594 20.7571875 148.21679688 20.921875 C158.61460645 23.20606435 158.61460645 23.20606435 168.6875 21.1875 C173.00513691 20.48462888 175.51813204 21.49517773 179.25 23.5 C183.14637543 25.59088009 186.59892855 26.72226509 190.9375 27.5625 C197.34006756 28.8791267 202.51405805 31.44243514 208.265625 34.484375 C212.39635232 36.54030777 216.55652151 37.93510088 220.9609375 39.27734375 C223.52064238 40.13180111 225.73838785 41.19212239 228.125 42.4375 C232.84008248 44.67545581 237.07325134 44.27737023 242.18359375 43.7421875 C245.87403785 44.21120715 247.29652514 45.02831919 250.36328125 47.00390625 C255.82869332 50.50440564 261.14420579 51.88850955 267.4375 53.25 C274.51972897 54.78585017 279.49954871 55.98300022 284.6875 61.1875 C285.491875 61.93 286.29625 62.6725 287.125 63.4375 C289.6875 66.1875 289.6875 66.1875 291.09765625 68.43359375 C294.33573393 73.46383829 294.33573393 73.46383829 299.5703125 75.96484375 C301.77860934 76.20163703 303.98837042 76.42506891 306.19921875 76.63671875 C312.46893954 77.62667466 317.7132792 80.28368114 322.6875 84.1875 C324.36066612 86.82424853 325.55806471 89.49012264 326.8359375 92.3359375 C330.7418257 98.35133494 337.64796831 101.57056326 343.6875 105.1875 C348.20096558 107.97023818 351.78026284 111.07362903 355.3125 115 C355.7765625 115.49564453 356.240625 115.99128906 356.71875 116.50195312 C359.17888515 119.20184721 361.00941929 121.70486839 362.625 124.98828125 C364.37484726 128.43121901 364.37484726 128.43121901 367.7109375 129.2109375 C368.81695313 129.32695312 369.92296875 129.44296875 371.0625 129.5625 C377.16822 130.71029386 377.16822 130.71029386 379.51953125 132.87109375 C380.875 135 380.875 135 382.1640625 137.40234375 C384.06186983 140.87192485 386.38389835 143.9025485 388.75 147.0625 C391.88900708 151.31905333 394.32015179 155.28466137 396.25 160.25 C398.30436253 165.27505941 400.79830155 167.10239481 405.69921875 169.28515625 C407.6875 170.1875 407.6875 170.1875 409.6875 172.1875 C409.99343391 177.28639842 409.39432076 182.15140209 408.6875 187.1875 C409.51894531 187.47882813 410.35039063 187.77015625 411.20703125 188.0703125 C420.11588182 191.43094652 420.11588182 191.43094652 422.8125 195 C423.62013991 197.94211681 424.35708145 200.88899439 425.01953125 203.8671875 C425.83487039 206.69941819 427.02832647 209.25611912 428.25 211.9375 C430.16314 216.31276799 430.99398138 219.85740482 431.1875 224.625 C431.37660015 229.26134071 431.37660015 229.26134071 434 233.125 C434.886875 233.805625 435.77375 234.48625 436.6875 235.1875 C440.27826588 238.94832037 441.10055355 241.14990174 441.0625 246.3125 C441.32105577 252.66148057 443.19506628 256.40031244 446.4453125 261.75 C448.22681741 265.24578323 447.86305551 267.51388903 446.6875 271.1875 C446.31625 272.074375 445.945 272.96125 445.5625 273.875 C444.52413627 276.619247 444.70671627 277.46991176 445.6875 280.1875 C446.69206181 281.40654933 447.73754428 282.59254767 448.8125 283.75 C451.28494696 286.99545544 452.07026013 288.8095814 451.625 292.875 C451.47933594 293.79410156 451.33367188 294.71320313 451.18359375 295.66015625 C450.52112909 300.37043646 450.37029517 305.0627272 450.1875 309.8125 C450.11781086 311.57565136 450.04496757 313.33868128 449.96875 315.1015625 C449.93330078 315.94936279 449.89785156 316.79716309 449.86132812 317.6706543 C449.68877208 320.16908165 449.32578315 322.58582978 448.9375 325.05859375 C448.56589712 328.17730533 448.5053493 328.8779407 450.15625 331.68359375 C450.8265625 332.32425781 451.496875 332.96492188 452.1875 333.625 C455.60294691 337.53612808 455.60294691 337.53612808 456.00390625 340.625 C455.74088208 343.21477646 455.27866037 345.6528516 454.6875 348.1875 C454.43806641 349.54875 454.43806641 349.54875 454.18359375 350.9375 C453.53505437 354.45084719 452.81821051 357.79536848 451.6875 361.1875 C451.65196936 362.59988618 451.67207884 364.01415532 451.73046875 365.42578125 C451.75173828 366.24626953 451.77300781 367.06675781 451.79492188 367.91210938 C451.84795755 369.62606702 451.91290539 371.33970086 451.99023438 373.05273438 C452.11318121 378.87677159 451.02299236 381.3105052 447.6875 386.1875 C447.68462134 388.81572071 447.83578965 391.16184366 448.125 393.75 C448.68509646 402.82195663 445.2029384 408.81447863 440.75756836 416.5012207 C436.95384563 423.21516593 435.46493042 428.30289176 434.9453125 436.046875 C434.70516351 438.97232633 434.16732843 441.00007949 433.0625 443.6875 C430.70279121 449.84171538 431.45707653 456.71004025 431.6875 463.1875 C430.90503906 463.57421875 430.12257813 463.9609375 429.31640625 464.359375 C428.30449219 464.88015625 427.29257813 465.4009375 426.25 465.9375 C425.24066406 466.44796875 424.23132812 466.9584375 423.19140625 467.484375 C420.6175274 468.92188737 420.6175274 468.92188737 419.82421875 471.046875 C419.65981494 473.62096896 419.78190361 476.11308701 419.9375 478.6875 C419.98552632 483.8468985 419.98552632 483.8468985 417.5 486.6875 C414.6875 488.1875 414.6875 488.1875 412.2421875 489.265625 C408.5854794 492.01654302 407.57657498 495.23569425 406 499.4375 C405.55817383 500.54544922 405.55817383 500.54544922 405.10742188 501.67578125 C403.77429513 505.07300761 402.64138176 508.36597384 401.7265625 511.90625 C400.59240545 515.48779858 399.16166759 517.58122331 396.75 520.4375 C396.06035156 521.26765625 395.37070313 522.0978125 394.66015625 522.953125 C390.20710362 527.99697867 390.20710362 527.99697867 385.9375 529.5625 C379.65466353 532.57085632 377.31681644 539.08273072 374.6875 545.1875 C373.76767387 547.86684203 372.96385584 550.51063141 372.29296875 553.26171875 C371.6875 555.1875 371.6875 555.1875 369.6875 557.1875 C367.32719304 557.64597689 364.9476826 558.00893131 362.5625 558.3125 C360.64050781 558.56386719 360.64050781 558.56386719 358.6796875 558.8203125 C357.69226562 558.94148437 356.70484375 559.06265625 355.6875 559.1875 C355.24470703 560.58355469 355.24470703 560.58355469 354.79296875 562.0078125 C351.5862439 571.23139564 343.80134138 578.48364556 336.484375 584.64453125 C334.68014777 586.12420995 334.68014777 586.12420995 333.26953125 587.78125 C331.20125658 589.61971638 329.27173694 590.09430781 326.625 590.875 C322.15790822 592.38161757 319.25653649 594.17477398 315.75 597.3125 C311.08146592 601.35757325 307.52605697 601.93545367 301.5078125 602.57421875 C297.4534604 603.45584379 295.42583922 605.57620703 292.55078125 608.4453125 C288.71411225 612.03263823 283.91178463 613.77248826 279 615.4375 C275.57834986 617.24516423 275.08403044 617.81366368 273.3125 621 C269.39516193 627.96415657 262.57482202 631.3132479 255.125 633.55078125 C252.38480682 634.26656889 249.63159128 634.91283461 246.875 635.5625 C239.73125064 637.29819358 232.43718248 639.67753339 226.2890625 643.79296875 C222.97722176 645.56823473 220.23520013 645.70969947 216.5 646 C211.47478237 646.48370754 207.82762526 647.35514393 203.6875 650.375 C198.25209231 654.14908707 193.77882208 653.02901826 187.4453125 652.3125 C180.82309688 652.0922184 174.85053685 654.53546501 169.77734375 658.7890625 C169.23207031 659.31242188 168.68679688 659.83578125 168.125 660.375 C163.89887661 664.32814413 159.26695762 664.55100848 153.6875 665.1875 C152.4190625 665.37054687 151.150625 665.55359375 149.84375 665.7421875 C142.74293334 666.7515838 135.80215544 667.3025365 128.62109375 667.21484375 C125.42784465 667.18507978 122.25420286 667.1970475 119.0625 667.3125 C118.08023438 667.33570313 117.09796875 667.35890625 116.0859375 667.3828125 C112.6275696 668.20169042 111.10429797 669.20894854 108.2421875 671.20703125 C102.1685771 675.03229819 96.48074513 675.00409646 89.4453125 674.80493164 C87.42593945 674.74968372 85.4106804 674.7434073 83.390625 674.74414062 C76.842598 674.65574226 72.50690182 674.33394149 66.6875 671.1875 C59.43556055 670.15150865 50.9925959 672.91999093 44.56640625 676.3046875 C42.34603082 677.34794082 40.7566505 677.45465193 38.3125 677.4375 C37.58289063 677.44265625 36.85328125 677.4478125 36.1015625 677.453125 C33.6875 677.1875 33.6875 677.1875 30.96630859 676.24121094 C27.57156781 675.15024286 24.33924611 674.56632087 20.8125 674.0625 C19.66007812 673.89492188 18.50765625 673.72734375 17.3203125 673.5546875 C16.45148438 673.43351563 15.58265625 673.31234375 14.6875 673.1875 C14.71779297 672.25929443 14.74808594 671.33108887 14.77929688 670.37475586 C16.77957083 607.7854145 14.94174622 558.63197436 -29.84765625 510.4609375 C-35.62739229 504.54380679 -41.81253958 499.29273207 -48.3125 494.1875 C-49.29863281 493.39601563 -50.28476562 492.60453125 -51.30078125 491.7890625 C-68.88292053 477.90727382 -88.2979079 466.86389962 -108.41699219 457.11083984 C-110.16228968 456.26067046 -111.89804942 455.39099459 -113.6328125 454.51953125 C-174.06955498 425.00228231 -243.68652009 413.11438481 -310.375 409.9375 C-311.23779572 409.89620972 -312.10059143 409.85491943 -312.98953247 409.81237793 C-340.048318 408.55968936 -367.01953638 409.23691557 -394 411.625 C-394.69876251 411.68644196 -395.39752502 411.74788391 -396.11746216 411.81118774 C-404.97941752 412.59955285 -413.79067053 413.59059487 -422.60473633 414.80493164 C-426.55748251 415.21277738 -430.34251384 415.25088149 -434.3125 415.1875 C-434.62703125 414.04152344 -434.9415625 412.89554688 -435.265625 411.71484375 C-435.69742836 410.18475794 -436.12974761 408.65481766 -436.5625 407.125 C-436.76746094 406.37283203 -436.97242188 405.62066406 -437.18359375 404.84570312 C-438.26558758 401.05872472 -439.4399812 397.75591865 -441.48828125 394.37890625 C-444.56455836 388.99706813 -442.79161964 384.40193852 -441.52734375 378.55859375 C-438.88562347 367.74920777 -438.88562347 367.74920777 -441.3125 357.1875 C-441.33764566 355.83071226 -441.30274928 354.4724846 -441.234375 353.1171875 C-441.20859375 352.3025 -441.1828125 351.4878125 -441.15625 350.6484375 C-441.09457519 348.94724062 -441.0168871 347.24653594 -440.921875 345.546875 C-440.77851893 339.83055185 -441.76094861 336.52854633 -445.203125 331.93212891 C-446.3125 330.1875 -446.3125 330.1875 -446.5625 326.6875 C-445.27800781 323.09092186 -444.41731612 322.20814089 -441.75 319.6875 C-438.13416578 315.91606635 -437.68698347 312.56090023 -437.75 307.5 C-437.89673712 302.86594695 -438.49398285 299.42349034 -440.3125 295.1875 C-441.50045949 287.2883408 -439.50914283 277.93286081 -436.19140625 270.765625 C-435.00170514 267.27583507 -435.38311925 264.35542294 -435.625 260.6875 C-435.89214312 252.17904063 -433.3949906 246.09773241 -428.3125 239.1875 C-426.99347799 237.90046919 -425.64238324 236.64478467 -424.25 235.4375 C-422.46413088 233.95700146 -422.46413088 233.95700146 -421.3125 232.1875 C-421.32127525 229.70849087 -421.80341209 227.82715239 -422.62890625 225.49609375 C-423.50478432 222.53812839 -423.63574733 220.26034499 -423.3125 217.1875 C-421.7734375 214.87109375 -421.7734375 214.87109375 -419.6875 212.625 C-413.15561611 204.93703047 -409.43151378 195.96060407 -407.05078125 186.2109375 C-405.60765652 182.25570677 -402.79392361 180.74424237 -399.125 179 C-398.40957031 178.65582031 -397.69414062 178.31164062 -396.95703125 177.95703125 C-396.41433594 177.70308594 -395.87164062 177.44914063 -395.3125 177.1875 C-395.41691406 175.95386719 -395.41691406 175.95386719 -395.5234375 174.6953125 C-396.00047223 164.85931077 -393.66096388 159.44848949 -387.48828125 151.98046875 C-384.74735382 149.72178708 -382.74074941 149.53831466 -379.25 149.0625 C-376.05210366 148.46225802 -376.05210366 148.46225802 -373.3125 147.1875 C-371.80753332 144.69868944 -371.34272871 142.59997933 -370.8125 139.75 C-370.07766348 135.98396285 -368.31738134 133.44543218 -366.3125 130.1875 C-365.88066406 129.24003906 -365.44882812 128.29257812 -365.00390625 127.31640625 C-363.14148408 123.8711403 -361.0540638 121.59646987 -358.25 118.875 C-357.37214844 118.01261719 -356.49429688 117.15023437 -355.58984375 116.26171875 C-351.76243789 112.77569385 -348.62747688 112.87592835 -343.625 112.46875 C-341.28981545 112.31613953 -341.28981545 112.31613953 -339.3125 111.1875 C-338.71902594 109.16028662 -338.18769936 107.11471981 -337.6875 105.0625 C-335.61369335 98.13975633 -333.15384355 95.20864747 -327.3125 91.1875 C-326.32636719 90.41277344 -325.34023438 89.63804687 -324.32421875 88.83984375 C-318.01656106 83.99752409 -312.82559854 81.47107146 -304.77734375 80.625 C-302.07068268 80.36864375 -302.07068268 80.36864375 -299.8125 77.9375 C-298.78143398 76.0472123 -297.76117223 74.1510038 -296.75 72.25 C-293.06630152 67.62176344 -288.92093219 65.05920562 -283.3125 63.1875 C-279.50390625 63.09375 -279.50390625 63.09375 -275.5625 63.3125 C-270.58311904 63.69696468 -270.58311904 63.69696468 -266.2578125 61.7109375 C-265.18690564 60.33101274 -264.15533346 58.91987358 -263.16015625 57.484375 C-257.07301789 49.917277 -245.70887488 44.99449517 -236.3125 43.1875 C-234.062169 43.17180002 -231.81073234 43.21407508 -229.5625 43.3125 C-223.81929322 43.540022 -221.03357641 42.43164416 -216.80078125 38.59765625 C-216.30964844 38.13230469 -215.81851563 37.66695312 -215.3125 37.1875 C-212.46900702 35.76575351 -209.92213758 36.11040715 -206.75 36.0625 C-201.51248138 35.75409789 -198.67804232 35.26805905 -194.8125 31.6875 C-190.1285451 27.41912705 -186.16855908 27.56324525 -180.01171875 27.41015625 C-172.48406373 26.95706614 -164.56707402 25.10591232 -158.4375 20.5625 C-154.12469038 17.4966549 -149.24524877 17.26667674 -144.12158203 16.81982422 C-139.89357582 16.45006679 -136.30735871 15.58315785 -132.3125 14.1875 C-127.54918096 13.60177542 -123.69953359 14.2904044 -119.3125 16.1875 C-116.89986705 16.93835106 -116.89986705 16.93835106 -114.3125 16.1875 C-113.19096349 15.0575097 -112.11209072 13.88461384 -111.0625 12.6875 C-107.95090191 9.33238554 -107.95090191 9.33238554 -105.109375 8.6875 C-101.50119552 8.6875 -98.33263779 9.18282516 -94.8125 10 C-90.91490879 10.20879953 -90.0304619 9.66067596 -86.8125 7.6875 C-83.59906842 5.7288889 -82.52268515 5.19106246 -78.625 5.125 C-75.3125 6.1875 -75.3125 6.1875 -72.1875 8.3125 C-69.54187384 10.44676902 -69.54187384 10.44676902 -66.87109375 10.03125 C-63.88950647 9.048009 -62.64177598 7.82601903 -60.5 5.5625 C-56.81374689 2.17941537 -56.81374689 2.17941537 -52.4375 2.25 C-51.7775 2.40210938 -51.1175 2.55421875 -50.4375 2.7109375 C-44.66111307 4.00637722 -38.87105768 3.41217231 -33.1875 2 C-28.7010815 0.97493411 -26.30119218 1.63781605 -22.1875 3.50390625 C-19.0125112 4.66145425 -16.50458196 4.03069146 -13.3125 3.1875 C-12.2296875 2.42373047 -12.2296875 2.42373047 -11.125 1.64453125 C-7.40683313 -0.28168575 -4.07602113 -0.14205972 0 0 Z M343.3125 285.8125 C341.85547143 287.99933514 341.85547143 287.99933514 340.6875 290.1875 C339.6046875 291.610625 339.6046875 291.610625 338.5 293.0625 C337.38353396 297.35660014 338.78278302 299.7391395 340.70703125 303.625 C342.19708731 307.51932979 342.37840871 310.40263568 340.85131836 314.34765625 C339.70474312 316.82497299 338.49490344 319.25814366 337.25 321.6875 C332.11638578 331.70387741 332.11638578 331.70387741 332.9375 342.6875 C333.9512307 347.74245444 333.9512307 347.74245444 331.6875 351.5625 C330.6975 352.42875 329.7075 353.295 328.6875 354.1875 C328.13449219 354.6721875 327.58148437 355.156875 327.01171875 355.65625 C325.60019932 356.86901133 324.1472671 358.03326555 322.6875 359.1875 C323.20292911 363.11011635 324.01215061 364.87028402 326.875 367.5625 C332.73886549 373.92105373 336.34450042 383.31873073 337.375 391.875 C338.1870815 396.39328322 341.01022512 399.37350325 344 402.6875 C344.4746167 403.21690186 344.9492334 403.74630371 345.43823242 404.29174805 C347.49858864 406.44529153 349.38005886 408.05014323 352.109375 409.26953125 C355.91126077 409.14856216 358.5421986 407.41700542 361.625 405.375 C362.25180664 404.96701172 362.87861328 404.55902344 363.52441406 404.13867188 C368.16855911 400.93866842 370.66828277 397.71812389 373.20703125 392.65625 C375.50859341 388.81828883 378.84087414 386.35153451 382.2265625 383.484375 C385.46272723 380.46395459 387.74017622 377.08611212 390.171875 373.41015625 C392.85427365 369.47643246 395.78467391 366.71857417 399.875 364.3125 C403.61824947 361.21563639 403.81618231 357.02130475 404.35449219 352.40844727 C404.84557043 346.78071773 404.4513978 341.314026 403.9375 335.70263672 C403.50755606 330.2866867 404.40194662 327.03287316 406.6875 322.1875 C407.26048266 319.71428923 407.26048266 319.71428923 406.6875 317.1875 C404.35225552 315.10928182 404.35225552 315.10928182 401.375 313.25 C395.26427459 308.59495058 394.48236174 304.89023861 393.4140625 297.5078125 C392.0585612 291.31331733 387.97514286 288.1139361 383.3125 284.1875 C380.12308726 282.97248562 377.54547665 282.99524673 374.1640625 283.1796875 C370.94174268 283.18985255 367.87607594 282.65014306 364.6875 282.1875 C353.00266918 280.60321073 353.00266918 280.60321073 343.3125 285.8125 Z " fill="#a0522d" transform="translate(742.3125,186.8125)"/>
<path d="M0 0 C4.55729379 1.07494776 8.57454355 0.75487099 13.19140625 0.25390625 C20.17747012 -0.34072924 25.30704634 0.32714125 31.90625 2.94140625 C36.80401393 4.79837836 40.60891848 4.28193322 45.31640625 2.37890625 C45.90292969 2.10046875 46.48945313 1.82203125 47.09375 1.53515625 C53.33549812 -0.25734577 59.7154748 1.08406198 65.87890625 2.56640625 C66.63300781 2.74429688 67.38710938 2.9221875 68.1640625 3.10546875 C71.98593793 4.06924603 75.16206829 5.01745475 78.37890625 7.37890625 C86.60483993 13.28329865 98.13188792 14.15517458 107.94140625 13.75390625 C126.92169068 13.11344161 154.12586939 20.22596505 169.37890625 31.87890625 C170.72185106 33.53783807 172.05635313 35.2036723 173.37890625 36.87890625 C177.02450266 39.39815094 180.43501883 38.97958895 184.75390625 38.94140625 C194.10792527 39.13916335 200.15975731 43.29534574 207.37890625 48.87890625 C207.04890625 50.19890625 206.71890625 51.51890625 206.37890625 52.87890625 C214.79241872 57.97185733 222.24175892 62.21247001 231.96484375 64.23046875 C236.35572201 65.4098956 238.28449254 68.25310092 240.73046875 71.88671875 C246.76088541 80.41248024 255.23207628 85.1656493 264.29296875 89.9765625 C264.92517334 90.3180835 265.55737793 90.65960449 266.20874023 91.01147461 C267.96608004 91.9503084 269.74045728 92.85704664 271.515625 93.76171875 C275.54516456 96.74126915 276.91440714 100.18768458 277.7578125 105.07421875 C277.81839844 105.71101562 277.87898437 106.3478125 277.94140625 107.00390625 C279.7727952 116.08324978 288.66071095 124.29653562 294.7109375 131 C305.47873894 143.12953746 312.11963003 157.48369299 311.75 173.96484375 C311.15532674 178.63459379 309.45742371 182.68475496 307.37890625 186.87890625 C308.36890625 186.87890625 309.35890625 186.87890625 310.37890625 186.87890625 C311.65810925 193.75462237 313.11978933 202.70542614 310.38719177 209.25637817 C309.33557598 211.99160732 309.09092464 214.01014905 309.01586914 216.92529297 C308.98566177 217.90335907 308.95545441 218.88142517 308.92433167 219.88912964 C308.90031784 220.9350528 308.87630402 221.98097595 308.8515625 223.05859375 C308.78082153 225.28906957 308.70985087 227.51953812 308.63867188 229.75 C308.53774241 233.2542905 308.44128296 236.75863222 308.34985352 240.26318359 C308.25804154 243.65378778 308.14937179 247.04354823 308.0390625 250.43359375 C308.01707291 251.47546844 307.99508331 252.51734314 307.97242737 253.59078979 C307.72177322 260.9870735 306.61107035 266.58758995 301.69140625 272.37890625 C299.05823279 275.89771163 298.87960356 278.4683992 299.37890625 282.87890625 C299.62954834 283.83518921 299.62954834 283.83518921 299.88525391 284.81079102 C301.97423403 293.56239866 299.32344745 302.01551666 297.00390625 310.44140625 C294.86366235 318.48558996 292.94557603 326.25676145 292.31640625 334.56640625 C291.78880031 340.42225245 290.80465498 344.18893983 287.01171875 348.7265625 C281.83021132 355.55673138 279.43587666 363.97587481 276.75390625 372.00390625 C276.35945312 373.13828125 275.965 374.27265625 275.55859375 375.44140625 C273.15823382 382.59383009 271.6635267 389.46222285 270.82128906 396.96240234 C270.22759286 400.87647237 269.10384279 403.01055199 266.37890625 405.87890625 C265.01433379 406.87255326 263.63842914 407.8507517 262.25390625 408.81640625 C259.27906148 410.94681457 258.4528299 411.70856045 256.94140625 415.19140625 C256.35070705 418.59708047 256.35070705 418.59708047 256.30078125 420.9375 C255.8374555 430.22056232 249.97825878 436.74489399 244.60546875 443.9375 C243.007239 446.46718212 241.90435769 449.14468331 240.69140625 451.87890625 C238.0042383 457.46263187 235.02058352 460.22407125 229.74609375 463.37890625 C223.10272249 467.58856725 222.29098439 472.1486655 220.6015625 479.56640625 C219.16599642 483.45573543 217.84651688 484.68511177 214.37890625 486.87890625 C212.75082955 487.62715069 211.10431376 488.33664162 209.44140625 489.00390625 C203.42438448 491.88743449 201.38469287 496.1540388 198.37890625 501.87890625 C194.64188726 507.37452241 190.04442452 510.1883267 184.46875 513.75 C181.58651011 515.73586693 179.24384447 517.8071212 176.75390625 520.25390625 C172.43172262 524.3055198 167.87970399 526.99271712 162.69140625 529.75390625 C151.86532055 535.51856266 140.98056265 542.16964787 132.87109375 551.5390625 C129.63565998 554.44417712 125.55904166 555.1473297 121.37890625 555.81640625 C111.56128745 557.52725135 102.3495619 559.70640875 93.0925293 563.44189453 C89.21180757 564.94356622 85.30654209 566.28862705 81.35546875 567.58984375 C80.58367783 567.84553635 79.8118869 568.10122894 79.01670837 568.3646698 C69.00317414 571.67551479 58.97195319 574.93256534 48.94140625 578.19140625 C46.02598871 579.13927243 43.110631 580.08732236 40.19529724 581.03544617 C38.40130226 581.6188183 36.60724781 582.20200763 34.81312561 582.7849884 C34.01055832 583.04583725 33.20799103 583.3066861 32.38110352 583.57543945 C31.67816666 583.80383011 30.9752298 584.03222076 30.25099182 584.26753235 C28.62495705 584.79855253 27.00167375 585.33798375 25.37890625 585.87890625 C20.29778506 586.32461864 17.28358721 585.97520551 12.69140625 583.75390625 C7.42897066 581.49518013 3.92731669 582.11015245 -1.58203125 583.234375 C-7.77204799 584.377023 -14.12290411 584.30177402 -20.39916992 584.44799805 C-26.13643484 584.62244687 -31.092786 585.35364795 -36.62109375 586.87890625 C-42.23979679 587.56346342 -46.42283145 586.72052324 -51.5859375 584.5546875 C-56.47735059 582.93047547 -61.27213816 583.46940187 -66.12109375 584.94140625 C-73.16105819 586.82711101 -78.44029236 585.17528112 -84.67578125 581.80078125 C-88.75215112 579.86900758 -92.96952118 579.82657487 -97.38720703 579.96655273 C-105.98033764 580.23109138 -113.52307828 578.87465992 -121.80859375 576.69140625 C-123.00162109 576.39943359 -124.19464844 576.10746094 -125.42382812 575.80664062 C-132.70019223 573.94654755 -139.05177299 571.49288275 -145.62109375 567.87890625 C-146.8237319 567.26989886 -148.02918637 566.66639815 -149.23828125 566.0703125 C-150.91923838 565.22983393 -152.60014477 564.3892526 -154.28027344 563.54711914 C-157.12506322 562.12204914 -159.97374904 560.7064398 -162.83203125 559.30859375 C-167.57717843 556.97871428 -172.08508896 554.60812929 -176.49609375 551.69140625 C-180.42367999 549.23979191 -183.68249244 548.39349876 -188.24609375 547.69140625 C-196.94429846 546.11077493 -202.8582673 541.38827735 -209.78173828 536.2109375 C-212.34233683 534.35659377 -215.03282695 532.74876702 -217.74609375 531.12890625 C-222.97278057 527.8475782 -226.32035879 524.02691785 -229.92578125 519.09375 C-233.6591318 514.29523446 -237.76514246 512.03634656 -243.1328125 509.26171875 C-247.04170663 507.08942908 -248.97033403 504.83452264 -250.3828125 500.58984375 C-252.60028885 493.94744852 -255.12760854 491.23641892 -261.03515625 487.51171875 C-270.80412538 481.34339685 -278.27993286 472.74564199 -282.49609375 462.00390625 C-285.06145123 455.53474391 -288.49808678 451.22855282 -293.11328125 446.08984375 C-296.4495668 442.11108927 -298.49300939 437.45859389 -300.40576172 432.66064453 C-302.35022405 428.21244686 -304.57102504 425.98628391 -308.5078125 423.12109375 C-314.32893009 418.72562136 -316.69883719 413.89710317 -319.43359375 407.25390625 C-319.89443359 406.19155762 -320.35527344 405.12920898 -320.83007812 404.03466797 C-324.77994516 394.82158906 -328.35127496 385.55583147 -330.99609375 375.87890625 C-332.1881161 371.64826047 -334.07541244 368.10514056 -336.18359375 364.25390625 C-339.19361833 358.61729971 -340.31550457 353.71574396 -340.84619141 347.28295898 C-341.39328736 341.39708303 -342.83156984 335.9617875 -344.55859375 330.31640625 C-344.93866577 329.06706299 -344.93866577 329.06706299 -345.32641602 327.79248047 C-346.4761726 324.13292095 -347.70143312 320.60313324 -349.296875 317.11328125 C-350.57592686 313.98922537 -350.97699796 312.02209367 -350.87109375 308.69140625 C-350.855625 307.87285156 -350.84015625 307.05429687 -350.82421875 306.2109375 C-350.63077006 303.98999775 -350.19435167 302.02752943 -349.62109375 299.87890625 C-348.9052506 294.15216103 -349.70221702 291.50086079 -352.68359375 286.56640625 C-355.81003232 280.84183932 -355.81235048 276.78029012 -355.18359375 270.50390625 C-354.58709453 264.43635395 -354.41770586 260.1599905 -356.93359375 254.44140625 C-362.19838339 242.12764825 -361.73339362 226.98416488 -361.60546875 213.75 C-361.61950998 210.27128493 -362.19652068 207.60832773 -363.0859375 204.28125 C-365.40588198 193.8669007 -365.09346244 186.61004719 -360.74951172 177.09472656 C-358.36598846 171.75687779 -358.40732996 168.4334185 -359.62109375 162.87890625 C-360.74250605 154.58567112 -360.74250605 154.58567112 -358.19921875 150.71484375 C-356.97286882 149.35747353 -355.71672455 148.02648271 -354.43359375 146.72265625 C-349.98179838 142.19410579 -348.57871232 138.01876752 -347.43359375 131.94140625 C-345.09967429 121.1904794 -340.20637252 110.59342249 -330.74609375 104.50390625 C-329.73675781 103.92382812 -328.72742188 103.34375 -327.6875 102.74609375 C-323.31316677 100.08248702 -319.79928757 96.68570221 -316.09375 93.17578125 C-313.62109375 90.87890625 -313.62109375 90.87890625 -310.9765625 88.8359375 C-308.68586453 86.93272078 -307.45262364 85.30499005 -305.87109375 82.81640625 C-301.39810088 76.87510485 -295.34875288 73.57296892 -289.12890625 69.7109375 C-279.96622336 64.01920646 -270.50763684 58.0197829 -263.91796875 49.33984375 C-262.62109375 47.87890625 -262.62109375 47.87890625 -259.62109375 46.87890625 C-258.63109375 47.86890625 -257.64109375 48.85890625 -256.62109375 49.87890625 C-248.53863345 46.48948741 -240.67934818 43.12157428 -233.21875 38.48828125 C-224.09815428 32.83762646 -216.27811845 28.56165212 -205.60302734 27.02612305 C-200.64930451 26.25056445 -196.59418324 24.74662361 -192.12109375 22.50390625 C-180.20364266 16.57233282 -167.8714697 13.5381393 -154.87329102 10.9753418 C-148.51537269 9.7180379 -142.2130903 8.32072925 -135.91796875 6.78515625 C-97.50910228 -2.49045784 -97.50910228 -2.49045784 -80.62109375 1.87890625 C-78.8947515 1.99580817 -77.16384453 2.05392248 -75.43359375 2.06640625 C-74.55316406 2.08058594 -73.67273438 2.09476563 -72.765625 2.109375 C-70.11954553 1.91543874 -67.95030659 1.50307812 -65.3984375 0.86328125 C-60.32849671 -0.32893007 -55.54939135 -0.22718727 -50.37109375 -0.05859375 C-44.33439465 0.05982427 -39.01595477 0.01825324 -33.18359375 -1.74609375 C-22.82069339 -4.63901351 -10.3172548 -2.60247033 0 0 Z M-67.64453125 43.984375 C-71.23903602 45.06461331 -74.18777577 44.96562678 -77.93359375 44.81640625 C-84.56642243 44.65633799 -90.56484345 45.47239435 -97.04321289 46.81665039 C-103.26608066 48.01757956 -109.27271739 48.05371036 -115.5871582 47.59179688 C-121.78405478 47.32293318 -126.33401584 49.22340409 -132.01611328 51.56494141 C-137.88197451 53.70296559 -143.90139734 54.72193412 -150.04174805 55.76464844 C-152.18751531 56.12957318 -154.32900425 56.51432118 -156.47070312 56.90234375 C-163.69674953 58.18678483 -170.85491503 59.2055734 -178.19555664 59.5859375 C-184.49774498 60.34714797 -188.98201702 64.88714255 -193.62109375 68.87890625 C-197.1950954 70.66590707 -201.6216045 70.50428075 -205.59179688 70.77734375 C-210.86138116 71.30381471 -213.12368902 72.68453217 -216.62109375 76.87890625 C-222.68816987 83.18866542 -230.63809645 86.95110812 -239.31640625 88.296875 C-242.21397961 89.02863505 -242.99683937 90.08612905 -244.87109375 92.37890625 C-248.75539785 96.52069263 -252.84958997 98.72884802 -257.87109375 101.19140625 C-264.95065412 104.70393078 -270.31397584 108.72354484 -275.921875 114.24609375 C-279.89852237 118.12490754 -284.24785852 121.46428418 -288.62109375 124.87890625 C-291.11680967 126.89049081 -293.6097286 128.9054847 -296.1015625 130.921875 C-298.62109375 132.87890625 -298.62109375 132.87890625 -300.32519531 133.94116211 C-305.39313099 137.17750186 -307.56803958 140.63523245 -309.99609375 146.06640625 C-310.33769531 146.79021484 -310.67929687 147.51402344 -311.03125 148.25976562 C-311.90958774 150.12579937 -312.76687521 152.00170892 -313.62109375 153.87890625 C-314.11609375 154.86890625 -314.11609375 154.86890625 -314.62109375 155.87890625 C-314.72766053 158.25297722 -314.80600964 160.62833611 -314.87109375 163.00390625 C-315.15338252 169.9168271 -316.53598761 175.9208667 -318.98144531 182.38525391 C-321.82572467 190.2326002 -319.2103123 196.81699204 -316.55859375 204.31640625 C-316.25131348 205.19022949 -315.9440332 206.06405273 -315.62744141 206.96435547 C-312.61069045 215.30175115 -308.76777351 223.05795328 -304.62109375 230.87890625 C-303.6985745 232.70930159 -302.78105519 234.5422356 -301.87109375 236.37890625 C-301.48308594 237.14460937 -301.09507812 237.9103125 -300.6953125 238.69921875 C-299.97682399 240.15709725 -299.29180801 241.6319342 -298.640625 243.12109375 C-296.45653734 247.9884891 -294.51143721 250.3431726 -289.62109375 252.87890625 C-288.86441406 253.08773437 -288.10773438 253.2965625 -287.328125 253.51171875 C-280.10259423 255.64016967 -277.52229142 259.55613042 -273.87353516 265.79980469 C-270.76738601 270.99360366 -268.30061172 273.1280774 -262.62109375 274.87890625 C-261.05489689 275.49458364 -259.49260138 276.12024509 -257.93359375 276.75390625 C-257.10472656 277.07617188 -256.27585937 277.3984375 -255.421875 277.73046875 C-250.9731573 279.55462914 -246.64842774 281.63946883 -242.30859375 283.70703125 C-239.80419255 285.01213967 -239.80419255 285.01213967 -237.62109375 284.87890625 C-237.95109375 286.52890625 -238.28109375 288.17890625 -238.62109375 289.87890625 C-230.65956336 294.86393744 -223.43963363 298.50846836 -214.25390625 300.8203125 C-210.17731218 302.00822325 -206.47131511 303.61112191 -202.62109375 305.37890625 C-191.25799871 310.50394684 -181.48006246 313.13387636 -168.91015625 312.76953125 C-164.24715948 312.92459528 -162.29189803 314.06722637 -158.62109375 316.87890625 C-145.90598839 326.01788823 -131.0436309 326.57495754 -115.92602539 327.07080078 C-108.23603718 327.38177324 -101.78220156 328.53935192 -94.49804688 331.00805664 C-90.52028627 332.21211911 -87.40026408 332.2418771 -83.24609375 332.06640625 C-81.69544365 332.0235974 -80.1446404 331.98609906 -78.59375 331.953125 C-77.38356201 331.92484619 -77.38356201 331.92484619 -76.14892578 331.89599609 C-71.65275363 331.86559895 -67.17213874 332.14098252 -62.68359375 332.37890625 C-53.86901669 332.81168458 -45.07125812 332.98946146 -36.24609375 333.00390625 C-34.56205444 333.01067383 -34.56205444 333.01067383 -32.84399414 333.01757812 C-27.3253522 333.00761743 -21.94713886 332.80001183 -16.47167969 332.10595703 C-7.15668868 330.96308874 4.38524047 331.10515766 13.31640625 333.94140625 C18.86334121 335.63944756 23.27562652 334.96605709 28.75390625 333.44140625 C33.82808401 332.06675385 38.47983001 331.65077741 43.69140625 331.50390625 C50.84478392 331.25452681 56.73926038 329.69785415 63.4921875 327.21484375 C76.56003854 322.51621482 91.27076977 320.22745362 105.06640625 319.50390625 C112.22770363 319.0195673 117.95599405 316.81359575 124.1640625 313.3046875 C128.51772331 311.37384158 132.77602347 311.12488013 137.45703125 310.79492188 C142.50375499 310.31817984 145.47882062 309.09541709 149.37890625 305.87890625 C150.33013964 304.72051835 151.26561183 303.549063 152.1875 302.3671875 C155.61437648 298.19683798 159.40852809 296.73815238 164.44140625 295.06640625 C165.27687988 294.77145264 166.11235352 294.47649902 166.97314453 294.17260742 C172.87208173 292.16796571 178.49153661 290.9453374 184.71484375 290.4609375 C189.59002192 289.39583259 192.43302084 286.00985011 195.37890625 282.19140625 C198.87157594 278.09131575 202.87424825 275.28112849 207.33569336 272.30151367 C215.9226852 266.55439158 223.54564464 259.77883373 231.10302734 252.76538086 C235.71601851 248.51030717 240.46801832 244.73042185 245.76171875 241.36328125 C246.56351563 240.8528125 247.3653125 240.34234375 248.19140625 239.81640625 C248.91972656 239.37167969 249.64804687 238.92695312 250.3984375 238.46875 C253.80929431 235.73064601 255.18493084 233.04713408 255.8984375 228.75 C255.99511719 227.61691406 256.09179688 226.48382812 256.19140625 225.31640625 C256.98243552 218.95493556 258.79695423 214.28757782 261.859375 208.69921875 C263.71846349 205.24867405 265.10913785 201.71048001 266.49609375 198.05078125 C267.37890625 195.87890625 267.37890625 195.87890625 269.19140625 192.75390625 C270.80144471 188.85591839 270.53357961 185.83091328 269.37890625 181.87890625 C268.57167487 180.15808531 267.7359156 178.45048581 266.87890625 176.75390625 C264.68969995 172.26946371 264.02417746 168.67258787 263.81640625 163.69140625 C263.54891644 157.68919597 262.84948911 153.78194574 259.37890625 148.87890625 C258.75886719 147.99460937 258.13882813 147.1103125 257.5 146.19921875 C252.93111305 140.16730718 248.37288975 136.0963529 241.76171875 132.4140625 C237.39256026 129.59917842 236.13292766 126.50423445 234.75390625 121.62890625 C232.48438001 115.14824388 228.80612028 111.88533742 223.37890625 107.87890625 C222.69957031 107.33492187 222.02023437 106.7909375 221.3203125 106.23046875 C216.34745389 102.52667614 211.22692608 100.67843262 205.33203125 98.84301758 C200.49025482 97.31483189 195.86980413 95.49342927 191.25390625 93.37890625 C190.05507813 92.83234375 188.85625 92.28578125 187.62109375 91.72265625 C183.10923987 89.1568791 179.96849361 85.80717798 176.87890625 81.69140625 C173.00227835 77.33019986 168.79248764 76.6452115 163.1875 75.6171875 C161.99447266 75.38451172 160.80144531 75.15183594 159.57226562 74.91210938 C157.09830841 74.43738748 154.62173003 73.97609778 152.14257812 73.52929688 C144.47587801 72.00417851 138.88899456 69.65008613 132.29760742 65.49487305 C127.54134028 62.86152029 122.63254425 62.01780036 117.31640625 61.12890625 C95.49494012 57.15624424 95.49494012 57.15624424 88.21484375 51.18359375 C85.32733428 49.13161893 82.86667918 48.87890625 79.37890625 48.87890625 C78.45078125 49.18828125 77.52265625 49.49765625 76.56640625 49.81640625 C70.05261405 51.98767032 64.29689131 51.38609336 57.92578125 48.99609375 C51.11224021 46.65403673 44.38721442 45.5296884 37.25390625 44.62890625 C36.60170105 44.54319366 35.94949585 44.45748108 35.27752686 44.36917114 C22.73815495 42.75070635 10.31359986 42.56620275 -2.31298828 42.93847656 C-8.92237794 43.10459934 -14.73116229 43.15069133 -20.90869141 40.53735352 C-22.78200998 39.69945684 -22.78200998 39.69945684 -25.62109375 39.87890625 C-25.62109375 40.86890625 -25.62109375 41.85890625 -25.62109375 42.87890625 C-26.72904297 42.5540625 -26.72904297 42.5540625 -27.859375 42.22265625 C-41.15343416 38.57396911 -54.62904248 39.22548182 -67.64453125 43.984375 Z " fill="#a0522d" transform="translate(428.62109375,619.12109375)"/>
<path d="M0 0 C2.96381736 0.02370467 5.92673588 0.02052092 8.890625 0.01391602 C22.40624031 0.03248423 35.51398336 0.49825588 48.3984375 5.02368164 C49.53140259 5.41342163 49.53140259 5.41342163 50.68725586 5.81103516 C61.30025232 9.59601123 70.82253677 14.909253 79.3359375 22.33618164 C80.36654297 23.19083008 80.36654297 23.19083008 81.41796875 24.06274414 C88.35738291 30.29892895 93.31194122 38.55322828 94.9453125 47.77758789 C95.34793228 57.25033665 92.1607805 64.05875934 86.3359375 71.33618164 C66.71407414 92.40521063 36.60580832 102.85772564 8.3359375 104.33618164 C-19.22933698 105.17756357 -44.50540755 100.40089293 -66.6640625 83.33618164 C-68.2728125 82.19149414 -68.2728125 82.19149414 -69.9140625 81.02368164 C-78.06885848 73.05422194 -81.75290538 63.10069747 -82.1015625 51.89868164 C-81.78395342 40.10009264 -77.80148775 32.9185964 -69.26855469 24.7878418 C-48.43177028 5.935815 -27.71421198 -0.23661835 0 0 Z " fill="#a0522d" transform="translate(407.6640625,755.663818359375)"/>
<path d="M0 0 C-0.94242498 4.83919342 -3.3822831 7.74040053 -7 11 C-15.83515823 16.63444147 -24.69505634 18.35153388 -35 18.3125 C-36.27617187 18.33666992 -36.27617187 18.33666992 -37.578125 18.36132812 C-43.39188926 18.36578653 -47.68851484 17.38413254 -53 15 C-54 14 -54 14 -54.4375 10.75 C-54 7 -54 7 -51.5625 4.3125 C-36.30535133 -6.54973231 -17.09711264 -5.69903755 0 0 Z " fill="#a0522d" transform="translate(292,838)"/>
<path d="M0 0 C2.48699622 2.09753373 2.93555337 2.62137607 3.5 5.9375 C3 9 3 9 0.75 11.3125 C-7.42685564 16.33011596 -20.27653365 14.76572452 -29.4453125 13.5390625 C-39.17118994 11.18379303 -45.9401942 5.7689818 -52 -2 C-51 -4 -51 -4 -48.7421875 -4.81640625 C-31.59518694 -9.27836416 -15.55976228 -9.68425432 0 0 Z " fill="#a0522d" transform="translate(583,842)"/>
<path d="M0 0 C0.92039062 -0.020625 1.84078125 -0.04125 2.7890625 -0.0625 C8.5347417 -0.09533245 12.55377752 0.49360995 17.625 3.25 C19.625 5.25 19.625 5.25 19.8125 8.5 C18.33345522 13.17066774 16.73999526 14.43637083 12.62109375 16.89453125 C-2.12151363 23.56426366 -16.00500881 22.9119214 -31.375 19.25 C-33.85546875 18.1484375 -33.85546875 18.1484375 -35.375 17.25 C-31.72652683 9.72502408 -25.06977558 5.13811405 -17.55078125 1.9765625 C-11.74293129 0.03713684 -6.05917138 0.03366206 0 0 Z " fill="#a0522d" transform="translate(566.375,757.75)"/>
<path d="M0 0 C1.33514648 0.00193359 1.33514648 0.00193359 2.69726562 0.00390625 C13.85240304 0.15057716 23.16777742 2.47986512 31.5625 10.21875 C34.5500108 13.48288217 34.5500108 13.48288217 35.5625 15.375 C35.2325 16.365 34.9025 17.355 34.5625 18.375 C21.15873808 24.68582553 5.07395157 23.16841963 -8.4375 18.375 C-12.26279167 16.52298559 -15.4145072 14.3979928 -18.4375 11.375 C-18.5625 7.75 -18.5625 7.75 -18.4375 4.375 C-12.04831151 0.60262033 -7.35562162 -0.20152388 0 0 Z " fill="#a0522d" transform="translate(256.4375,757.625)"/>
<path d="M0 0 C0.92417725 0.00161133 1.84835449 0.00322266 2.80053711 0.00488281 C10.98514915 0.15061563 19.72448133 0.80133308 26.1796875 6.359375 C27.875 8.375 27.875 8.375 28.4375 10.875 C27.875 13.375 27.875 13.375 26.0625 15.5 C14.94727972 22.03836487 -0.17205459 22.15153737 -12.609375 19.68359375 C-18.71651926 17.62200127 -23.96782547 14.19512928 -29.125 10.375 C-28.125 7.375 -28.125 7.375 -25.8671875 6.05859375 C-24.92101562 5.64738281 -23.97484375 5.23617187 -23 4.8125 C-22.06929687 4.39871094 -21.13859375 3.98492188 -20.1796875 3.55859375 C-13.2990759 0.89257672 -7.3151644 -0.01322456 0 0 Z " fill="#a0522d" transform="translate(556.125,796.625)"/>
<path d="M0 0 C3.72543874 3.11844261 5.62142386 5.95799711 6.48046875 10.73046875 C5.91796875 13.60546875 5.91796875 13.60546875 4.04296875 15.91796875 C-4.62873574 20.60068917 -14.04511281 18.28652474 -23.08203125 15.60546875 C-29.56541268 13.16881942 -34.31538929 10.49084681 -38.08203125 4.60546875 C-39.59541042 0.49772528 -40.34702916 -3.02206582 -40.08203125 -7.39453125 C-26.23397477 -9.76540473 -11.60399508 -8.31790798 0 0 Z " fill="#a0522d" transform="translate(536.08203125,865.39453125)"/>
<path d="M0 0 C-1.48823354 4.16705391 -3.79207374 5.25793246 -7.6875 7.125 C-8.70199219 7.62257813 -9.71648437 8.12015625 -10.76171875 8.6328125 C-17.75836548 11.58676468 -23.8133442 12.33941729 -31.3125 12.3125 C-32.19873047 12.32861328 -33.08496094 12.34472656 -33.99804688 12.36132812 C-41.64598898 12.36690649 -48.45184484 10.94800675 -55.1875 7.25 C-57 5 -57 5 -57.3125 1.5 C-55.9276133 -2.19303119 -55.69520982 -2.59351083 -52.4375 -4.3125 C-35.58028776 -11.80836299 -15.37510173 -9.63770164 0 0 Z " fill="#a0522d" transform="translate(297,805)"/>
<path d="M0 0 C4.44279137 0.31177483 7.49968266 1.42873705 11.5625 3.25 C13.02137389 6.16774779 12.93073233 7.99728105 12.5625 11.25 C9.46769115 17.81562252 3.96256938 21.49715885 -2.61987305 24.11938477 C-9.36570896 26.31897553 -15.50511898 26.6125877 -22.5625 26.4375 C-23.614375 26.42396484 -24.66625 26.41042969 -25.75 26.39648438 C-28.31305954 26.36153356 -30.87498913 26.31247682 -33.4375 26.25 C-33.3161287 24.65294964 -33.18379634 23.0567299 -33.046875 21.4609375 C-32.97436523 20.57196777 -32.90185547 19.68299805 -32.82714844 18.76708984 C-32.10459094 14.09944087 -29.62938838 11.31107137 -26.1953125 8.25390625 C-18.53667058 2.68891573 -9.26276652 0.67365575 0 0 Z " fill="#a0522d" transform="translate(529.4375,729.75)"/>
<path d="M0 0 C3.23628107 2.69802226 5.15207497 5.0277077 6.4375 9.125 C6.50453544 10.69010984 6.52276301 12.25783935 6.5 13.82421875 C6.49097656 14.63076904 6.48195313 15.43731934 6.47265625 16.26831055 C6.46105469 16.88101807 6.44945312 17.49372559 6.4375 18.125 C2.97933314 18.21347317 -0.47853579 18.26587725 -3.9375 18.3125 C-4.90300781 18.33763672 -5.86851562 18.36277344 -6.86328125 18.38867188 C-19.00566247 18.51091061 -28.21232776 15.01052549 -37.125 6.75 C-39.24694759 2.87513919 -39.12915738 0.51659466 -38.5625 -3.875 C-30.12279429 -13.56503249 -8.69707193 -6.04668687 0 0 Z " fill="#a0522d" transform="translate(320.5625,737.875)"/>
<path d="M0 0 C2.58589164 4.13742663 2.7255296 7.24848369 1.875 12 C-0.6861431 18.56988881 -4.84214615 21.92503486 -11.125 25 C-17.76983338 27.40345037 -24.01464615 29.28052989 -31.125 29 C-34.71228897 23.95537489 -35.95624669 19.94286575 -35.69140625 13.71484375 C-34.67167828 8.8271821 -31.98357953 6.0170808 -28.125 3 C-19.54547462 -2.34221999 -9.20584224 -5.89173903 0 0 Z " fill="#a0522d" transform="translate(491.125,705)"/>
<path d="M0 0 C3.73897447 3.73897447 5.14111428 7.08974568 5.3125 12.3125 C5.22127103 17.01079194 4.236612 19.44762098 1 23 C-5.85817077 28.69884658 -13.74728839 32.49610611 -22.8125 32 C-26.0866291 31.46107256 -27.19149656 30.86036709 -30 28.8125 C-32.30515348 25.57087792 -33 23.97518306 -33 20 C-31.92256573 14.39958644 -29.49981671 10.78354221 -25.01953125 7.3125 C-18.09496211 2.81219975 -8.34798009 -1.32808774 0 0 Z " fill="#a0522d" transform="translate(363,880)"/>
<path d="M0 0 C0.59267721 5.68970125 0.37621437 10.32217875 -3.01953125 15.078125 C-11.48465293 23.29279929 -23.55962222 25.98780344 -35 26 C-38.54341222 25.37223012 -42.35673103 24.64326897 -45 22 C-45.56674856 17.30408337 -45.67470639 14.21742951 -42.75 10.375 C-31.54448062 -1.03948011 -14.99052564 -2.06573351 0 0 Z " fill="#a0522d" transform="translate(327,858)"/>
<path d="M0 0 C2.985556 2.6997049 5.67924248 5.79135539 6.2734375 9.8828125 C6.56254875 16.26549927 4.84111558 19.96539493 1 25 C-9.16190777 24.74767272 -20.2174858 21.91867049 -27.6953125 14.6640625 C-30.98883349 10.46334412 -32 6.53529081 -32 1.25 C-30.78355762 -2.70343774 -29.50434067 -3.88109634 -26 -6 C-16.73945741 -8.97180973 -7.78733849 -4.97332974 0 0 Z " fill="#a0522d" transform="translate(362,709)"/>
<path d="M0 0 C9.73575109 -0.90565126 20.4509188 2.84545351 28 9 C32.39450478 13.73254361 33.36941904 17.54170819 33.27734375 23.84375 C33 26 33 26 31.375 28.4375 C26.49596263 31.647393 22.27892953 32.49532646 16.56640625 31.6640625 C9.3150256 29.78775396 1.51448173 26.16836172 -3.0703125 20.05078125 C-4.99851918 15.79738415 -4.80793369 11.52310419 -4 7 C-2.91475107 4.31470457 -1.69389812 2.38204423 0 0 Z " fill="#a0522d" transform="translate(460,880)"/>
<path d="M0 0 C5.13198695 2.83508642 7.89820919 6.57145076 9.5859375 12.15234375 C10.27907401 15.05450068 10.41457995 17.268892 9.5859375 20.15234375 C6.13456437 25.62378527 1.1846847 29.99668624 -4.4140625 33.15234375 C-12.11019371 32.68496736 -17.39983371 27.73596843 -23.0390625 22.90234375 C-25.2778732 18.42472234 -25.11949237 14.04716328 -24.4140625 9.15234375 C-19.71481305 -0.78837625 -10.12173332 -3.55407141 0 0 Z " fill="#a0522d" transform="translate(419.4140625,700.84765625)"/>
<path d="M0 0 C6.36217713 2.76616397 11.82905717 6.90428578 14.875 13.25 C15.80594022 18.5788302 14.92016734 22.7313646 11.875 27.25 C7.27747172 31.89100372 3.75490858 34.37663763 -2.9375 34.5 C-7.40614704 34.44145877 -10.36845881 33.84380225 -14.125 31.25 C-18.71964351 26.15863827 -19.61669277 22.83628768 -19.51953125 16.0703125 C-18.86699491 11.40564682 -16.72867089 9.12011733 -13.125 6.25 C-8.9826779 3.17342096 -5.23188083 0.41855047 0 0 Z " fill="#a0522d" transform="translate(414.125,879.75)"/>
</svg>
