<!--?xml version="1.0" encoding="utf-8"?-->
<!-- Generator: Adobe Illustrator 18.0.0, SVG Export Plug-In . SVG Version: 6.00 Build 0)  -->

<svg version="1.1" id="_x32_" xmlns="http://www.w3.org/2000/svg" xmlns:xlink="http://www.w3.org/1999/xlink" x="0px" y="0px" viewBox="0 0 512 512" style="width: 256px; height: 256px; opacity: 1;" xml:space="preserve">
<style type="text/css">
	.st0{fill:#4B4B4B;}
</style>
<g>
	<path class="st0" d="M421.619,60.919c-9.018-7.757-18.684-14.897-28.736-21.217C365.939,22.56,336.336,10.782,304.903,4.7
		C289.198,1.581,272.747,0,256,0l-2.717,0.102c-47.642,0.406-93.965,14.062-133.87,39.475l-2.424,0.058l-2.366,2.893
		C42.852,90.198,0,170.003,0,256c0,86.048,42.93,165.888,114.799,213.542l2.42,2.881l2.108-0.024
		c40.096,25.434,86.454,39.093,134.166,39.6H256c16.751,0,33.206-1.585,48.903-4.704c31.437-6.078,61.036-17.86,87.98-35.006
		c10.04-6.312,19.71-13.448,28.732-21.209C479.056,402.42,512,331.316,512,256S479.056,109.58,421.619,60.919z M275,468.996
		c-6.281,0.543-11.668,0.836-17.314,0.836c-0.484,0-3.943-0.028-3.943-0.028c-11.485-0.098-23.497-1.253-35.603-3.38l-14.542-18.395
		l50.02-64.206l-50.02-63.714l50.02-64.206l-50.02-63.714l50.02-64.206l-50.02-63.714l14.51-18.68
		c12.094-2.159,23.962-3.303,35.279-3.396h2.557l0.808-0.102c4.524,0.016,9.412,0.23,14.575,0.484
		c1.216,0.094,2.44,0.156,3.652,0.266l-16.599,21.432l50.02,63.71l-50.02,64.21l50.02,63.71l-50.02,64.21l50.02,63.71l-50.02,64.21
		l10.915,13.679L275,468.996z M117.345,255.898l-43.754-53.892l43.754-54.189l-19.734-24.328l-4.778-5.711
		c10.934-12.898,23.43-24.516,37.156-34.541l-8.506,10.697l43.754,53.884l-43.754,54.189l43.754,53.892l-43.754,54.298
		l19.628,24.219l24.126,29.665l-43.754,54.189l4.786,5.664l4.085,5.052c-13.837-10.08-26.442-21.752-37.455-34.537l24.446-30.368
		l-43.754-53.884L117.345,255.898z M395.18,418.43l-0.076,0.098l-0.933,0.64c-7.425,6.39-15.463,12.316-23.888,17.614
		c-1.074,0.687-2.178,1.296-3.287,1.905c-0.816,0.445-1.632,0.894-2.225,1.406l-17.903-21.924l43.758-54.189l-43.758-53.892
		l43.758-54.189l-43.758-53.892l43.758-54.189l-19.738-24.332l-24.02-29.45l17.782-22.037c0.773,0.457,1.562,0.886,2.346,1.323
		c1.171,0.644,2.346,1.288,3.482,2.014c8.288,5.212,16.341,11.165,23.93,17.7l0.105-0.121l0,0l0.246,1.12l43.754,53.783
		l-43.754,54.189l43.754,53.892l-43.754,54.189l19.632,24.223l24.122,29.669l-11.178,14.046l-32.45,40.041L395.18,418.43z" style="fill: #98fb98;"></path>
</g>
</svg>
