<!--?xml version="1.0" encoding="utf-8"?-->
<!-- Generator: Adobe Illustrator 18.1.1, SVG Export Plug-In . SVG Version: 6.00 Build 0)  -->

<svg version="1.1" id="_x32_" xmlns="http://www.w3.org/2000/svg" xmlns:xlink="http://www.w3.org/1999/xlink" x="0px" y="0px" viewBox="0 0 512 512" style="width: 256px; height: 256px; opacity: 1;" xml:space="preserve">
<style type="text/css">
	.st0{fill:#4B4B4B;}
</style>
<g>
	<path class="st0" d="M184.543,407.326c-27.229-13.892-60.571-3.073-74.462,24.156c-13.892,27.236-3.077,60.57,24.151,74.462
		c27.233,13.892,60.579,3.073,74.466-24.147C222.594,454.552,211.779,421.209,184.543,407.326z" style="fill: #98fb98;"></path>
	<path class="st0" d="M118.848,373.694c27.233,13.892,60.571,3.073,74.463-24.164c13.892-27.228,3.081-60.57-24.156-74.462
		c-27.232-13.892-60.57-3.073-74.458,24.156C80.806,326.46,91.616,359.794,118.848,373.694z" style="fill: #98fb98;"></path>
	<path class="st0" d="M296.538,340.046c-27.232-13.892-60.574-3.073-74.466,24.155c-13.887,27.238-3.073,60.579,24.159,74.462
		c27.229,13.892,60.567,3.074,74.463-24.155C334.581,387.279,323.771,353.938,296.538,340.046z" style="fill: #98fb98;"></path>
	<path class="st0" d="M103.47,241.428c27.228,13.892,60.562,3.082,74.454-24.156c13.896-27.236,3.082-60.57-24.156-74.454
		c-27.232-13.892-60.566-3.09-74.458,24.147C65.415,194.203,76.237,227.537,103.47,241.428z" style="fill: #98fb98;"></path>
	<path class="st0" d="M281.151,207.796c-27.232-13.899-60.57-3.089-74.458,24.147c-13.896,27.238-3.082,60.571,24.156,74.462
		c27.228,13.892,60.562,3.082,74.458-24.155C319.203,255.014,308.384,221.688,281.151,207.796z" style="fill: #98fb98;"></path>
	<path class="st0" d="M408.529,272.774c-27.232-13.892-60.566-3.082-74.462,24.156c-13.888,27.228-3.078,60.562,24.156,74.462
		c27.232,13.892,60.57,3.082,74.466-24.164C446.585,320,435.763,286.666,408.529,272.774z" style="fill: #98fb98;"></path>
	<path class="st0" d="M393.147,140.508c-27.233-13.883-60.571-3.073-74.463,24.164c-13.888,27.228-3.078,60.57,24.156,74.462
		c27.232,13.883,60.57,3.073,74.462-24.156C431.194,187.742,420.379,154.4,393.147,140.508z" style="fill: #98fb98;"></path>
	<path class="st0" d="M215.457,174.148c27.233,13.891,60.574,3.073,74.462-24.147c13.896-27.245,3.078-60.579-24.15-74.471
		c-27.233-13.892-60.576-3.073-74.463,24.155C177.414,126.923,188.229,160.257,215.457,174.148z" style="fill: #98fb98;"></path>
	<polygon class="st0" points="315.404,102.585 346.219,118.3 373.299,65.226 409.939,83.914 425.657,53.098 321.555,0 
		305.837,30.815 342.479,49.503 	" style="fill: #98fb98;"></polygon>
</g>
</svg>
