<?xml version="1.0" encoding="UTF-8"?>
<svg version="1.1" xmlns="http://www.w3.org/2000/svg" width="1300" height="1300">
<path d="M0 0 C0.66 0 1.32 0 2 0 C27.77034592 53.31240312 39.9024515 128.0241528 40.203125 187.01953125 C40.21013931 187.94787781 40.21715363 188.87622437 40.22438049 189.83270264 C40.24182846 192.82601822 40.24823686 195.81913536 40.25 198.8125 C40.25067474 199.83955048 40.25134949 200.86660095 40.25204468 201.92477417 C40.23446886 218.80166605 39.48232105 235.28192515 37 252 C36.83902832 253.12374023 36.67805664 254.24748047 36.51220703 255.40527344 C31.53215006 289.32324069 22.63649262 322.45777201 12 355 C11.77098999 355.70080688 11.54197998 356.40161377 11.30603027 357.12365723 C-3.23272902 401.46545803 -3.23272902 401.46545803 -13 421 C-18.61 421 -24.22 421 -30 421 C-30.20625 422.32 -30.4125 423.64 -30.625 425 C-32.01473599 433.89431036 -40.30627746 440.54767255 -46.4375 446.5 C-51.29866304 451.24449513 -56.01554167 456.01940905 -60.43408203 461.18261719 C-66.45055831 468.16525663 -72.09390115 473.45277199 -81.5 474.875 C-89.3039451 475.41043363 -96.01417784 473.0185315 -102 468 C-104.31456652 465.46764217 -106.43631975 462.84132889 -108.546875 460.13671875 C-111.29928859 456.61731092 -114.16511812 453.21249371 -117.0625 449.8125 C-118.01177192 448.69405554 -118.96099533 447.57556991 -119.91015625 446.45703125 C-120.59980469 445.64621094 -121.28945313 444.83539062 -122 444 C-126.73789165 445.44323469 -130.98858151 447.37226733 -135.375 449.625 C-136.33599609 450.11226562 -136.33599609 450.11226562 -137.31640625 450.609375 C-138.87947501 451.40257407 -140.44000622 452.20077031 -142 453 C-141.33613281 453.24234375 -140.67226563 453.4846875 -139.98828125 453.734375 C-138.66376953 454.23710938 -138.66376953 454.23710938 -137.3125 454.75 C-136.00732422 455.23726562 -136.00732422 455.23726562 -134.67578125 455.734375 C-129.62000662 458.1257195 -126.3059745 461.59986113 -122.875 465.9375 C-119.96399047 469.57144236 -117.02864032 473.16751199 -114.00048828 476.7043457 C-111.64855376 479.45411367 -109.32330297 482.22603603 -107 485 C-106.50081055 485.59280762 -106.00162109 486.18561523 -105.48730469 486.79638672 C-97.05474171 496.87715699 -92.25463257 504.25419278 -92.6640625 517.796875 C-93.72416147 527.90479546 -99.02188717 534.0011806 -106 541 C-106.72944824 541.73186523 -106.72944824 541.73186523 -107.47363281 542.47851562 C-109.53876814 544.54759456 -111.60717336 546.61316542 -113.6862793 548.66821289 C-117.09859033 552.05094216 -120.29775601 555.54835506 -123.42578125 559.19140625 C-129.45778841 566.12147899 -135.47525254 572.10698522 -145.0078125 573.23828125 C-152.81922894 573.51211319 -158.94021123 571.82608496 -164.76171875 566.44921875 C-167.6546455 563.42250045 -170.34234815 560.23322617 -173 557 C-173.76183594 556.08476563 -174.52367187 555.16953125 -175.30859375 554.2265625 C-176.77512193 552.44372432 -178.23082122 550.65192562 -179.67578125 548.8515625 C-181.35398112 546.79259459 -183.04900379 544.77486473 -184.79296875 542.7734375 C-194.29500522 531.84849911 -200.45110901 523.53302526 -200.265625 508.6015625 C-199.56336662 499.07976512 -195.08324542 493.14454919 -188.50634766 486.52978516 C-186.78202313 484.7786316 -185.10191698 482.98921463 -183.41796875 481.19921875 C-174.71285901 472.08340862 -165.67105348 464.69778888 -155 458 C-158.5461383 453.75367366 -162.18100013 449.76216175 -166.1875 445.9375 C-172.45654539 439.7935121 -177.75593101 433.02240825 -183 426 C-183.41604492 425.45005371 -183.83208984 424.90010742 -184.26074219 424.33349609 C-238.67469788 352.11957472 -260.32782226 254.97448936 -270 156 C-264.57665613 156.51290539 -260.87877928 158.43176492 -256.3125 161.1875 C-255.58208496 161.62312256 -254.85166992 162.05874512 -254.09912109 162.50756836 C-240.96525406 170.51775341 -228.72825918 180.06796069 -217 190 C-215.94571641 190.88069208 -214.89100621 191.76087364 -213.8359375 192.640625 C-207.67176326 197.79844045 -201.63993555 203.06651411 -195.73046875 208.515625 C-193.56186835 210.48877214 -191.37244123 212.42433923 -189.16015625 214.34765625 C-170.60933226 230.53912682 -151.1347355 247.72094716 -137 268 C-136.55930176 268.62874023 -136.11860352 269.25748047 -135.66455078 269.90527344 C-121.90879504 289.78173183 -112.14029592 311.30385113 -104 334 C-103.61513428 335.02569092 -103.23026855 336.05138184 -102.83374023 337.1081543 C-99.89886417 345.56369158 -99.29801054 353.56426047 -99.01568604 362.4223938 C-98.88171411 366.51784545 -98.68414928 370.610238 -98.48828125 374.703125 C-98.45047546 375.50923721 -98.41266968 376.31534943 -98.37371826 377.14588928 C-98.18036103 404.58273745 -98.18036103 404.58273745 -90 429 C-87.61887285 428.57910855 -85.29145668 428.10324274 -82.9375 427.5625 C-81.94266602 427.34110352 -81.94266602 427.34110352 -80.92773438 427.11523438 C-79.28399784 426.74864565 -77.64184353 426.37497588 -76 426 C-76.27263672 425.03126953 -76.27263672 425.03126953 -76.55078125 424.04296875 C-86.94865827 385.06426055 -86.18498578 341.84209163 -82 302 C-81.92694641 301.29885071 -81.85389282 300.59770142 -81.77862549 299.87530518 C-77.37337459 257.95053356 -69.39525349 216.83105964 -59 176 C-58.67612305 174.72219666 -58.67612305 174.72219666 -58.34570312 173.4185791 C-51.54418069 146.62235722 -43.6658522 120.24921415 -35 94 C-34.70760437 93.11056702 -34.41520874 92.22113403 -34.11395264 91.30474854 C-25.90884575 66.34948206 -17.0604365 41.71645424 -7.36328125 17.30078125 C-7.08159088 16.59021072 -6.79990051 15.8796402 -6.50967407 15.14753723 C-4.46527774 10.04093336 -2.26248243 5.01350049 0 0 Z " fill="#008000" transform="translate(696,139)"/>
<path d="M0 0 C8.24941097 73.04705944 -17.00149518 167.73653054 -62 225 C-62.76957031 225.98355469 -63.53914062 226.96710938 -64.33203125 227.98046875 C-75.81135674 242.31411302 -88.96813772 255.10124128 -102 268 C-100.0745356 270.2236068 -100.0745356 270.2236068 -97 271 C-98.54127351 274.71268094 -100.80843234 276.98115698 -103.6875 279.75 C-106.8093387 282.80017525 -109.8099378 285.85233393 -112.625 289.1875 C-118.80805907 296.3073862 -124.3660831 301.57980252 -134 303 C-142.06376273 303.5149755 -147.50432538 300.49333822 -154 296 C-154.99 295.34 -155.98 294.68 -157 294 C-157.28746094 293.42378906 -157.57492187 292.84757812 -157.87109375 292.25390625 C-159.45725438 289.08707343 -161.75418333 286.59204449 -164.0625 283.9375 C-165.05797737 282.77662932 -166.05275843 281.61516121 -167.046875 280.453125 C-167.54380859 279.87369141 -168.04074219 279.29425781 -168.55273438 278.69726562 C-188 255.89068826 -188 255.89068826 -188 249 C-185.03 249 -182.06 249 -179 249 C-178.60683594 247.77925781 -178.21367188 246.55851563 -177.80859375 245.30078125 C-176.16906681 240.38220044 -174.31284145 235.56180304 -172.43530273 230.72998047 C-162.08876901 204.03102897 -153.282869 176.88967807 -145.62512207 149.30332947 C-145.07765032 147.33794304 -144.52355907 145.37456846 -143.96655273 143.41186523 C-143.39140878 141.38164629 -142.82694415 139.34827652 -142.28540039 137.30883789 C-140.57879002 131.40289346 -137.58325999 127.40594662 -133.5625 122.8125 C-132.93923828 122.0798291 -132.31597656 121.3471582 -131.67382812 120.59228516 C-130.39912933 119.09681579 -129.11872135 117.60619308 -127.83251953 116.12060547 C-126.17223001 114.19930587 -124.53278419 112.26303396 -122.90234375 110.31640625 C-111.21425967 96.40820427 -98.57102323 83.40128911 -85.71142578 70.58105469 C-83.60200343 68.47706263 -81.49807561 66.36767965 -79.39453125 64.2578125 C-78.02636265 62.89030378 -76.65788439 61.5231048 -75.2890625 60.15625 C-74.67431061 59.53947388 -74.05955872 58.92269775 -73.42617798 58.28723145 C-69.65815514 54.53917493 -65.77001718 50.97965811 -61.74589539 47.50778198 C-59.52223863 45.58739796 -57.35593022 43.60734777 -55.1875 41.625 C-50.9455915 37.80085522 -46.59448903 34.15110545 -42.15234375 30.5625 C-39.81140119 28.66979087 -37.49750788 26.74749825 -35.19140625 24.8125 C-27.4921609 18.36956727 -19.67706003 12.12326146 -11.625 6.125 C-10.8103125 5.51180908 -9.995625 4.89861816 -9.15625 4.2668457 C-8.39570312 3.70698975 -7.63515625 3.14713379 -6.8515625 2.5703125 C-6.17947754 2.07289551 -5.50739258 1.57547852 -4.81494141 1.06298828 C-3 0 -3 0 0 0 Z " fill="#008000" transform="translate(879,311)"/>
<path d="M0 0 C18.10062217 7.22364279 31.8720551 39.7098454 41 56 C41.42071777 56.74137207 41.84143555 57.48274414 42.27490234 58.24658203 C55.37587305 81.39563669 67.6608709 105.34349263 78.25 129.75 C78.6620166 130.66378418 79.0740332 131.57756836 79.49853516 132.51904297 C84.29933457 144.03792171 79.8853642 154.83226369 76.73791504 166.29959106 C64.14497443 212.38360827 55.11866222 259.32781103 50.36962891 306.87011719 C50.04417061 309.6259794 49.5918507 312.2905825 49 315 C46.76770428 312.19917652 45.16380721 309.46984761 43.6875 306.2109375 C43.25775879 305.27846191 42.82801758 304.34598633 42.38525391 303.38525391 C41.92812012 302.39187012 41.47098633 301.39848633 41 300.375 C30.33603025 277.73047722 16.47944995 257.90927249 -1 240 C-1.82081055 239.15646973 -1.82081055 239.15646973 -2.65820312 238.29589844 C-8.41735973 232.40119337 -14.21471367 226.59569186 -20.51171875 221.26953125 C-23.76596247 218.49360157 -24.39912793 216.82766356 -24.83435059 212.56097412 C-25.18690233 207.11045136 -25.18424266 201.65539955 -25.203125 196.1953125 C-25.21017552 194.84227965 -25.21730826 193.48924722 -25.22451782 192.13621521 C-25.24420592 187.79913851 -25.24921226 183.46211712 -25.25 179.125 C-25.25029457 178.3870155 -25.25058914 177.64903099 -25.25089264 176.88868332 C-25.25227358 155.52115634 -25.11217127 134.34829593 -22.28186035 113.12615967 C-21.97299364 110.79628269 -21.6770103 108.46495077 -21.38183594 106.13330078 C-8.9754001 8.9754001 -8.9754001 8.9754001 0 0 Z " fill="#008000" transform="translate(549,134)"/>
<path d="M0 0 C2.63765105 9.7338696 4.48377014 19.42077545 5.6875 29.4375 C5.80649658 30.41130615 5.92549316 31.3851123 6.0480957 32.38842773 C7.98283825 49.43006415 8.20523892 66.49330915 8.1875 83.625 C8.18689575 84.70772186 8.1862915 85.79044373 8.18566895 86.90597534 C8.08530123 153.72700351 8.08530123 153.72700351 -0.4375 184.75 C-0.61837158 185.42409912 -0.79924316 186.09819824 -0.9855957 186.79272461 C-2.3829099 191.37522456 -4.44078442 193.86412725 -8 197 C-9.24136719 198.16789062 -9.24136719 198.16789062 -10.5078125 199.359375 C-15.1134555 203.56632055 -19.75803446 207.65935769 -24.625 211.5625 C-28.91621053 215.02354747 -32.8285141 218.68032938 -36.63671875 222.6640625 C-38.4989402 224.50473759 -40.3681906 226.17980098 -42.359375 227.87109375 C-48.39447996 233.10717691 -53.97169982 238.8228756 -59.60913086 244.47875977 C-61.5579687 246.43295624 -63.51209272 248.38175147 -65.46679688 250.33007812 C-71.52539188 256.38533794 -77.46461519 262.45659554 -83 269 C-84.79748888 271.01409005 -86.617805 273.00581369 -88.4375 275 C-89.30246094 275.94875 -90.16742187 276.8975 -91.05859375 277.875 C-91.69925781 278.57625 -92.33992187 279.2775 -93 280 C-94.12690269 276.61929194 -93.86385412 275.05268333 -93.29296875 271.57421875 C-93.11926758 270.48044922 -92.94556641 269.38667969 -92.76660156 268.25976562 C-92.57549805 267.08091797 -92.38439453 265.90207031 -92.1875 264.6875 C-86.45065877 227.02775394 -86.19208986 189.66195183 -92 152 C-92.58843254 148.1206684 -93.17624674 144.24125501 -93.76074219 140.36132812 C-94.1177288 138.02480338 -94.48611866 135.68998026 -94.86816406 133.35742188 C-95.03155273 132.32681641 -95.19494141 131.29621094 -95.36328125 130.234375 C-95.51063721 129.33944336 -95.65799316 128.44451172 -95.80981445 127.52246094 C-96.15363074 122.96237123 -95.10311416 119.72915935 -92.6640625 115.91796875 C-91.94162354 114.77944458 -91.94162354 114.77944458 -91.20458984 113.61791992 C-90.6833252 112.81588135 -90.16206055 112.01384277 -89.625 111.1875 C-88.81796631 109.92933472 -88.81796631 109.92933472 -87.99462891 108.64575195 C-82.83322687 100.6450495 -77.47633075 92.7875558 -72 85 C-71.59072266 84.41444336 -71.18144531 83.82888672 -70.75976562 83.22558594 C-60.28233426 68.25180118 -49.04373979 53.88152543 -37.44433594 39.76464844 C-36.1440022 38.17593778 -34.85634753 36.57686975 -33.5703125 34.9765625 C-28.78412132 29.03214712 -23.75875049 23.37949913 -18.5703125 17.7890625 C-16.41922571 15.4549045 -14.32074342 13.09253383 -12.25 10.6875 C-2.95165094 0 -2.95165094 0 0 0 Z " fill="#008000" transform="translate(839,132)"/>
<path d="M0 0 C4.44321472 3.90186433 8.22538246 8.4654367 12 13 C13.175625 14.40572266 13.175625 14.40572266 14.375 15.83984375 C15.83078114 17.6101776 17.2748962 19.39017084 18.70703125 21.1796875 C20.38320149 23.24134834 22.07806138 25.25733756 23.82421875 27.2578125 C31.97059322 36.60964948 38.00008959 44.27533357 38.4375 57 C38.49808594 58.216875 38.55867187 59.43375 38.62109375 60.6875 C37.80168204 71.82288807 29.76524206 80.03117004 22.0625 87.25 C20.32193394 88.91949618 18.58361407 90.59133764 16.84765625 92.265625 C16.01975586 93.06073486 15.19185547 93.85584473 14.33886719 94.67504883 C11.5682137 97.42921722 9.01489897 100.3220144 6.47729492 103.28955078 C-0.10959512 110.91601775 -6.42425784 115.2954562 -16.5 116.375 C-26.86897433 115.26403846 -32.71699532 110.87912783 -39.1875 103 C-39.95707031 102.03707031 -40.72664062 101.07414063 -41.51953125 100.08203125 C-43.63929875 97.4481784 -45.79881144 94.86520444 -47.99731445 92.29785156 C-50.35023519 89.54756533 -52.67603305 86.77475675 -55 84 C-55.74878418 83.11078857 -55.74878418 83.11078857 -56.51269531 82.20361328 C-64.94525829 72.12284301 -69.74536743 64.74580722 -69.3359375 51.203125 C-68.27761857 41.11217707 -62.96220459 34.9494025 -56 28 C-55.3517627 27.35015137 -54.70352539 26.70030273 -54.03564453 26.03076172 C-48.1585182 20.14565197 -48.1585182 20.14565197 -45.2043457 17.23999023 C-41.74862829 13.82808161 -38.42300274 10.38637008 -35.26953125 6.69140625 C-32.83085755 3.8602063 -30.49233278 1.57772616 -27.3125 -0.4375 C-26.58675781 -0.91058594 -25.86101563 -1.38367188 -25.11328125 -1.87109375 C-17.19326705 -6.10193313 -7.35590915 -4.71036287 0 0 Z " fill="#ffff00" transform="translate(759,885)"/>
<path d="M0 0 C5.33156399 4.09606587 9.35721514 9.77111082 13.54296875 14.9765625 C15.70613839 17.63839605 17.91225882 20.24982062 20.14746094 22.85058594 C38.62840444 44.39255528 38.62840444 44.39255528 38.4375 56.875 C38.42920166 57.57753906 38.42090332 58.28007813 38.41235352 59.00390625 C37.95499391 73.09253525 28.16084308 80.920287 18.77099609 90.21069336 C15.79888854 93.16003108 12.91599127 96.13239638 10.1875 99.3125 C2.70492338 108.02988606 -4.25942966 115.32764844 -16.25 116.25 C-24.58900718 115.69406619 -31.51464706 111.93015036 -37.05078125 105.6875 C-38.5675806 103.83393347 -40.06660437 101.96572689 -41.55078125 100.0859375 C-43.66548563 97.42147744 -45.83034083 94.82693961 -48.0456543 92.24731445 C-70.01739577 66.6373825 -70.01739577 66.6373825 -69.36328125 52.00390625 C-67.97783573 40.54791048 -61.91465027 33.8306352 -54 26 C-52.56982958 24.56949306 -51.14017247 23.13847281 -49.7109375 21.70703125 C-47.48637022 19.48030396 -45.25875055 17.25758959 -43.01489258 15.05029297 C-39.24845663 11.33253258 -35.66579238 7.57033467 -32.31762695 3.46923828 C-23.60376063 -6.2472797 -10.6274092 -5.96128463 0 0 Z " fill="#ffff00" transform="translate(628,885)"/>
<path d="M0 0 C5.94251647 4.79396287 10.6227974 10.53484288 15.39453125 16.46484375 C18.06246878 19.75008537 20.79865872 22.96958687 23.546875 26.1875 C32.50665069 36.73666467 39.38716641 45.13766542 39.1171875 59.54296875 C38.12318835 70.94383778 31.64970885 77.79719799 23.859375 85.5 C22.589359 86.7703489 21.31984861 88.04120342 20.05078125 89.3125 C18.08592316 91.27833357 16.11844285 93.24104461 14.14086914 95.1940918 C10.92944641 98.37413121 7.85783965 101.56756509 4.984375 105.0625 C0.15443156 110.7785571 -5.89469733 114.94732023 -13.40234375 115.73828125 C-20.7777575 115.96393803 -26.38836512 114.5785916 -32.1640625 109.83984375 C-36.75871183 105.41772078 -40.73364536 100.45592031 -44.71875 95.48828125 C-46.86762418 92.83684779 -49.06183988 90.23893564 -51.28613281 87.65136719 C-61.53064007 75.71238595 -68.8882257 66.72374018 -68.44140625 50.41015625 C-67.39256055 36.7751622 -55.97737554 28.24714553 -46.80786133 19.18774414 C-43.87484398 16.28061778 -41.05798449 13.34490925 -38.390625 10.1875 C-28.26903934 -1.55055512 -14.61871139 -10.29157282 0 0 Z " fill="#ffff00" transform="translate(826.140625,983.5)"/>
<path d="M0 0 C2.36713008 2.52214568 4.48254061 5.13997349 6.58984375 7.8828125 C9.25382 11.32827935 12.07635668 14.5939805 14.9375 17.875 C35.97073365 42.33224843 35.97073365 42.33224843 35.37109375 57.83203125 C34.18795383 67.93230995 28.99697715 73.98325738 22 81 C21.17338867 81.82902832 21.17338867 81.82902832 20.33007812 82.67480469 C17.90196733 85.10690471 15.47081648 87.53571798 13.02734375 89.95239258 C9.93339787 93.02063983 6.94286075 96.10906356 4.125 99.4375 C-1.95992714 106.54420689 -7.90153249 111.96091512 -17.375 113.34765625 C-24.22383945 113.7650074 -29.46564517 112.02039758 -35 108 C-38.9646142 104.23754743 -42.51078375 100.20151576 -46 96 C-46.76183594 95.08605469 -47.52367187 94.17210937 -48.30859375 93.23046875 C-49.77576524 91.44423323 -51.23145579 89.64850856 -52.67578125 87.84375 C-54.34788735 85.79787901 -56.036028 83.81334468 -57.79296875 81.84375 C-67.04725278 71.42390364 -72.61777507 62.57799443 -72.796875 48.25 C-71.30576589 36.31529677 -62.85491951 28.08442704 -54.5625 20.25 C-52.53782566 18.30217133 -50.52118868 16.34610336 -48.50390625 14.390625 C-47.77907295 13.69333786 -47.77907295 13.69333786 -47.03959656 12.98196411 C-43.65691358 9.70824492 -40.51518405 6.3045469 -37.50927734 2.68408203 C-26.94751559 -9.10094426 -12.25672861 -9.98696405 0 0 Z " fill="#ffff00" transform="translate(699,986)"/>
<path d="M0 0 C4.74711366 3.91745094 8.48141491 8.66892888 12.27832031 13.48681641 C14.15021756 15.85463201 16.08274836 18.17142244 18.0078125 20.49609375 C18.72066406 21.3778125 19.43351563 22.25953125 20.16796875 23.16796875 C21.98900702 25.40651336 23.83050068 27.61928494 25.69140625 29.82421875 C26.77637099 31.13123712 27.86100875 32.43852698 28.9453125 33.74609375 C29.45763428 34.34341309 29.96995605 34.94073242 30.49780273 35.55615234 C36.5409447 42.91624791 38.19120097 50.49266745 37.90625 59.91796875 C36.44477355 73.85297676 25.544758 82.22007741 16.13671875 91.5234375 C13.96056056 93.72609381 11.8993784 95.96129266 9.8828125 98.30859375 C-3.65502585 114.04350372 -3.65502585 114.04350372 -14.65625 115.39453125 C-21.65739318 115.6909966 -26.73751609 114.2561362 -32.4296875 110.12109375 C-36.3943017 106.35864118 -39.94047125 102.32260951 -43.4296875 98.12109375 C-44.19152344 97.20714844 -44.95335937 96.29320312 -45.73828125 95.3515625 C-47.20300663 93.56830504 -48.65742815 91.77653571 -50.1015625 89.9765625 C-51.79185748 87.9033987 -53.49993018 85.87336871 -55.2578125 83.859375 C-64.63563729 73.09224283 -69.89810902 65.27695341 -69.6875 50.71484375 C-68.8771619 39.41922169 -62.0896019 32.76849876 -54.4296875 25.12109375 C-53.74487305 24.43466797 -53.06005859 23.74824219 -52.35449219 23.04101562 C-46.39546032 17.07409796 -46.39546032 17.07409796 -43.44458008 14.17163086 C-40.21213848 10.98058739 -37.0982065 7.7915839 -34.203125 4.2890625 C-31.9939173 1.65801864 -29.95285687 -0.15311177 -26.8671875 -1.75390625 C-26.14402344 -2.14320313 -25.42085937 -2.5325 -24.67578125 -2.93359375 C-16.14852437 -6.52245664 -7.58659093 -4.95863389 0 0 Z " fill="#ffff00" transform="translate(565.4296875,983.87890625)"/>
<path d="M0 0 C5.67330402 4.49842203 10.07066356 10.39293492 14.578125 16.01171875 C16.72699918 18.66315221 18.92121488 21.26106436 21.14550781 23.84863281 C31.39178349 35.78967497 38.72985136 44.77093654 38.30859375 61.08203125 C37.31565283 73.68861026 27.91243942 81.15868767 19.40234375 89.56640625 C17.36285627 91.63242365 15.444922 93.73005549 13.5625 95.9375 C-2.86551295 115.00642284 -2.86551295 115.00642284 -16.1875 116.3125 C-26.39007199 115.47622361 -32.46524341 110.52942751 -39 103 C-41.23985549 100.34997349 -43.4364939 97.67321339 -45.60546875 94.96484375 C-47.77916305 92.27343433 -49.99693362 89.63187943 -52.24438477 87.00244141 C-54.51143371 84.34764309 -56.75515418 81.67359743 -59 79 C-59.62390625 78.26910156 -60.2478125 77.53820312 -60.890625 76.78515625 C-66.84971232 69.4265863 -69.75268816 61.10856522 -69.30859375 51.62109375 C-67.59219184 37.0425408 -55.74928586 27.4640395 -45.8125 17.6875 C-44.73455211 16.61961881 -43.65707563 15.55126155 -42.58007812 14.48242188 C-40.6041861 12.52267074 -38.62518406 10.5662776 -36.64379883 8.61206055 C-34.84854706 6.83836042 -33.06085757 5.05697995 -31.2800293 3.26879883 C-22.20131602 -5.76519651 -10.94218167 -6.27043852 0 0 Z " fill="#ffff00" transform="translate(497,885)"/>
<path d="M0 0 C3.35655128 2.01672208 5.88561478 4.37928732 8.5 7.3125 C9.15613281 8.0240625 9.81226563 8.735625 10.48828125 9.46875 C15.17900534 14.58884953 19.67201736 19.84232844 24.02734375 25.25 C25.87563543 27.53919538 27.74236482 29.80527574 29.62890625 32.0625 C30.71123599 33.37475387 31.79326956 34.68725207 32.875 36 C33.38716064 36.60545654 33.89932129 37.21091309 34.42700195 37.8347168 C41.59377284 46.61154373 42.53127832 55.11068381 41.5 66.3125 C40.04606974 73.12494055 36.937849 77.52894028 31.79296875 82.1328125 C29.85710825 83.97303424 28.16119491 85.82507479 26.42578125 87.84765625 C22.13278514 92.80671791 17.57413284 97.49542031 12.95703125 102.15063477 C11.98119146 103.13808391 11.00985875 104.13000646 10.04296875 105.1262207 C8.62178636 106.59025883 7.18763186 108.04041328 5.75 109.48828125 C4.90953125 110.34333252 4.0690625 111.19838379 3.203125 112.0793457 C-2.78390293 117.02545702 -8.71252121 117.86615062 -16.34765625 117.65625 C-27.83723936 116.40335866 -34.28226288 106.74362964 -41.04296875 98.3359375 C-43.20610399 95.67414628 -45.41210249 93.06271814 -47.64746094 90.4621582 C-66.26544644 68.75723618 -66.26544644 68.75723618 -65.84375 53.55859375 C-65.1281993 46.80151837 -62.83235752 41.54150097 -58.2890625 36.49609375 C-57.66926514 35.80523682 -57.04946777 35.11437988 -56.41088867 34.40258789 C-55.46499878 33.36799438 -55.46499878 33.36799438 -54.5 32.3125 C-53.92290283 31.68013428 -53.34580566 31.04776855 -52.7512207 30.39624023 C-48.38555504 25.65342459 -43.94527435 20.98058417 -39.5 16.3125 C-38.54722168 15.30654785 -38.54722168 15.30654785 -37.57519531 14.28027344 C-35.74990165 12.36205573 -33.9092129 10.46008166 -32.0625 8.5625 C-31.52036865 7.99063965 -30.9782373 7.4187793 -30.41967773 6.82958984 C-22.24270195 -1.46567628 -11.15949536 -5.17817493 0 0 Z " fill="#ffff00" transform="translate(755.5,1076.6875)"/>
<path d="M0 0 C4.8969344 3.57197272 8.63716014 8.14373634 12.46875 12.80078125 C13.20867187 13.6928125 13.94859375 14.58484375 14.7109375 15.50390625 C16.18460183 17.29747636 17.64935959 19.09839867 19.10546875 20.90625 C21.28394343 23.57443138 23.51203513 26.1876395 25.76220703 28.79492188 C34.46920075 38.91756828 40.07132412 46.89052421 39.77734375 60.7421875 C38.861943 69.81508356 34.42481285 75.29174804 28.46875 81.80078125 C27.61108032 82.74123291 27.61108032 82.74123291 26.73608398 83.70068359 C22.367637 88.45136187 17.92213599 93.1298448 13.46875 97.80078125 C12.79585937 98.50912109 12.12296875 99.21746094 11.4296875 99.94726562 C9.45520996 102.01513062 7.46501122 104.06645948 5.46875 106.11328125 C4.870625 106.74113525 4.2725 107.36898926 3.65625 108.01586914 C-1.90710356 113.65295576 -7.28927418 116.22520452 -15.34375 116.36328125 C-23.35410407 116.11798002 -28.35885751 114.07751881 -33.97607422 108.31982422 C-37.17950046 104.84678741 -40.18068191 101.2219193 -43.13671875 97.53759766 C-45.09309705 95.10102986 -47.09860377 92.70564501 -49.09375 90.30078125 C-50.57552556 88.46955588 -52.05450064 86.63606228 -53.53125 84.80078125 C-53.9948291 84.23294922 -54.4584082 83.66511719 -54.93603516 83.08007812 C-56.43430411 81.24345869 -57.92113858 79.39804927 -59.40625 77.55078125 C-59.8710376 76.98423828 -60.3358252 76.41769531 -60.81469727 75.83398438 C-67.77035611 67.10471528 -68.46175009 58.61383399 -67.53125 47.80078125 C-66.10847615 40.97325641 -62.97242638 36.58731847 -57.82421875 31.98046875 C-55.88822888 30.14012404 -54.1897588 28.28752047 -52.453125 26.265625 C-48.16875539 21.31785067 -43.64077085 16.61776142 -39.04321289 11.96264648 C-38.07329452 10.97606453 -37.10878807 9.98413401 -36.1496582 8.98706055 C-25.8602261 -1.70450739 -14.33016365 -8.0493799 0 0 Z " fill="#ffff00" transform="translate(825.53125,789.19921875)"/>
<path d="M0 0 C3.51829002 3.54339377 6.61637397 7.44363589 9.70361328 11.36132812 C11.59581282 13.75312536 13.55243548 16.09070212 15.5 18.4375 C17.00005507 20.29162212 18.50005119 22.14579192 20 24 C20.95425301 25.14858214 21.90868919 26.29701212 22.86328125 27.4453125 C30.46868402 36.69756928 35.8991455 44.49105639 35.37109375 56.98828125 C34.08141735 67.45502344 29.33319406 73.7376092 22 81 C20.77425764 82.22608087 19.54903267 83.45267914 18.32421875 84.6796875 C16.34946859 86.65492969 14.37242077 88.62755326 12.38745117 90.5925293 C9.1326167 93.82179037 5.96857129 97.06334696 3 100.5625 C-2.66892722 107.19788555 -8.30339416 112.01734588 -17.15625 113.31640625 C-23.99352648 113.68956747 -30.42104448 111.74959422 -35.87109375 107.5625 C-40.16571929 103.43648562 -43.81692796 98.65718499 -47.54296875 94.0234375 C-49.70613839 91.36160395 -51.91225882 88.75017938 -54.14746094 86.14941406 C-72.73923206 64.47826056 -72.73923206 64.47826056 -72.3359375 48.71875 C-71.39610429 38.31501495 -66.184053 32.17000793 -59 25 C-58.41653809 24.41492676 -57.83307617 23.82985352 -57.23193359 23.22705078 C-54.62325234 20.61436337 -52.01148247 18.00499333 -49.38745117 15.40771484 C-46.13278944 12.17821271 -42.96860488 8.93669263 -40 5.4375 C-28.95320863 -7.56372369 -13.98480294 -11.38492953 0 0 Z " fill="#ffff00" transform="translate(699,599)"/>
<path d="M0 0 C5.26984245 4.21587396 9.33649062 9.74533757 13.54296875 14.9765625 C15.70610399 17.63835372 17.91210249 20.24978186 20.14746094 22.8503418 C38.77953315 44.57168616 38.77953315 44.57168616 38.3359375 60.609375 C36.87738728 75.33055632 22.66147768 86.71173868 12.74267578 96.62792969 C10.86031083 98.51472373 8.99460608 100.4170548 7.12890625 102.3203125 C5.9176457 103.53743344 4.70543953 104.7536142 3.4921875 105.96875 C2.94408417 106.53122437 2.39598083 107.09369873 1.83126831 107.67321777 C-3.62858717 113.0698045 -8.98899891 115.42838284 -16.8125 115.5625 C-25.72852129 115.29860085 -30.67886325 112.51983724 -36.7421875 106.09375 C-39.15243777 103.34270272 -41.44440019 100.50656563 -43.70800781 97.63427734 C-45.57990506 95.26646174 -47.51243586 92.94967131 -49.4375 90.625 C-50.15035156 89.74457031 -50.86320313 88.86414063 -51.59765625 87.95703125 C-53.42291669 85.71032857 -55.26508618 83.48275051 -57.12109375 81.26171875 C-58.20607478 79.94559734 -59.29071266 78.62919296 -60.375 77.3125 C-60.88732178 76.70680176 -61.39964355 76.10110352 -61.92749023 75.47705078 C-69.08192064 66.71599061 -70.06103015 58.18904523 -69 47 C-65.91648654 34.37227822 -52.69275883 24.21940054 -44.03369141 15.13769531 C-42.73173549 13.76915678 -41.4341071 12.39648006 -40.14208984 11.01855469 C-28.88791108 -0.97129362 -16.18118099 -10.37571911 0 0 Z " fill="#ffff00" transform="translate(565,790)"/>
<path d="M0 0 C3.35655128 2.01672208 5.88561478 4.37928732 8.5 7.3125 C9.15613281 8.0240625 9.81226563 8.735625 10.48828125 9.46875 C15.17900534 14.58884953 19.67201736 19.84232844 24.02734375 25.25 C25.87563543 27.53919538 27.74236482 29.80527574 29.62890625 32.0625 C30.71123599 33.37475387 31.79326956 34.68725207 32.875 36 C33.38716064 36.60545654 33.89932129 37.21091309 34.42700195 37.8347168 C41.58144786 46.59644987 42.5611045 55.1226707 41.5 66.3125 C39.77544187 73.37497617 35.39166853 78.15367819 30.5 83.3125 C29.76394531 84.1375 29.02789063 84.9625 28.26953125 85.8125 C22.27531623 92.50371677 16.04065902 98.96271512 9.75 105.375 C8.94594727 106.20878174 8.14189453 107.04256348 7.31347656 107.90161133 C2.04480584 113.22205323 -1.90977608 116.647337 -9.4921875 117.74609375 C-18.13824711 117.75780928 -24.6212631 116.32220721 -31 110.25 C-34.5308605 106.43569886 -37.78700566 102.38509092 -41.04296875 98.3359375 C-43.20610399 95.67414628 -45.41210249 93.06271814 -47.64746094 90.4621582 C-66.24533793 68.78067876 -66.24533793 68.78067876 -65.76953125 53.484375 C-64.91661725 43.44718414 -60.38055473 38.39752887 -53.5 31.3125 C-52.1461238 29.82343499 -50.79242802 28.33419493 -49.44384766 26.84033203 C-43.98984116 20.83299379 -38.36213687 14.98590011 -32.6875 9.1875 C-31.62982422 8.08523071 -31.62982422 8.08523071 -30.55078125 6.96069336 C-22.29268722 -1.3899147 -11.40393418 -5.32327857 0 0 Z " fill="#ffff00" transform="translate(755.5,689.6875)"/>
<path d="M0 0 C7.49134468 4.27554794 12.6703722 11.82820364 18 18.4375 C18.80566406 19.40558594 19.61132812 20.37367188 20.44140625 21.37109375 C22.65635754 24.03775246 24.82899865 26.73497763 27 29.4375 C27.96327077 30.60699401 28.92682868 31.77625156 29.890625 32.9453125 C30.88603841 34.17137048 31.88083732 35.39792763 32.875 36.625 C33.33986816 37.18324463 33.80473633 37.74148926 34.28369141 38.31665039 C39.33539932 44.61972425 41.42883041 50.68042722 41.4375 58.8125 C41.45683594 60.01648438 41.47617187 61.22046875 41.49609375 62.4609375 C40.81004221 71.48604383 36.29033038 78.0508336 30.0625 84.25 C29.37808838 84.95141113 28.69367676 85.65282227 27.98852539 86.37548828 C26.4889693 87.90650359 24.98238462 89.43065869 23.46972656 90.94873047 C21.27030341 93.1651124 19.09336505 95.40132784 16.92500305 97.64805603 C14.60617923 100.04635093 12.27102646 102.42850782 9.9375 104.8125 C9.05779541 105.72233643 8.17809082 106.63217285 7.27172852 107.56958008 C1.82297393 113.06515868 -2.16217281 116.73645716 -9.9921875 117.87109375 C-18.55067179 117.88269061 -24.35787758 116.89937182 -30.68359375 110.88671875 C-33.58915038 107.8494368 -36.31207661 104.66740794 -39 101.4375 C-40.1446875 100.06464844 -40.1446875 100.06464844 -41.3125 98.6640625 C-42.77514265 96.8827727 -44.22825241 95.09361391 -45.671875 93.296875 C-47.83584784 90.6391097 -50.05216225 88.03959202 -52.29125977 85.44555664 C-60.99977904 75.32326938 -66.60258473 67.34825704 -66.30859375 53.49609375 C-65.415379 44.64309188 -61.13075511 38.59406882 -55 32.4375 C-54.41863281 31.85355469 -53.83726562 31.26960937 -53.23828125 30.66796875 C-52.06897172 29.50391454 -50.89571339 28.34381491 -49.71875 27.1875 C-48.05773479 25.49628452 -46.52938597 23.74779359 -45 21.9375 C-41.33251034 17.71281803 -37.47089422 13.68812771 -33.5625 9.6875 C-32.63147461 8.71200195 -32.63147461 8.71200195 -31.68164062 7.71679688 C-22.83787664 -1.23809294 -12.2912088 -4.92449082 0 0 Z " fill="#ffff00" transform="translate(625,689.5625)"/>
<path d="M0 0 C7.11527349 4.06587057 11.92318458 11.06028795 16.9375 17.375 C18.47721371 19.25160406 20.01870443 21.12675246 21.5625 23 C22.27019531 23.87398437 22.97789062 24.74796875 23.70703125 25.6484375 C25.31156664 27.60984853 26.92944536 29.54960637 28.57421875 31.4765625 C38.15876462 42.72896892 41.97998774 50.6052493 41.12890625 65.46142578 C40.10968682 75.65102004 31.04437794 83.14312556 24.2421875 90.03515625 C22.09103413 92.21912383 19.95779112 94.41953995 17.82814026 96.62445068 C15.88096375 98.6351543 13.92299981 100.63510471 11.96212769 102.63244629 C10.99503296 103.6196657 10.03088494 104.60978125 9.06985474 105.60290527 C-1.57910111 116.58040825 -1.57910111 116.58040825 -10.0546875 117.80859375 C-18.61317179 117.82019061 -24.42037758 116.83687182 -30.74609375 110.82421875 C-33.65165038 107.7869368 -36.37457661 104.60490794 -39.0625 101.375 C-40.2071875 100.00214844 -40.2071875 100.00214844 -41.375 98.6015625 C-42.83764265 96.8202727 -44.29075241 95.03111391 -45.734375 93.234375 C-47.89834784 90.5766097 -50.11466225 87.97709202 -52.35375977 85.38305664 C-61.06227904 75.26076938 -66.66508473 67.28575704 -66.37109375 53.43359375 C-65.16170779 41.44689493 -57.1421476 34.36218148 -49.0078125 26.3515625 C-47.22733712 24.5424851 -45.57707414 22.68618051 -43.9375 20.75 C-40.46637346 16.74424017 -36.82471485 12.91865101 -33.125 9.125 C-32.26527588 8.22080322 -32.26527588 8.22080322 -31.38818359 7.29833984 C-22.68211617 -1.52580931 -11.98537472 -4.88293044 0 0 Z " fill="#ffff00" transform="translate(625.0625,1076.625)"/>
<path d="M0 0 C5.84064317 4.08379632 10.17842812 9.43996292 14.58203125 14.98046875 C16.70649109 17.63346949 18.88068271 20.22292282 21.09472656 22.80029297 C39.34067823 44.05765084 39.34067823 44.05765084 39.5 58.1875 C39.54125 59.08275391 39.5825 59.97800781 39.625 60.90039062 C39.74390939 71.19348497 34.80510199 77.34035195 27.84765625 84.5078125 C25.92855937 86.39144353 24.0024571 88.26333713 22.0625 90.125 C20.13235512 91.99819611 18.20862151 93.87773368 16.28515625 95.7578125 C15.37523926 96.64678223 14.46532227 97.53575195 13.52783203 98.45166016 C10.71381082 101.28851098 8.08743949 104.23196184 5.53295898 107.30273438 C-0.05467926 113.48927062 -6.05416485 116.5420523 -14.375 117.3125 C-23.91848528 116.48978575 -29.88995353 112.77675248 -36.046875 105.62109375 C-37.56197912 103.77556798 -39.06253725 101.91803476 -40.55078125 100.05078125 C-42.67288483 97.40745925 -44.83958586 94.82123052 -47.04589844 92.24902344 C-67.76847106 68.06541763 -67.76847106 68.06541763 -67.3359375 52.4609375 C-66.33835844 42.18355324 -61.09224361 36.11227819 -54 29 C-53.44892578 28.44731445 -52.89785156 27.89462891 -52.33007812 27.32519531 C-49.90196733 24.89309529 -47.47081648 22.46428202 -45.02734375 20.04760742 C-41.93339787 16.97936017 -38.94286075 13.89093644 -36.125 10.5625 C-26.59444295 -0.56842628 -14.24768779 -7.91853564 0 0 Z " fill="#ffff00" transform="translate(888,884)"/>
<path d="M0 0 C6.2095022 3.48793241 10.46422458 8.75052859 14.9375 14.1875 C15.67742187 15.07953125 16.41734375 15.9715625 17.1796875 16.890625 C18.65335183 18.68419511 20.11810959 20.48511742 21.57421875 22.29296875 C23.75269343 24.96115013 25.98078513 27.57435825 28.23095703 30.18164062 C36.99031952 40.36517033 42.51827035 48.27803173 42.171875 62.203125 C41.39365699 72.11243428 36.69903885 77.21950194 29.9375 84.1875 C28.28891909 86.01836303 26.64323474 87.85183716 25 89.6875 C20.00393511 95.14474011 14.8656978 100.46593121 9.6875 105.75 C8.93090088 106.53632812 8.17430176 107.32265625 7.39477539 108.1328125 C1.1360801 114.45680993 -3.68564174 117.59246814 -12.875 117.75 C-20.88535407 117.50469877 -25.89010751 115.46423756 -31.50732422 109.70654297 C-34.71075046 106.23350616 -37.71193191 102.60863805 -40.66796875 98.92431641 C-42.62434705 96.48774861 -44.62985377 94.09236376 -46.625 91.6875 C-48.1054517 89.8552042 -49.58452539 88.02179447 -51.0625 86.1875 C-52.02725313 85.01685239 -52.99210203 83.84628372 -53.95703125 82.67578125 C-54.95116183 81.45104086 -55.94465909 80.2257861 -56.9375 79 C-57.4022876 78.44183594 -57.8670752 77.88367188 -58.34594727 77.30859375 C-65.24088163 68.70601776 -66.0928713 60.05323366 -65.0625 49.1875 C-63.33771405 42.12409089 -58.95918964 37.34237873 -54.0625 32.1875 C-52.75813286 30.74381191 -51.45378164 29.30010941 -50.1496582 27.85620117 C-47.48904009 24.93347508 -44.77894727 22.05828263 -42.0625 19.1875 C-41.0422876 18.1061377 -41.0422876 18.1061377 -40.00146484 17.00292969 C-37.80852522 14.69441688 -35.59484292 12.40763179 -33.375 10.125 C-32.68680176 9.39869385 -31.99860352 8.6723877 -31.28955078 7.92407227 C-22.56558282 -0.94006895 -12.01879753 -5.16167794 0 0 Z " fill="#ffff00" transform="translate(692.0625,787.8125)"/>
<path d="M0 0 C7.54115542 3.94086187 12.67161779 10.88437806 17.90234375 17.40380859 C19.85872205 19.84037639 21.86422877 22.23576124 23.859375 24.640625 C25.34115056 26.47185037 26.82012564 28.30534397 28.296875 30.140625 C28.7604541 30.70845703 29.2240332 31.27628906 29.70166016 31.86132812 C31.19992911 33.69794756 32.68676358 35.54335698 34.171875 37.390625 C34.6366626 37.95716797 35.1014502 38.52371094 35.58032227 39.10742188 C42.37627645 47.63626352 43.2935267 55.63670957 42.52929688 66.16845703 C41.4056335 75.70307124 33.92431402 82.38355453 27.5 88.90234375 C25.82805069 90.60097311 24.16496312 92.30656552 22.5078125 94.01953125 C19.88327002 96.73098925 17.24564509 99.42917958 14.59976196 102.11981201 C13.52969911 103.21002964 12.46257483 104.30313992 11.39852905 105.39923096 C9.87861281 106.96134149 8.34550954 108.50932088 6.80859375 110.0546875 C5.91615967 110.9617041 5.02372559 111.8687207 4.10424805 112.80322266 C-1.60901212 117.56004959 -7.29595179 118.78250691 -14.65234375 118.53515625 C-25.27496901 117.16142366 -31.20321533 110.04083675 -37.703125 102.140625 C-38.81300781 100.80257812 -38.81300781 100.80257812 -39.9453125 99.4375 C-41.41897683 97.64392989 -42.88373459 95.84300758 -44.33984375 94.03515625 C-46.51836036 91.36692351 -48.74623658 88.75353078 -50.99707031 86.14672852 C-63.15216416 72.00858532 -63.15216416 72.00858532 -62.97241211 64.55102539 C-62.41444747 59.55666017 -60.85171502 54.80752988 -59.390625 50.015625 C-59.08189453 48.95730469 -58.77316406 47.89898438 -58.45507812 46.80859375 C-54.45838264 33.39652512 -54.45838264 33.39652512 -48.953125 28.265625 C-46.33360422 25.75031662 -43.85810644 23.22788482 -41.515625 20.453125 C-38.21744159 16.64811065 -34.77676436 12.99835968 -31.265625 9.390625 C-30.74009033 8.83544189 -30.21455566 8.28025879 -29.6730957 7.70825195 C-21.44885422 -0.6371384 -11.51236174 -3.6599994 0 0 Z " fill="#ffff00" transform="translate(492.703125,688.859375)"/>
<path d="M0 0 C5.0039903 3.01078662 8.90328341 7.22429492 12.75 11.5625 C13.51699219 12.41585937 14.28398438 13.26921875 15.07421875 14.1484375 C28.29371664 30.17343155 33.92714574 55.10077322 37.19140625 75.29296875 C36.49634629 78.8666841 34.31132946 80.43480329 31.6875 82.875 C28.42851243 85.93728599 25.33686624 88.97813483 22.41796875 92.3671875 C18.50961145 96.89697522 14.35231932 101.1439463 10.125 105.375 C9.38765625 106.12458984 8.6503125 106.87417969 7.890625 107.64648438 C7.17132812 108.36771484 6.45203125 109.08894531 5.7109375 109.83203125 C5.06946777 110.47760986 4.42799805 111.12318848 3.76708984 111.78833008 C-2.3001567 117.12489273 -7.67873754 117.88374852 -15.5078125 117.76953125 C-24.42375329 117.09639042 -30.2483765 110.93321201 -35.88671875 104.6015625 C-38.72527587 101.29681716 -41.49161613 97.93419266 -44.25 94.5625 C-45.04921875 93.59441406 -45.8484375 92.62632812 -46.671875 91.62890625 C-48.16115943 89.81865534 -49.64317297 88.00239363 -51.1171875 86.1796875 C-52.53729504 84.43706469 -53.98019705 82.71276892 -55.4453125 81.0078125 C-62.96043622 72.10613459 -66.02467705 64.6782876 -65.62890625 52.89453125 C-64.63439258 44.14896259 -60.13086161 38.76453861 -54.25 32.5625 C-53.51394531 31.7375 -52.77789063 30.9125 -52.01953125 30.0625 C-46.02531623 23.37128323 -39.79065902 16.91228488 -33.5 10.5 C-32.69594727 9.66621826 -31.89189453 8.83243652 -31.06347656 7.97338867 C-22.56599927 -0.60758679 -12.04336456 -5.26142981 0 0 Z " fill="#ffff00" transform="translate(886.25,689.4375)"/>
<path d="M0 0 C3.2465903 1.54052089 6.25035608 3.35399966 9.2578125 5.30859375 C9.86947266 5.70522217 10.48113281 6.10185059 11.11132812 6.51049805 C25.65077023 16.07306366 39.00377986 27.48317153 51.4453125 39.62109375 C52.3278772 40.46462402 52.3278772 40.46462402 53.22827148 41.32519531 C57.63835556 45.71654057 60.18406227 49.73170043 61.19140625 56.01171875 C61.20971568 67.9494675 57.4199644 75.53566465 49.1015625 83.9921875 C47.98864677 85.09933507 46.873931 86.20467498 45.7578125 87.30859375 C44.41357867 88.6531623 43.06985439 89.99824041 41.7265625 91.34375 C39.66009627 93.41236383 37.59077923 95.4770934 35.50488281 97.52612305 C31.60030745 101.37644104 27.93354824 105.32744621 24.42553711 109.54418945 C19.3631529 114.90004521 13.39872093 117.37591685 6.1328125 117.68359375 C-2.36369932 117.49726674 -8.01044741 113.86377808 -13.75830078 107.86645508 C-16.32471353 105.07354648 -18.79884855 102.20936145 -21.2421875 99.30859375 C-22.01433594 98.3959375 -22.78648437 97.48328125 -23.58203125 96.54296875 C-25.02924435 94.79479813 -26.46149118 93.0341354 -27.87890625 91.26171875 C-29.67195658 89.02114676 -31.4862027 86.80861257 -33.32421875 84.60546875 C-42.160425 73.9472955 -47.2798164 66.43450613 -46.61328125 52.11328125 C-45.31293493 38.78130955 -34.5797869 30.55867244 -25.5559082 21.640625 C-22.14569084 18.25942377 -18.9456904 14.76660809 -15.82421875 11.12109375 C-4.81993267 -1.48628586 -4.81993267 -1.48628586 0 0 Z " fill="#ffff00" transform="translate(804.2421875,594.69140625)"/>
<path d="M0 0 C6.2095022 3.48793241 10.46422458 8.75052859 14.9375 14.1875 C15.67742187 15.07953125 16.41734375 15.9715625 17.1796875 16.890625 C18.65335183 18.68419511 20.11810959 20.48511742 21.57421875 22.29296875 C23.75269343 24.96115013 25.98078513 27.57435825 28.23095703 30.18164062 C37.00501636 40.3822567 42.5047953 48.28876515 41.9375 62.1875 C34.88704203 64.51563718 27.76763194 65.77425426 20.4375 66.8125 C19.13969604 66.99679565 19.13969604 66.99679565 17.81567383 67.18481445 C6.65308799 68.70750996 -4.35504316 69.41062636 -15.625 69.4375 C-16.62539307 69.44000763 -16.62539307 69.44000763 -17.64599609 69.44256592 C-33.37513193 69.44490378 -49.99667914 69.05426797 -65.0625 64.1875 C-65.57776411 53.32401507 -65.42907149 45.16072033 -58.1875 36.5625 C-56.82197695 35.09528907 -55.44515386 33.63857871 -54.0625 32.1875 C-53.04782542 31.08615673 -52.03495938 29.9831458 -51.0234375 28.87890625 C-47.40805606 24.94514995 -43.74008111 21.06304037 -40.0625 17.1875 C-39.09256104 16.15641113 -39.09256104 16.15641113 -38.10302734 15.10449219 C-36.16662182 13.0550856 -34.21135233 11.02551571 -32.25 9 C-31.66476562 8.37665771 -31.07953125 7.75331543 -30.4765625 7.11108398 C-22.10233288 -1.42121624 -11.34944679 -4.87421383 0 0 Z " fill="#ffff00" transform="translate(692.0625,1174.8125)"/>
<path d="M0 0 C7.49134468 4.27554794 12.6703722 11.82820364 18 18.4375 C18.80566406 19.40558594 19.61132812 20.37367187 20.44140625 21.37109375 C22.6563987 24.03780201 24.8307812 26.73345657 27 29.4375 C27.46212891 30.00388184 27.92425781 30.57026367 28.40039062 31.15380859 C29.90001351 32.99197675 31.38833801 34.83884046 32.875 36.6875 C33.33986816 37.25412354 33.80473633 37.82074707 34.28369141 38.40454102 C41.07619737 46.92937228 41.99858976 54.93289961 41.23681641 65.4609375 C40.03859945 75.46172563 31.7400486 82.62186207 25 89.4375 C24.44666992 89.99920898 23.89333984 90.56091797 23.32324219 91.13964844 C19.90756028 94.59834408 16.46433765 98.02757603 13 101.4375 C7.82618118 99.15851312 4.37016561 95.14772345 0.4375 91.1875 C-0.36880859 90.37700195 -1.17511719 89.56650391 -2.00585938 88.73144531 C-8.59513102 82.01799734 -14.4709778 75.03383817 -20 67.4375 C-20.85649066 66.28755169 -21.71326433 65.13781411 -22.5703125 63.98828125 C-28.18528635 56.37245914 -33.22816382 48.48237865 -37.9375 40.27783203 C-39.00260923 38.43298061 -40.09419129 36.60558795 -41.1875 34.77734375 C-41.8558189 33.62335112 -42.52256179 32.4684439 -43.1875 31.3125 C-44.07501953 29.79269531 -44.07501953 29.79269531 -44.98046875 28.2421875 C-46 25.4375 -46 25.4375 -45.30444336 23.0300293 C-42.9496526 18.34997633 -39.06328767 15.03083074 -35.375 11.375 C-34.59253906 10.57255859 -33.81007813 9.77011719 -33.00390625 8.94335938 C-23.56350171 -0.4892173 -13.3414396 -5.34526733 0 0 Z " fill="#ffff00" transform="translate(494,1076.5625)"/>
<path d="M0 0 C4.58507028 2.74138939 8.16918994 6.52654922 11.6875 10.5 C12.61369141 11.53253906 12.61369141 11.53253906 13.55859375 12.5859375 C17.71372813 17.59512952 17.71372813 17.59512952 17.609375 21.1953125 C16.39596834 25.54506689 14.5065727 29.28218319 12.375 33.25 C11.93349609 34.07838379 11.49199219 34.90676758 11.03710938 35.76025391 C1.93058793 52.5095219 -9.31294256 68.20511599 -22.22265625 82.2265625 C-24.17121415 84.34630212 -26.06007333 86.50483469 -27.9375 88.6875 C-31.22565163 92.46848935 -34.72169128 96.00742009 -38.3125 99.5 C-43.36509455 95.74294251 -47.09323752 91.31809833 -51.00390625 86.3984375 C-52.48029039 84.54483846 -53.98582679 82.71385832 -55.52734375 80.9140625 C-63.04493671 72.03854306 -66.08631257 64.59004854 -65.69140625 52.83203125 C-64.69689258 44.08646259 -60.19336161 38.70203861 -54.3125 32.5 C-53.57644531 31.675 -52.84039063 30.85 -52.08203125 30 C-46.08781623 23.30878323 -39.85315902 16.84978488 -33.5625 10.4375 C-32.75844727 9.60371826 -31.95439453 8.76993652 -31.12597656 7.91088867 C-22.61037972 -0.6883844 -12.0425291 -5.35487954 0 0 Z " fill="#ffff00" transform="translate(886.3125,1076.5)"/>
<path d="M0 0 C6.62179357 -0.14395203 9.79991937 2.89068458 14.46484375 7.3515625 C17.73376183 10.76654934 20.71780267 14.33957017 23.6484375 18.046875 C25.760339 20.69903037 27.92966822 23.27747307 30.14086914 25.84594727 C48.84091879 47.60326074 48.84091879 47.60326074 48.31640625 63.55859375 C47.14932803 76.25237048 38.56139462 83.40174065 30 92 C28.54858452 93.47618366 27.09967722 94.95480655 25.65065002 96.43333435 C23.06605206 99.06693669 20.4705797 101.68972866 17.875 104.3125 C17.36641449 104.82839691 16.85782898 105.34429382 16.33383179 105.87582397 C14.87115114 107.3562677 13.40155066 108.82947303 11.9296875 110.30078125 C11.07616699 111.15841064 10.22264648 112.01604004 9.34326172 112.8996582 C5.68572251 116.17802972 3.96901393 117 -1 117 C-1.02324295 103.664607 -1.04097577 90.32921888 -1.05181217 76.9938097 C-1.05701494 70.8006347 -1.06406494 64.60747363 -1.07543945 58.41430664 C-1.08636134 52.42964734 -1.09229644 46.44500138 -1.09487724 40.46033287 C-1.0967148 38.18517535 -1.10030289 35.9100185 -1.10573006 33.63486671 C-1.1581055 10.75353194 -1.1581055 10.75353194 0 0 Z " fill="#ffff00" transform="translate(424,787)"/>
<path d="M0 0 C11.56841102 1.5182508 17.78489521 9.7232673 24.6875 18.36132812 C26.59595703 20.74405945 28.55252452 23.08661889 30.5 25.4375 C32.00106701 27.29080296 33.50098759 29.14503482 35 31 C35.4650293 31.56396484 35.93005859 32.12792969 36.40917969 32.70898438 C37.90791529 34.52712264 39.39223529 36.35632476 40.875 38.1875 C41.33970703 38.7455835 41.80441406 39.30366699 42.28320312 39.87866211 C48.94285404 48.18738105 50.04155471 56.48976613 49 67 C46.37844679 78.36006392 37.64084559 85.43683202 29.65625 93.30078125 C26.72900218 96.2753816 24.04642841 99.38208056 21.4375 102.63671875 C20 104 20 104 17 104 C4.83749583 69.57508138 -0.30631791 36.46596894 0 0 Z " fill="#ffff00" transform="translate(423,980)"/>
<path d="M0 0 C0 35.31 0 70.62 0 107 C-4.34677615 104.82661193 -6.66361384 102.21350166 -9.6875 98.5625 C-10.48196533 97.6180603 -10.48196533 97.6180603 -11.29248047 96.65454102 C-12.86896578 94.77565413 -14.43548572 92.88885858 -16 91 C-16.80308594 90.03835938 -17.60617187 89.07671875 -18.43359375 88.0859375 C-20.6477418 85.41001526 -22.83032487 82.71209392 -25 80 C-25.43119141 79.46455566 -25.86238281 78.92911133 -26.30664062 78.37744141 C-27.67210544 76.67549402 -29.02499434 74.96422645 -30.375 73.25 C-31.59316406 71.71085938 -31.59316406 71.71085938 -32.8359375 70.140625 C-38.27215452 62.25124145 -39.88739594 54.25185484 -38.375 44.875 C-34.82976923 30.21683434 -20.02953538 18.95331546 -9.8125 8.6875 C-8.96220215 7.83244873 -8.1119043 6.97739746 -7.23583984 6.09643555 C-6.44258301 5.305354 -5.64932617 4.51427246 -4.83203125 3.69921875 C-4.11764893 2.98596436 -3.4032666 2.27270996 -2.66723633 1.5378418 C-1 0 -1 0 0 0 Z " fill="#ffff00" transform="translate(927,793)"/>
<path d="M0 0 C5.26378709 3.87687246 9.38145332 8.86553467 13.53515625 13.8671875 C14.29699219 14.78113281 15.05882812 15.69507813 15.84375 16.63671875 C17.30911712 18.42075751 18.76353178 20.21384689 20.20703125 22.015625 C21.89414085 24.08205119 23.59909809 26.09568792 25.36328125 28.09375 C33.21819682 37.02193482 38.94439938 44.65821214 39.53515625 56.8671875 C32.30605024 55.47524783 25.732174 53.24025677 18.91015625 50.4921875 C17.82492676 50.05519531 16.73969727 49.61820313 15.62158203 49.16796875 C-4.95199053 40.69632223 -24.22182489 29.97936012 -41.46484375 15.8671875 C-30.50420157 2.71441688 -17.95889363 -10.07519548 0 0 Z " fill="#ffff00" transform="translate(563.46484375,1176.1328125)"/>
<path d="M0 0 C0.78351921 31.50149009 -3.87089432 61.16960974 -14 91 C-17.83822262 89.47854238 -19.71669764 87.20763464 -22.25 84 C-23.42175781 82.52080078 -23.42175781 82.52080078 -24.6171875 81.01171875 C-25.79667969 79.52091797 -25.79667969 79.52091797 -27 78 C-28.11761719 76.67935547 -28.11761719 76.67935547 -29.2578125 75.33203125 C-35.55793347 67.83465482 -39 60.9363278 -39 51 C-37.78735288 38.816686 -32.36384864 31.7840846 -23.6875 23.5 C-18.42755574 18.40762196 -13.26164676 13.34261118 -8.52026367 7.7578125 C-1.81083333 0 -1.81083333 0 0 0 Z " fill="#ffff00" transform="translate(927,986)"/>
<path d="M0 0 C4.97685547 2.75873618 8.36514807 6.48312806 11.75 11 C-7.1486984 30.44748093 -38.58012435 48.87544824 -65.25 55 C-65.0393275 45.65380173 -62.45627669 40.06645399 -55.875 33.5 C-55.30523438 32.96060791 -54.73546875 32.42121582 -54.1484375 31.86547852 C-52.37048972 30.11839789 -50.75514146 28.3193583 -49.140625 26.421875 C-44.73388224 21.35091061 -40.08521647 16.53836486 -35.375 11.75 C-34.52808594 10.86570312 -33.68117188 9.98140625 -32.80859375 9.0703125 C-23.45509284 -0.41210343 -13.09049441 -5.859933 0 0 Z " fill="#ffff00" transform="translate(823.25,1175)"/>
</svg>
