<?xml version="1.0" encoding="UTF-8"?>
<svg version="1.1" xmlns="http://www.w3.org/2000/svg" width="624" height="624">
<path d="M0 0 C-0.71260094 4.28379643 -2.06921736 8.25093853 -3.5625 12.3125 C-3.79646484 12.95767578 -4.03042969 13.60285156 -4.27148438 14.26757812 C-4.84447007 15.84621219 -5.42179464 17.42327026 -6 19 C-6.63164062 18.77183594 -7.26328125 18.54367188 -7.9140625 18.30859375 C-20.62345783 14.22473905 -32.14827107 16.22340164 -44 22 C-56.11919142 28.53672923 -65.83236598 37.37565511 -70.22265625 50.71484375 C-70.92609407 53.19830701 -71.60022818 55.69034591 -72.23828125 58.19140625 C-73 61 -73 61 -74 62 C-75.72965799 61.99394165 -77.45918806 61.94349321 -79.1875 61.875 C-94.96893493 61.80011775 -108.45489732 66.84461001 -119.82421875 77.796875 C-120.54222656 78.52390625 -121.26023437 79.2509375 -122 80 C-122.56332031 80.54140625 -123.12664062 81.0828125 -123.70703125 81.640625 C-132.73245497 91.07088303 -137.41470577 104.43012923 -137.3125 117.3125 C-137.30758545 118.0537915 -137.3026709 118.79508301 -137.29760742 119.55883789 C-137.07367379 130.12276331 -134.12845804 141.74004303 -126.5625 149.5 C-124.6443734 152.56900257 -124.99118865 153.41422867 -125.6875 156.875 C-126.00267578 158.07769531 -126.00267578 158.07769531 -126.32421875 159.3046875 C-129.65506598 172.5895695 -129.8730583 190.68826078 -123 203 C-123.4640625 201.515 -123.4640625 201.515 -123.9375 200 C-128.90033938 182.22529157 -126.6329014 162.25761689 -117.953125 146.1015625 C-111.38598367 135.67294206 -102.150365 130.09802744 -90.48828125 126.7890625 C-74.82542793 123.24606544 -58.51288891 124.85134514 -44.72265625 133.4140625 C-42.71735145 134.85357112 -40.86036839 136.37876393 -39 138 C-38.41863281 138.45375 -37.83726562 138.9075 -37.23828125 139.375 C-29.8607068 145.7412665 -23.71150436 157.77025576 -22.17578125 167.41015625 C-20.96949368 185.18279314 -22.66331516 201.83519071 -33.8828125 216.453125 C-44.69248545 227.91925582 -58.63758009 232.06326708 -74 233 C-80.78472072 232.8035796 -86.7940943 231.02798518 -93.125 228.6875 C-94.53821533 228.16724243 -94.53821533 228.16724243 -95.97998047 227.63647461 C-128.53359759 215.21321459 -154.7044645 195.41228939 -169.36669922 163.33007812 C-178.74134324 141.79914141 -178.01537397 120.68316403 -169.82519531 98.93701172 C-167.3640134 92.68636598 -164.50852496 86.72852085 -161 81 C-173.99535736 101.58714689 -181.97913532 125.56264107 -176.5625 149.9375 C-171.62086392 168.55466332 -161.20159027 185.19504637 -148 199 C-147.17435547 199.92039062 -147.17435547 199.92039062 -146.33203125 200.859375 C-107.69927316 242.4492084 -17.55914408 257.91036293 36.3447876 260.09503174 C58.801088 260.86180543 80.93951532 260.71424229 103 256 C103.8647998 255.81808105 104.72959961 255.63616211 105.62060547 255.44873047 C137.40024686 248.50449717 170.85137641 233.1031851 189 204.875 C201.97655276 183.76143959 204.95084436 161.91388182 199.9296875 137.78515625 C198.86958505 133.46902484 197.4699512 129.40717162 195.86328125 125.26953125 C192.95527909 117.62451201 194.79689408 111.58017798 197 104 C197.66 104 198.32 104 199 104 C213.44972292 129.95060864 221.9624601 158.2012784 214.04296875 188.08544922 C208.71538037 205.50964247 198.44834069 224.63077825 184.1875 236.375 C183.58292969 236.87773437 182.97835938 237.38046875 182.35546875 237.8984375 C181.90816406 238.26195312 181.46085937 238.62546875 181 239 C182.32 238.34 183.64 237.68 185 237 C183.57459352 241.5679693 181.02739726 244.45775367 177.6875 247.75 C177.23310547 248.224375 176.77871094 248.69875 176.31054688 249.1875 C167.49715997 257.98930558 156.62280561 264.1171375 145.453125 269.38574219 C143.62515514 270.24992666 141.80860082 271.13526122 139.9921875 272.0234375 C124.34135069 279.57512147 108.05882502 283.87907941 91 287 C90.09668945 287.16806152 89.19337891 287.33612305 88.26269531 287.50927734 C55.17673393 293.2996206 18.11173628 292.22670096 -15 287 C-16.47726562 286.7831958 -16.47726562 286.7831958 -17.984375 286.56201172 C-55.59266493 281.00568223 -92.46471098 268.57631971 -124 247 C-124.598125 246.59571777 -125.19625 246.19143555 -125.8125 245.77490234 C-134.69373973 239.73843471 -142.9444203 233.09181395 -151 226 C-151.80872559 225.29399658 -151.80872559 225.29399658 -152.63378906 224.57373047 C-159.47226662 218.58852056 -159.47226662 218.58852056 -162 216 C-162 215.34 -162 214.68 -162 214 C-159.25019327 215.28541927 -156.97243359 216.6931993 -154.62890625 218.6171875 C-137.60670148 232.29104046 -119.23576503 241.9317207 -99 250 C-100.16273438 249.46632813 -101.32546875 248.93265625 -102.5234375 248.3828125 C-119.29715754 240.60996994 -135.29115939 232.26287302 -150 221 C-150.95261719 220.27167969 -151.90523437 219.54335938 -152.88671875 218.79296875 C-174.23170738 201.89358403 -188.82044702 181.88711402 -193.58984375 154.62890625 C-196.78209468 126.38508615 -190.83923046 96.34005849 -173.3984375 73.5 C-154.53882925 49.93235271 -127.52969159 32.69420764 -100 21 C-99.38334473 20.73525879 -98.76668945 20.47051758 -98.13134766 20.19775391 C-68.84707901 7.84821303 -31.92993592 0 0 0 Z M-103 44 C-121.04324082 53.34889343 -149.8665999 69.79455637 -157 90 C-153.51622186 86.58453123 -150.2766346 83.04971166 -147.0625 79.375 C-130.87238011 61.41848259 -107.38318683 47.63776505 -85 39 C-90.82745663 37.05751446 -97.6201319 41.43186742 -103 44 Z M-155 72 C-154 74 -154 74 -154 74 Z M-159 77 C-159 80 -159 80 -159 80 Z M-158 90 C-158 93 -158 93 -158 93 Z M-160 93 C-159 95 -159 95 -159 95 Z M-106 144 C-106.64164593 158.36573939 -104.81461493 166.89278143 -95.8046875 178.5546875 C-94 181 -94 181 -92.90625 183.20703125 C-91.53460722 185.92075553 -89.71834642 186.77027186 -87 188 C-84.74671588 187.79356801 -84.74671588 187.79356801 -83 187 C-82.05268643 182.90348791 -82.05268643 182.90348791 -82.625 178.8125 C-85.09266964 175.55966274 -87.97176048 174.19689693 -91.9375 173.4375 C-97.54998188 170.80306973 -99.84079737 164.99236028 -102.0078125 159.3984375 C-103.63208951 154.30483096 -104.50775435 149.31625297 -105 144 C-105.33 144 -105.66 144 -106 144 Z M-122 206 C-121 208 -121 208 -121 208 Z M178 240 C176.36323743 241.9600281 176.36323743 241.9600281 175 244 C178.12197478 242.6910428 178.12197478 242.6910428 180 240 C179.34 240 178.68 240 178 240 Z M166.875 248 C166.31167969 248.3815625 165.74835938 248.763125 165.16796875 249.15625 C163.77585159 250.10005824 162.38755792 251.04950161 161 252 C161.99 252.495 161.99 252.495 163 253 C165.68653113 251.62137583 165.68653113 251.62137583 168.5625 249.6875 C169.55378906 249.05199219 170.54507812 248.41648437 171.56640625 247.76171875 C174.07794941 246.22932443 174.07794941 246.22932443 175 244 C171.69246577 244 169.55580427 246.17477156 166.875 248 Z M159 253 C156.96855359 253.93446535 154.96466413 254.93224776 153 256 C153.99 256.33 154.98 256.66 156 257 C158.67676547 255.62750037 158.67676547 255.62750037 161 254 C160.34 253.67 159.68 253.34 159 253 Z M146 259 C145.34 259.66 144.68 260.32 144 261 C145.65 260.67 147.3 260.34 149 260 C148.01 259.67 147.02 259.34 146 259 Z M109 270 C113 271 113 271 113 271 Z M97 272 C101 273 101 273 101 273 Z M90 273 C94 274 94 274 94 274 Z M80 274 C84 275 84 275 84 275 Z M62 275 C62 275.33 62 275.66 62 276 C64.31 276 66.62 276 69 276 C69 275.67 69 275.34 69 275 C66.69 275 64.38 275 62 275 Z " fill="#ff69b4" transform="translate(375,134)"/>
<path d="M0 0 C0.09796875 1.16015625 0.1959375 2.3203125 0.296875 3.515625 C2.09290243 22.9774618 7.79859269 38.14079527 22 52 C22.99 52.66 23.98 53.32 25 54 C25 54.66 25 55.32 25 56 C24.45214844 56.08636719 23.90429688 56.17273438 23.33984375 56.26171875 C6.01939408 59.33152203 -8.34559951 65.40103138 -19 80 C-23.32914656 87.4032044 -25.96108303 94.37989052 -26 103 C-25.78085937 102.24976563 -25.56171875 101.49953125 -25.3359375 100.7265625 C-20.50131849 85.12214178 -12.48823063 73.83040174 2 66 C18.33917572 58.35187519 38.13200385 58.92838752 55 65 C69.6003762 71.13247575 79.29197443 80.49839387 85.8125 94.8125 C90.53947961 107.50070842 89.56612183 124.14597928 84.671875 136.6015625 C77.45920801 151.26282483 67.59659555 160.67154433 52 166 C33.63039854 171.18447649 13.22871169 164.2681695 -4 158 C-0.74820188 160.21713508 2.4213696 162.34832443 6 164 C4.56193978 166.87612044 2.81658786 166.92802918 -0.1875 167.9375 C-4.31894981 169.3334892 -8.12898204 170.98707066 -12 173 C-11.97905273 172.351521 -11.95810547 171.70304199 -11.93652344 171.03491211 C-11.36070739 150.45313281 -12.79324054 133.44121831 -26.75 117.1875 C-38.03086352 105.3324608 -53.0800954 100.22157054 -69.1875 99.625 C-84.63175033 99.9011189 -97.48055115 105.17139172 -108.7578125 115.640625 C-111.80794141 118.85016831 -113.88378409 122.12027084 -116 126 C-119 125 -119 125 -120.53515625 122.55859375 C-121.03917969 121.52863281 -121.54320312 120.49867188 -122.0625 119.4375 C-122.56910156 118.42558594 -123.07570312 117.41367187 -123.59765625 116.37109375 C-128.73143978 104.02999296 -128.83138569 89.51774644 -124.32421875 76.9609375 C-117.46325339 61.61989992 -106.4677508 52.45806368 -91.33203125 45.83203125 C-84.11567091 43.32455204 -75.30005317 42.56664894 -68 45 C-67.26327277 47.49885847 -66.69552455 49.89193005 -66.1875 52.4375 C-63.34842627 64.95914856 -57.74762043 72.99899469 -46.92578125 79.984375 C-41.33678554 83.68948892 -41.33678554 83.68948892 -35 85 C-35.66644531 84.62230469 -36.33289063 84.24460937 -37.01953125 83.85546875 C-46.92724801 77.93855259 -57.02822219 70.25743158 -61 59 C-61.4125 57.96875 -61.825 56.9375 -62.25 55.875 C-64.53762599 44.05559905 -63.30158198 32.55254716 -57.3046875 22.0234375 C-48.60962864 9.24486921 -36.3969844 1.62639853 -21.38671875 -1.5 C-14.04242826 -2.58427818 -6.85693924 -3.1637716 0 0 Z " fill="#ff69b4" transform="translate(369,156)"/>
<path d="M0 0 C1.4770115 1.29144469 2.93717238 2.60256776 4.375 3.9375 C5.02855469 4.50082031 5.68210937 5.06414062 6.35546875 5.64453125 C13.80222839 12.4244169 17.85374861 21.87037623 18.7109375 31.84765625 C19.15082316 52.02922345 11.71887668 67.97484943 -1.9375 82.625 C-12.50218966 92.81237932 -27.20659213 97.82491076 -41.6875 98.1875 C-57.02300266 97.77694324 -70.03843776 91.76707815 -80.6953125 80.80859375 C-89.01610327 71.0777945 -89.57170423 59.47257649 -88.85400391 47.18554688 C-88.28371476 41.58722864 -86.81877953 36.11770203 -84.625 30.9375 C-83.635 30.4425 -83.635 30.4425 -82.625 29.9375 C-82.27888672 30.71673828 -82.27888672 30.71673828 -81.92578125 31.51171875 C-78.5714843 38.68434583 -73.67900197 43.00982398 -67.625 47.9375 C-69.02398717 44.96548898 -70.66830352 42.36733013 -72.5625 39.6875 C-78.38905911 30.89780081 -79.67082897 23.572053 -78.625 12.9375 C-76.50745035 3.54610747 -72.04065294 -3.91649837 -64.125 -9.4375 C-44.27129944 -21.68836205 -17.22135707 -13.45254945 0 0 Z M-57.625 51.9375 C-56.12650567 55.75184921 -54.06971561 57.74540825 -50.625 59.9375 C-47.41519864 60.27263594 -47.41519864 60.27263594 -44.625 59.9375 C-44.295 58.2875 -43.965 56.6375 -43.625 54.9375 C-47.21887154 51.49337311 -52.93775306 49.59387653 -57.625 51.9375 Z " fill="#ff69b4" transform="translate(549.625,195.0625)"/>
<path d="M0 0 C14.42539428 9.99867023 20.92933862 25.69844162 25.16796875 42.13671875 C27.09775394 55.16276881 26.38074376 67.87386916 18.93359375 79.0234375 C10.46744278 89.29626089 -2.49393797 94.13409397 -15.44140625 95.7734375 C-31.66366646 96.67275256 -43.24950982 93.96771734 -56.62890625 84.5234375 C-63.5362918 77.7695494 -67.90122314 69.68224994 -71.44140625 60.7734375 C-71.76238281 60.04253906 -72.08335937 59.31164062 -72.4140625 58.55859375 C-76.44289179 47.89625019 -76.41333434 32.49514721 -71.76171875 22.0859375 C-66.44374055 12.77160882 -58.52252219 3.90927993 -48.44140625 -0.2265625 C-48.54839844 0.53527344 -48.65539062 1.29710938 -48.765625 2.08203125 C-49.58144238 9.10858735 -49.33965941 14.28921008 -46.44140625 20.7734375 C-46.40402344 19.9278125 -46.36664063 19.0821875 -46.328125 18.2109375 C-45.44135127 2.90974365 -45.44135127 2.90974365 -39.69140625 -3.1015625 C-27.58951645 -11.0143366 -11.68771909 -6.95495621 0 0 Z M-34.44140625 24.7734375 C-34.23515625 26.0521875 -34.02890625 27.3309375 -33.81640625 28.6484375 C-33.46484375 30.828125 -33.46484375 30.828125 -33.44140625 32.7734375 C-36.20363903 35.53567028 -38.64847242 35.35200041 -42.44140625 35.7734375 C-41.78140625 36.4334375 -41.12140625 37.0934375 -40.44140625 37.7734375 C-34.96934037 37.70221548 -34.96934037 37.70221548 -30.44140625 35.0859375 C-29.16107102 32.12516227 -29.09428266 29.96697453 -29.44140625 26.7734375 C-30.10140625 26.1134375 -30.76140625 25.4534375 -31.44140625 24.7734375 C-32.43140625 24.7734375 -33.42140625 24.7734375 -34.44140625 24.7734375 Z " fill="#ff69b4" transform="translate(448.44140625,119.2265625)"/>
<path d="M0 0 C9.42073063 8.67741398 14.80402692 19.52510652 15.3359375 32.35546875 C15.60326417 49.50527801 13.78797626 63.26206417 1.74609375 76.47265625 C-6.26085202 84.17114825 -14.58655727 89.49861083 -25.9375 89.5 C-30.44184521 89.38632567 -33.91232796 88.92361037 -38 87 C-38 86.34 -38 85.68 -38 85 C-36.01924973 83.63823419 -34.01920337 82.30406884 -32 81 C-32 80.67 -32 80.34 -32 80 C-32.62261719 80.32226562 -33.24523437 80.64453125 -33.88671875 80.9765625 C-38.22214556 82.40175927 -42.27703045 82.36832528 -46.8125 82.375 C-47.67681641 82.39949219 -48.54113281 82.42398438 -49.43164062 82.44921875 C-57.80676942 82.48714386 -63.85190806 79.70508356 -70 74 C-80.48222063 60.75012444 -82.7241366 46.42598012 -81 30 C-78.83210462 17.20138801 -72.55444185 3.93567057 -62 -4 C-41.69986787 -16.11278602 -18.7050893 -14.92203753 0 0 Z M-17 61 C-21.28930074 62.95652314 -24.67092606 64.75286517 -27 69 C-27 69.99 -27 70.98 -27 72 C-26.01 71.67 -25.02 71.34 -24 71 C-23.79375 70.21625 -23.5875 69.4325 -23.375 68.625 C-21.68295924 65.39474036 -20.74856637 65.28918027 -17.375 64.1875 C-15.92195569 63.77267189 -14.46491133 63.37074916 -13 63 C-14.79385983 61.81855167 -14.79385983 61.81855167 -17 61 Z " fill="#ff69b4" transform="translate(175,375)"/>
<path d="M0 0 C10.86515736 11.36566365 15.4055527 23.76572299 15.16015625 39.1796875 C14.6905829 44.92609132 13.26063433 49.78603326 10.84765625 55.00390625 C10.50476563 55.76574219 10.161875 56.52757812 9.80859375 57.3125 C4.68440658 66.05667746 -7.06512953 67.9382418 -16.17578125 70.37890625 C-38.92531848 76.13161435 -61.76567802 77.56789337 -85.15234375 77.00390625 C-86.03947934 73.67548689 -86.31601828 70.63990494 -86.46484375 67.19140625 C-86.95396402 59.43069799 -88.30601858 51.89399795 -89.78051758 44.2644043 C-91.21867525 36.57992985 -92.5679959 29.07867578 -89.33984375 21.69140625 C-89.00339844 20.89089844 -88.66695313 20.09039062 -88.3203125 19.265625 C-85.67382625 14.14082387 -83.70409498 12.54221073 -78.15234375 10.75390625 C-67.69497013 6.926903 -60.41461052 1.11844849 -53.80859375 -7.796875 C-50.02699269 -12.81819905 -50.02699269 -12.81819905 -45.46484375 -13.74609375 C-28.22387602 -15.06584209 -12.97933182 -12.03709358 0 0 Z " fill="#ff69b4" transform="translate(504.15234375,313.99609375)"/>
<path d="M0 0 C0.60457031 0.50015625 1.20914063 1.0003125 1.83203125 1.515625 C11.3762888 10.04728638 17.02261891 22.8897136 18.23828125 35.46484375 C18.31026666 37.68123662 18.19838398 39.79297822 18 42 C18 42.68835938 18 43.37671875 18 44.0859375 C17.7695441 46.5921454 17.41600358 47.89536245 16 50 C12.84281508 52.10624958 9.60222944 53.75992381 6.1953125 55.4296875 C-4.71802684 60.79296674 -10.0762241 71.23824989 -14.51538086 82.08544922 C-15.32421875 83.97265625 -15.32421875 83.97265625 -17 87 C-26.17471585 90.32509712 -39.4933849 88.75607532 -48.328125 85.25390625 C-59.52639348 79.9985785 -67.80475837 73.09712686 -73.16796875 61.70703125 C-74.6597456 56.85350374 -74.38783688 52.0160236 -74 47 C-71.26165125 48.23594209 -70.05788859 48.92414598 -68.1875 51.375 C-64.59728854 55.68325375 -60.79125889 57.56762716 -55.375 58.875 C-51.93660398 59.002348 -50.02860707 58.56019152 -47 57 C-48.175625 57.0825 -49.35125 57.165 -50.5625 57.25 C-56.34341773 57.19920107 -59.94110342 54.93662494 -64.0390625 51.08203125 C-72.35870138 42.27941708 -76.44154638 33.2879312 -76.265625 21.22265625 C-75.43053673 11.09107059 -70.68043618 3.5163879 -63 -3 C-56.74109574 -6.97247143 -50.28410398 -9.68647305 -43 -11 C-42.34128906 -11.12117188 -41.68257812 -11.24234375 -41.00390625 -11.3671875 C-25.47528711 -13.70360359 -11.69682593 -10.42688483 0 0 Z M-38 54 C-38.33 54.99 -38.66 55.98 -39 57 C-36.35491041 59.64508959 -34.70028236 59.78233633 -31 60 C-28.16341413 58.68326167 -28.16341413 58.68326167 -26 57 C-26.49756092 54.24358584 -26.49756092 54.24358584 -28 52 C-31.87009071 51.74199395 -34.7650353 51.72354336 -38 54 Z " fill="#ff69b4" transform="translate(108,311)"/>
<path d="M0 0 C0.72920654 0.55071167 0.72920654 0.55071167 1.47314453 1.11254883 C14.84889187 11.18368088 28.51962839 20.57985778 43 29 C43.63615234 29.37108887 44.27230469 29.74217773 44.92773438 30.12451172 C55.4898762 36.21093191 66.58492832 40.76515771 78 45 C78.74088867 45.27585937 79.48177734 45.55171875 80.24511719 45.8359375 C140.58081281 67.94534433 224.49332727 72.96110926 284.15966797 45.54833984 C288.74665446 43.36813374 293.31571259 41.15891366 297.85180664 38.87451172 C298.88039795 38.36033691 299.90898926 37.84616211 300.96875 37.31640625 C301.89107422 36.84662354 302.81339844 36.37684082 303.76367188 35.89282227 C304.8706543 35.45087524 304.8706543 35.45087524 306 35 C306.66 35.33 307.32 35.66 308 36 C285.74243579 60.97374154 253.14786712 76.84620525 220 79 C210.16279495 79.39656695 200.30970013 79.40201791 190.46582031 79.45629883 C177.23764709 79.54285072 164.30366941 80.0157956 151.19869995 81.92857361 C120.95643406 86.31537084 100.45850927 76.98103349 74.73046875 62.25 C69.51717827 59.27447748 64.25244832 56.41433253 58.9375 53.625 C57.77359741 53.01120483 57.77359741 53.01120483 56.58618164 52.38500977 C53.13528787 50.5796144 49.67806136 48.82790447 46.1328125 47.21484375 C37.17772505 43.07042144 30.77940281 38.01895768 24 31 C23.13632813 30.11054688 22.27265625 29.22109375 21.3828125 28.3046875 C15.9287958 22.47687526 11.02738435 16.30991996 6.2265625 9.9453125 C4.76431021 8.01103491 3.25960869 6.10799272 1.7109375 4.2421875 C0 2 0 2 0 0 Z " fill="#ff69b4" transform="translate(226,364)"/>
<path d="M0 0 C5.36147531 1.66922412 10.60958727 1.8514652 16.18359375 1.78125 C17.21613281 1.77448242 17.21613281 1.77448242 18.26953125 1.76757812 C19.9492571 1.75591336 21.6289375 1.73798271 23.30859375 1.71875 C22.23140696 4.47933259 21.1172122 7.08620257 19.74609375 9.71875 C15.16461742 19.28009192 17.60048791 30.83253213 20.37109375 40.65625 C22.64907251 48.73762705 22.70790522 56.37757706 22.30859375 64.71875 C3.96084345 63.86294719 -13.55010594 61.24819923 -31.47119141 57.39892578 C-33.47498632 56.97568297 -35.48470695 56.57856115 -37.50146484 56.22216797 C-43.2719093 55.1592218 -43.2719093 55.1592218 -45.41015625 52.9140625 C-45.66796875 52.23085938 -45.92578125 51.54765625 -46.19140625 50.84375 C-46.46984375 50.16570312 -46.74828125 49.48765625 -47.03515625 48.7890625 C-48.43648226 44.3682126 -48.8810794 40.519081 -48.94140625 35.84375 C-48.9671875 34.65007812 -48.99296875 33.45640625 -49.01953125 32.2265625 C-48.65171988 28.29448385 -47.63923091 26.13399413 -45.69140625 22.71875 C-45.03953509 21.42881281 -44.39131433 20.1370266 -43.74609375 18.84375 C-38.4681951 8.69983292 -33.9947248 2.85909239 -22.94140625 -1.09375 C-21.52958948 -1.50654764 -20.1133598 -1.90485053 -18.69140625 -2.28125 C-17.82515625 -2.52875 -16.95890625 -2.77625 -16.06640625 -3.03125 C-10.37054661 -3.63081417 -5.27094023 -1.93428999 0 0 Z " fill="#ff69b4" transform="translate(392.69140625,326.28125)"/>
<path d="M0 0 C1.93130605 1.85405381 3.77698532 3.72729504 5.47265625 5.80078125 C13.66982849 15.78079001 24.16195027 22.01492584 37 24 C52.37405094 24.93129802 65.16662761 22.9647664 78.38378906 14.64257812 C81.67040745 12.59110777 82.98174993 12 87 12 C92.95157575 22.09642314 92.60566546 35.32927728 90.1171875 46.5 C86.62847784 59.63378623 78.80706391 70.62822951 67.6875 78.5 C65 80 65 80 62 80 C61.84144531 78.98421875 61.68289063 77.9684375 61.51953125 76.921875 C58.60289326 59.27782953 52.02994957 43.76596701 37 33 C26.26209786 26.7058511 17.86379045 24.6851878 5.5625 24.875 C3.8928418 24.88853516 3.8928418 24.88853516 2.18945312 24.90234375 C-0.54059023 24.9257776 -3.2701801 24.958586 -6 25 C-5.43387321 21.24396652 -4.68276601 17.73243632 -3.5 14.125 C-2.12945501 9.7272804 -1.49844941 5.56911958 -1 1 C-0.67 0.67 -0.34 0.34 0 0 Z " fill="#ff69b4" transform="translate(463,272)"/>
<path d="M0 0 C0.66 0 1.32 0 2 0 C9.49128803 24.0220636 9.71098738 49.94809238 -1 73 C-5.27860206 80.95819983 -10.77297868 87.50129363 -17 94 C-17.62519531 94.68835938 -18.25039063 95.37671875 -18.89453125 96.0859375 C-26.55315199 104.24438402 -36.80586765 111.35782074 -47 116 C-47.66 116 -48.32 116 -49 116 C-47.87114558 113.13444648 -46.69345961 110.31334952 -45.4375 107.5 C-43.89390903 104.23201889 -43.89390903 104.23201889 -43.76953125 101.44140625 C-43 99 -43 99 -40.453125 97.55859375 C-38.86757813 97.00365234 -38.86757813 97.00365234 -37.25 96.4375 C-32.75233761 94.836731 -29.67260118 93.03695867 -26 90 C-25.34 90 -24.68 90 -24 90 C-23.72929688 89.42507813 -23.45859375 88.85015625 -23.1796875 88.2578125 C-21.98534811 85.97195764 -20.62010695 83.97434706 -19.125 81.875 C-10.59582309 69.18524899 -7.92512516 53.9343166 -10.53515625 38.921875 C-11.87907386 34.01620855 -13.75444003 30.9410371 -17 27 C-17.0625 25 -17.0625 25 -16 23 C-14.85539469 21.85539469 -13.70559155 20.71541233 -12.52734375 19.60546875 C-7.13634576 13.93871639 -3.26368689 7.04956368 0 0 Z " fill="#ff69b4" transform="translate(567,256)"/>
<path d="M0 0 C0.33 0 0.66 0 1 0 C1.80041624 8.35990298 0.61962873 13.65321674 -3.46484375 20.953125 C-5.87667037 25.73995646 -6.94324235 30.77183057 -8 36 C-11.39790141 34.8673662 -11.71444272 34.29216307 -13.625 31.4375 C-18.76989544 24.32656511 -25.20672011 18.97954718 -33 15 C-29.63757177 12.75838118 -27.05270365 12.2148103 -23.125 11.3125 C-14.89059879 9.28485798 -6.09772372 6.09772372 0 0 Z " fill="#ff69b4" transform="translate(465,206)"/>
<path d="M0 0 C0.02578125 0.7734375 0.0515625 1.546875 0.078125 2.34375 C0.45879135 9.33416848 1.61653048 13.90975486 5 20 C4.67 20.66 4.34 21.32 4 22 C-0.54158789 20.90777221 -5.08039735 19.80487854 -9.61694336 18.69189453 C-11.16146895 18.31457855 -12.70671973 17.94021855 -14.25268555 17.56884766 C-16.47120054 17.0353798 -18.68691383 16.49143112 -20.90234375 15.9453125 C-21.5971434 15.78064484 -22.29194305 15.61597717 -23.00779724 15.44631958 C-24.68864829 15.02645365 -26.34760098 14.52069675 -28 14 C-28.33 13.34 -28.66 12.68 -29 12 C-27.89205078 11.77957031 -27.89205078 11.77957031 -26.76171875 11.5546875 C-18.23882916 9.67033834 -10.76847625 6.67853882 -3.8125 1.3125 C-2 0 -2 0 0 0 Z " fill="#ff69b4" transform="translate(341,358)"/>
<path d="M0 0 C4.11314358 0.82262872 6.46032426 1.55880586 10.046875 3.43359375 C10.97371094 3.91763672 11.90054687 4.40167969 12.85546875 4.90039062 C13.81066406 5.40763672 14.76585937 5.91488281 15.75 6.4375 C17.20599609 7.19256836 17.20599609 7.19256836 18.69140625 7.96289062 C25.87200033 11.74400065 25.87200033 11.74400065 27 14 C26.01 14.24234375 25.02 14.4846875 24 14.734375 C16.85484286 16.5317452 10.49999056 18.44340139 4 22 C2.68 22.33 1.36 22.66 0 23 C0 15.41 0 7.82 0 0 Z " fill="#ff69b4" transform="translate(478,161)"/>
</svg>
