<!--?xml version="1.0" encoding="utf-8"?-->
<!-- Generator: Adobe Illustrator 18.0.0, SVG Export Plug-In . SVG Version: 6.00 Build 0)  -->

<svg version="1.1" id="_x32_" xmlns="http://www.w3.org/2000/svg" xmlns:xlink="http://www.w3.org/1999/xlink" x="0px" y="0px" viewBox="0 0 512 512" style="width: 256px; height: 256px; opacity: 1;" xml:space="preserve">
<style type="text/css">
	.st0{fill:#4B4B4B;}
</style>
<g>
	<path class="st0" d="M441.411,19.103c-1.659-1.984-3.33-3.896-5.075-5.778c-0.414-0.531-0.867-1.054-1.339-1.546
		c-0.515-0.644-0.956-1.093-1.16-1.296l-9.672-10.116l-0.236-0.254l-0.002,0.004L423.815,0l-32.467,32.69l5.298,5.446
		c2.144,2.206,4.314,4.618,7.297,8.113c0.968,1.019,1.823,2.042,2.975,3.494c83.74,99.619,77.15,249.851-15.008,342.005
		c-47.147,47.146-112.58,74.187-179.529,74.187c-13.95,0-27.997-1.164-41.747-3.463c-44.468-7.398-86.344-26.759-121.096-55.99
		c-1.124-0.902-2.19-1.796-3.603-3.092c-2.975-2.604-5.431-4.818-7.711-6.973l-5.665-5.161L5.789,418.027l-5.438,5.985l5.759,5.442
		c2.416,2.284,4.856,4.529,6.742,6.118c2.05,1.987,4.267,3.877,6.512,5.724c53.788,45.589,122.318,70.7,192.967,70.704
		c0,0,0.008,0,0.016,0c17.959,0,36.094-1.624,53.897-4.826c60.171-10.834,114.892-39.483,158.248-82.842
		C533.811,315.015,541.245,137.017,441.411,19.103z" style="fill: #008000;"></path>
	<path class="st0" d="M207.564,424.762c0.004,0,0.004,0,0.004,0c58.156,0,112.772-22.586,153.777-63.591
		c13.641-13.641,25.03-28.774,34.253-44.878c45.354-78.349,37.812-179.158-22.697-249.98c-0.336-0.394-0.701-0.769-1.041-1.16
		c-1.999-2.308-4.023-4.599-6.135-6.836l-0.006,0.004c-0.037-0.039-0.07-0.082-0.107-0.121L66.713,357.329l-8.208,8.206
		c0,0.004,0.002,0.004,0.002,0.004l-0.113,0.113C98.805,403.765,151.781,424.758,207.564,424.762z M138.261,327.306
		c1.144-1.109,2.948-1.694,5.216-1.694c6.059,0,14.266,3.928,19.509,9.339c3.721,3.842,6.255,8.113,7.137,12.04
		c0.941,4.182,0.004,7.781-2.705,10.408c-1.937,1.874-4.318,2.827-7.074,2.827c-4.763,0-10.311-2.901-15.218-7.964
		c-3.526-3.639-6.469-8.788-7.871-13.766C135.821,333.392,136.184,329.316,138.261,327.306z M250.17,257.999
		c-4.314,0-9.335-2.627-13.778-7.211c-3.194-3.295-5.856-7.953-7.125-12.462c-1.3-4.615-0.968-8.304,0.91-10.116
		c1.031-0.999,2.659-1.53,4.708-1.53c5.489,0,12.915,3.553,17.666,8.453c7.23,7.468,8.843,15.628,4.01,20.309
		C254.812,257.14,252.661,257.999,250.17,257.999z M234.225,333.982c5.602,0,13.184,3.631,18.033,8.636
		c3.436,3.545,5.778,7.496,6.594,11.127c0.871,3.865,0.008,7.191-2.495,9.612c-1.788,1.733-3.986,2.616-6.532,2.616
		c-4.404,0-9.53-2.686-14.066-7.363c-7.094-7.32-10.358-19.177-6.352-23.066C230.465,334.524,232.129,333.982,234.225,333.982z
		 M315.037,298.47c1.124-1.093,2.901-1.671,5.138-1.671c5.974,0,14.059,3.873,19.232,9.206c7.875,8.129,9.628,17.022,4.365,22.125
		c-1.905,1.846-4.252,2.784-6.969,2.784c-4.701,0-10.166-2.858-15.004-7.851c-3.474-3.588-6.375-8.66-7.757-13.567
		C312.629,304.466,312.992,300.453,315.037,298.47z M356.168,168.129c-1.901,1.847-4.24,2.78-6.949,2.78
		c-4.681,0-10.131-2.854-14.957-7.828c-7.539-7.785-11.006-20.388-6.742-24.518c1.12-1.089,2.893-1.663,5.118-1.663
		c5.958,0,14.024,3.857,19.178,9.175c3.654,3.775,6.145,7.976,7.012,11.83C359.752,162.019,358.831,165.552,356.168,168.129z
		 M343.643,211.266c5.501,0,13.586,4.053,18.81,9.425c4.857,5.005,7.605,10.404,7.535,14.82c-0.039,2.343-0.863,4.31-2.456,5.852
		c-1.558,1.503-3.506,2.264-5.79,2.264c-4.462,0-9.846-2.908-14.777-7.976c-5.138-5.286-8.944-13.399-8.858-18.865
		c0.027-1.89,0.519-3.307,1.448-4.208C340.461,211.707,341.836,211.266,343.643,211.266z" style="fill: #ff0000;"></path>
</g>
</svg>
