<?xml version="1.0" encoding="UTF-8"?>
<svg version="1.1" xmlns="http://www.w3.org/2000/svg" width="1300px" height="1300">
<path d="M0 0 C0.70597321 0.00093658 1.41194641 0.00187317 2.13931274 0.00283813 C14.06783333 0.0369768 25.80510512 0.49983106 37.625 2.1875 C38.68654297 2.33815918 39.74808594 2.48881836 40.84179688 2.64404297 C65.09371316 6.21191251 91.09433903 11.18095468 113.625 21.1875 C118.01051529 29.95853058 106.90110109 53.14116788 104 62 C94.51417901 90.44243576 81.53861901 118.05351329 63.625 142.1875 C63.18865234 142.77934082 62.75230469 143.37118164 62.30273438 143.98095703 C44.1207833 168.43231421 22.40542254 187.48908362 -5.375 200.1875 C-6.51839844 200.72117187 -7.66179688 201.25484375 -8.83984375 201.8046875 C-24.90434317 208.77982448 -42.96240959 212.64461224 -60.375 214.1875 C-61.58800781 214.29707031 -62.80101562 214.40664063 -64.05078125 214.51953125 C-95.31124805 216.95414704 -128.32114258 214.37469544 -158.375 205.1875 C-157.78115522 207.75278888 -157.17538512 210.31425454 -156.5625 212.875 C-156.39685547 213.59623047 -156.23121094 214.31746094 -156.06054688 215.06054688 C-154.80080775 220.26588402 -153.61353421 224.58258479 -149.0703125 227.83984375 C-148.22210937 228.26394531 -147.37390625 228.68804687 -146.5 229.125 C-145.65695312 229.56714844 -144.81390625 230.00929688 -143.9453125 230.46484375 C-140.62216114 231.39916442 -139.4045812 230.74962781 -136.375 229.1875 C-135.52679687 228.77371094 -134.67859375 228.35992187 -133.8046875 227.93359375 C-132.96164062 227.50175781 -132.11859375 227.06992187 -131.25 226.625 C-124.42927968 223.13171315 -118.25757489 221.63724625 -110.7421875 224.0234375 C-104.43422395 226.89770835 -100.59158981 230.78982352 -96.375 236.1875 C-91.77319196 241.57818942 -86.17163578 246.03762076 -79.375 248.1875 C-75.12950398 247.97231006 -71.17515951 246.54638892 -67.1484375 245.27734375 C-61.35691903 243.6046381 -56.72508345 243.72334482 -51.203125 246.13671875 C-44.28654067 250.05004936 -39.43398203 255.87993181 -36.375 263.1875 C-36.375 263.8475 -36.375 264.5075 -36.375 265.1875 C-35.36759766 265.1565625 -35.36759766 265.1565625 -34.33984375 265.125 C-14.2039715 265.54070833 11.62534408 276.31682639 26.9375 289.40625 C30.75396954 293.43474562 33.66804598 297.94127351 35.83984375 303.0390625 C38.19248772 307.18836456 41.26547099 309.86483084 44.8125 313 C58.57466423 325.50237535 58.57466423 325.50237535 62.37890625 332.33984375 C65.32883255 336.07983727 67.22168822 336.15185162 71.875 336.75 C82.05675337 338.09025121 88.19729136 343.22464729 95.25 350.4375 C95.90734131 351.10644287 96.56468262 351.77538574 97.24194336 352.46459961 C103.63801386 359.07854503 107.8403666 365.14294824 111.3125 373.6875 C116.14047382 385.29732738 122.27665617 397.11563864 133.328125 403.71484375 C138.55281103 407.06468497 142.97541799 412.16080928 144.625 418.1875 C144.65247141 420.61432462 144.52804133 423.01143674 144.39379883 425.43457031 C143.7829983 437.12792646 145.6741747 442.70910186 152.625 452.1875 C155.40220175 457.57415305 155.73162817 462.55588655 155.9375 468.5625 C156.31146024 476.20197345 158.62104462 480.83000012 162.625 487.1875 C163.43466085 488.84549976 164.22678214 490.51219464 165 492.1875 C166.88735624 496.05412918 169.14279588 499.32923402 171.75 502.75 C179.09119232 512.62598137 179.5160443 521.48313078 177.9375 533.4375 C177.44567953 538.10314827 178.05700711 541.98609778 179.0625 546.5625 C181.49089297 557.62517911 181.82378854 566.05918289 176.625 576.1875 C175.30205523 579.12253351 175.30205523 579.12253351 175.625 582.1875 C176.99154687 584.5339181 178.53400355 586.69693169 180.1171875 588.90234375 C183.68058316 594.30282682 184.13959735 600.07139444 183.375 606.3984375 C182.46520141 609.78175101 180.92819322 612.39853975 179.1875 615.4375 C175.19470244 622.50283322 174.75368603 629.28213108 174.25756836 637.27319336 C173.74418688 645.14891647 172.12439666 651.53908939 168.37109375 658.51953125 C166.08212172 662.67887679 166.08212172 662.67887679 166.04296875 667.25390625 C166.61380594 668.7091391 167.20063397 670.15817032 167.80078125 671.6015625 C169.84168127 678.00476541 169.88917605 686.24602831 167.25 692.5 C164.19267537 697.60661831 159.33595303 701.64197437 154.625 705.1875 C153.965 705.1875 153.305 705.1875 152.625 705.1875 C152.78355469 705.85136719 152.94210937 706.51523437 153.10546875 707.19921875 C154.47275013 715.06365675 155.38989082 725.58636734 151.01953125 732.58203125 C146.55598675 737.72073374 140.98175264 740.94394024 134.625 743.1875 C133.635 743.1875 132.645 743.1875 131.625 743.1875 C131.78226563 743.72117187 131.93953125 744.25484375 132.1015625 744.8046875 C133.79751583 752.52507206 133.58116576 760.56692983 129.6484375 767.51171875 C125.92399576 772.4368975 121.47002856 776.64793768 117 780.890625 C114.81672081 782.9665548 112.84358149 785.07146877 110.96484375 787.42578125 C108.78892707 789.9940168 107.01469693 791.38634948 104.1875 793.125 C99.30915317 796.74337646 97.70416097 801.12041458 95.71411133 806.62646484 C92.0899375 816.62564639 87.06898791 821.44354328 77.625 826.1875 C76.54798828 826.56648437 76.54798828 826.56648437 75.44921875 826.953125 C70.83173585 828.63873041 69.135882 830.63229346 66.98730469 835.11010742 C66.41192106 836.37116196 65.83835541 837.63304756 65.26660156 838.89575195 C62.10969001 845.69738032 57.81548838 849.96719291 51 853.0625 C46.03635124 854.72035868 40.7885111 854.60029158 35.6015625 854.68359375 C34.61929688 854.84988281 33.63703125 855.01617188 32.625 855.1875 C31.31058541 856.97209573 31.31058541 856.97209573 30.625 859.1875 C29.62444737 860.45035968 28.57879648 861.67828855 27.5 862.875 C26.56800781 863.91720703 26.56800781 863.91720703 25.6171875 864.98046875 C24.95976563 865.70878906 24.30234375 866.43710938 23.625 867.1875 C22.29069261 868.6866336 20.9573677 870.18664222 19.625 871.6875 C18.95339844 872.43773437 18.28179688 873.18796875 17.58984375 873.9609375 C16.33241451 875.38585732 15.09337425 876.82735382 13.87890625 878.2890625 C10.31128373 882.55702663 6.59600387 886.00545247 2.11572266 889.30566406 C-0.31107585 891.13920287 -2.62364888 893.06856764 -4.953125 895.0234375 C-10.24033613 899.2532064 -15.74302686 902.34710005 -21.8125 905.3125 C-22.90054932 905.85165039 -23.98859863 906.39080078 -25.10961914 906.94628906 C-74.45792586 930.84075357 -74.45792586 930.84075357 -90.9375 925.9375 C-98.78768117 924.17312703 -107.98116106 926.29111239 -115.375 929.1875 C-117.81079673 931.04426423 -119.21085162 932.693291 -120.90234375 935.21875 C-124.17768338 939.59745338 -130.05709349 942.22151324 -135.375 943.1875 C-137.26899982 943.28069247 -139.16621533 943.31745761 -141.0625 943.3125 C-142.13242187 943.3125 -143.20234375 943.3125 -144.3046875 943.3125 C-146.91251162 943.20632904 -149.15137796 942.85251078 -151.6875 942.3125 C-157.52628084 941.49678797 -162.80280721 944.4355885 -168.01953125 946.7421875 C-176.70094171 950.48156104 -184.4869342 949.68777894 -193.38671875 946.96875 C-196.73483599 946.09342523 -199.99998632 945.69982549 -203.4375 945.3125 C-208.18758316 944.72715715 -211.51148129 943.80953148 -215.625 941.375 C-218.96432747 939.50445851 -218.96432747 939.50445851 -222.68359375 939.4609375 C-224.31460885 940.00193102 -225.93074488 940.58932988 -227.53125 941.21484375 C-233.25406038 943.17223356 -239.39293357 943.47611913 -245.375 944.1875 C-246.53386719 944.3628125 -247.69273437 944.538125 -248.88671875 944.71875 C-260.81547456 946.32171831 -271.83944216 945.62084879 -282.234375 939.00390625 C-284.92678177 937.97705768 -287.26818556 938.19506663 -290.10986328 938.36938477 C-310.54381923 939.51603532 -330.06761014 932.52783866 -347.375 922.1875 C-357.31209706 916.35150481 -365.18435805 913.22265625 -376.828125 913.22265625 C-379.74863468 913.19370847 -381.62648583 912.89319958 -384.375 912.1875 C-387.80009201 911.99523912 -391.21928939 911.84509991 -394.6484375 911.7578125 C-406.18406121 911.25987191 -414.90458844 906.55474866 -424.625 900.625 C-425.51608459 900.08669052 -425.51608459 900.08669052 -426.4251709 899.5375061 C-430.42834572 897.11881457 -434.40686232 894.66324046 -438.375 892.1875 C-439.19871094 891.67638672 -440.02242187 891.16527344 -440.87109375 890.63867188 C-449.62514039 885.12121312 -456.53119468 879.01500376 -460.1640625 869.015625 C-462.02049774 866.21300664 -464.35731861 865.84061619 -467.5 864.8125 C-473.39779149 862.67608815 -477.69705902 860.31564314 -482.375 856.1875 C-483.18710937 855.48238281 -483.99921875 854.77726562 -484.8359375 854.05078125 C-487.38326805 851.79796189 -489.8819795 849.50010455 -492.375 847.1875 C-493.303125 846.37539062 -493.303125 846.37539062 -494.25 845.546875 C-497.71609943 842.36961719 -500.01723529 839.15867568 -502.3527832 835.06201172 C-506.72895501 827.49949829 -510.6568275 824.34068028 -518.8828125 820.8203125 C-523.49011016 818.6661174 -526.96433771 815.76194709 -530.77734375 812.4375 C-533.32713866 810.22895584 -535.97610822 808.25424787 -538.6875 806.25 C-543.72467606 802.19646147 -546.48177382 797.91320221 -549.375 792.1875 C-550.00621348 790.97640769 -550.63774464 789.76548093 -551.26953125 788.5546875 C-554.07719706 783.09936774 -556.81971452 777.64265378 -559.125 771.953125 C-562.26892108 764.20887432 -565.27936899 758.28512283 -571.359375 752.30078125 C-573.375 750.1875 -573.375 750.1875 -574.8671875 747.60546875 C-576.55859824 744.89307691 -578.03145982 743.82047977 -580.75 742.1875 C-586.81751383 738.33261277 -592.69315403 733.43090214 -594.97265625 726.32421875 C-596.13463781 720.15330694 -595.73158873 714.10214826 -593.9375 708.125 C-593.24062332 705.00377767 -593.12503028 703.69406116 -594.5546875 700.796875 C-595.76897724 699.12385358 -597.02478648 697.48046835 -598.3125 695.86328125 C-604.68011323 687.60226787 -608.83660963 677.39615207 -613.44921875 668.0546875 C-614.6512036 665.62431373 -615.88276696 663.22128561 -617.14453125 660.8203125 C-617.93923828 659.30050781 -617.93923828 659.30050781 -618.75 657.75 C-619.21148438 656.88503906 -619.67296875 656.02007813 -620.1484375 655.12890625 C-623.59219829 646.87046079 -623.74022086 638.60501307 -623.75 629.75 C-623.78673828 628.00493164 -623.78673828 628.00493164 -623.82421875 626.22460938 C-623.84987677 618.62555906 -622.6538845 613.00803411 -619.375 606.1875 C-618.16463278 603.61873269 -618.16463278 603.61873269 -617.375 601.1875 C-618.36195865 599.03115465 -618.36195865 599.03115465 -620.125 597.1875 C-625.44818949 591.01857012 -625.80790037 585.69540417 -625.69921875 577.703125 C-625.14890553 571.73587321 -622.71780871 567.42551451 -619.6875 562.375 C-615.45289337 552.09095534 -616.73008567 538.067703 -618.125 527.25 C-619.58751307 510.50319546 -614.55568857 492.12994912 -605.3203125 478.296875 C-602.97770024 474.55245862 -600.97206609 470.69904004 -599 466.75 C-598.65420898 466.06333252 -598.30841797 465.37666504 -597.95214844 464.66918945 C-595.1448877 458.97809354 -594.29368795 455.38609259 -594.59423828 449.04614258 C-594.9694242 439.55747451 -593.66677341 433.26662337 -588.375 425.1875 C-587.58091205 423.90303499 -586.78801249 422.61783479 -585.99609375 421.33203125 C-576.36996882 406.02238651 -576.36996882 406.02238651 -569.4609375 403.484375 C-567.1916069 402.60652695 -565.98616415 402.04077898 -564.375 400.1875 C-563.67774091 397.08653196 -563.29334704 394.05135087 -562.99291992 390.88989258 C-561.6927843 377.25581466 -551.27916613 368.41173786 -541.55859375 359.52734375 C-537.476032 356.24850781 -534.3208801 354.87253275 -529.1875 353.75 C-526.0278402 352.96546156 -526.0278402 352.96546156 -523.375 351.1875 C-521.53937142 347.47671973 -520.53938105 343.85478288 -519.4765625 339.875 C-516.40700497 329.59960175 -505.66487906 323.29717402 -497.375 317.1875 C-496.62863281 316.63578125 -495.88226563 316.0840625 -495.11328125 315.515625 C-491.21069181 312.86480953 -487.77897145 311.79770999 -483.1875 310.6875 C-479.24150548 309.48439251 -477.79308023 308.91302096 -475.70703125 305.29296875 C-474.90040831 303.00884231 -474.14251052 300.70693913 -473.43359375 298.390625 C-471.54907358 292.68838683 -468.13215036 288.97167241 -463 285.9375 C-458.47712138 283.8910264 -453.66606586 283.2726781 -448.80786133 282.47167969 C-443.54741655 281.54834586 -438.67749635 280.08309573 -433.6875 278.1875 C-433.02878906 277.93822754 -432.37007812 277.68895508 -431.69140625 277.43212891 C-424.99487707 274.79467875 -420.9689259 272.04718267 -416.609375 266.41796875 C-409.76654719 259.58710392 -401.89605533 256.6418088 -392.75 254 C-391.5957251 253.65541748 -390.4414502 253.31083496 -389.25219727 252.95581055 C-382.16822493 250.87984282 -375.15018749 249.21052043 -367.89453125 247.8671875 C-352.05102042 244.96053728 -352.05102042 244.96053728 -340.234375 234.58984375 C-337.01550637 230.43101139 -333.42178191 227.7061365 -328.375 226.1875 C-321.76856567 225.43398096 -315.94994861 225.67580219 -309.8125 228.3125 C-303.81478605 230.80494207 -298.4738456 230.28633113 -292.375 228.1875 C-286.74873893 223.8296594 -286.19370928 215.41357612 -285 208.875 C-281.70168619 192.01321206 -273.13883496 178.59834058 -259.375 168.1875 C-243.68919455 158.01107759 -225.33806422 154.16145826 -206.84814453 157.66650391 C-202.53883054 158.82120184 -198.48551268 160.45586137 -194.375 162.1875 C-193.04612869 162.53819921 -191.71339821 162.87512345 -190.375 163.1875 C-190.19026123 162.59138916 -190.00552246 161.99527832 -189.81518555 161.38110352 C-177.77298972 122.94194605 -160.09655394 85.10446079 -132.390625 55.35546875 C-130.46590389 53.28527453 -128.63752513 51.15796891 -126.8125 49 C-123.30106615 44.99264611 -119.50033459 41.55272269 -115.375 38.1875 C-114.45074219 37.42566406 -113.52648437 36.66382813 -112.57421875 35.87890625 C-87.80265764 15.89419655 -57.83420236 4.84578073 -26.375 1.1875 C-25.15804443 1.04501831 -25.15804443 1.04501831 -23.91650391 0.8996582 C-15.95178013 0.0695383 -8.00187521 -0.01378801 0 0 Z M-3.375 21.1875 C-5.22766073 23.8544097 -5.22766073 23.8544097 -6.80078125 26.90234375 C-7.73664063 28.62312134 -7.73664063 28.62312134 -8.69140625 30.37866211 C-9.35685818 31.62739486 -10.02222047 32.87617539 -10.6875 34.125 C-11.386865 35.41802492 -12.08740606 36.71041436 -12.7890625 38.00219727 C-14.25152221 40.69691815 -15.70884039 43.39432497 -17.16259766 46.09375 C-20.35559436 52.01362535 -23.60756461 57.90089201 -26.86068726 63.78787231 C-27.84048891 65.56249337 -28.81739257 67.3387135 -29.79418945 69.11499023 C-32.34780812 73.75181531 -34.90384841 78.38491552 -37.55078125 82.96923828 C-37.91264526 83.59661392 -38.27450928 84.22398956 -38.64733887 84.87037659 C-39.65937533 86.62000798 -40.67621912 88.36685613 -41.69335938 90.11352539 C-43.41058017 93.06909768 -43.41058017 93.06909768 -44.38208008 95.95288086 C-45.55275083 98.58753771 -46.36089994 99.16591207 -48.91796875 100.40625 C-49.64943115 100.77387451 -50.38089355 101.14149902 -51.13452148 101.52026367 C-51.93575439 101.90545166 -52.7369873 102.29063965 -53.5625 102.6875 C-55.30904889 103.56552367 -57.05376709 104.44719602 -58.796875 105.33203125 C-59.71404297 105.79561035 -60.63121094 106.25918945 -61.57617188 106.73681641 C-66.23087491 109.14943377 -70.76575851 111.7662204 -75.3125 114.375 C-83.92457971 119.29076078 -92.62014413 124.03218156 -101.375 128.6875 C-110.91496548 133.76137399 -120.37192125 138.95807315 -129.7512207 144.32397461 C-134.9417668 147.28237134 -140.16522742 150.16597404 -145.44140625 152.96875 C-146.03604675 153.28529037 -146.63068726 153.60183075 -147.24334717 153.92796326 C-150.14032995 155.4686233 -153.04154836 157.00029707 -155.94970703 158.51977539 C-156.9911084 159.07141357 -158.03250977 159.62305176 -159.10546875 160.19140625 C-160.02739014 160.67424072 -160.94931152 161.1570752 -161.89916992 161.65454102 C-165.12581591 163.65238246 -167.66341289 165.76432578 -169.375 169.1875 C-169.87570321 172.56107334 -169.87570321 172.56107334 -169.375 176.1875 C-167.2022578 178.81766161 -165.42826212 180.66086894 -162.375 182.1875 C-157.83832572 182.54116121 -155.12157449 181.90563364 -151.171875 179.6953125 C-150.20161377 179.16059326 -149.23135254 178.62587402 -148.23168945 178.07495117 C-147.20648193 177.49334229 -146.18127441 176.9117334 -145.125 176.3125 C-143.51274536 175.41785034 -143.51274536 175.41785034 -141.86791992 174.50512695 C-138.6974381 172.74338085 -135.53592044 170.96632595 -132.375 169.1875 C-130.85637941 168.3434116 -129.33695785 167.50076112 -127.81640625 166.66015625 C-125.0227278 165.11523931 -122.23272476 163.56400581 -119.4453125 162.0078125 C-115.30139061 159.69794372 -111.14784281 157.40584906 -106.9921875 155.1171875 C-106.01565468 154.57923302 -106.01565468 154.57923302 -105.01939392 154.03041077 C-102.38509279 152.57936776 -99.75072411 151.12845153 -97.11538696 149.67929077 C-95.2678818 148.66330942 -93.42100606 147.64619174 -91.57421875 146.62890625 C-90.50002686 146.03795166 -89.42583496 145.44699707 -88.3190918 144.83813477 C-85.39642262 143.29063567 -85.39642262 143.29063567 -83.05004883 141.40991211 C-75.81569911 138.10404472 -65.1726958 142.54026424 -57.8359375 144.34765625 C-55.87977814 144.8203041 -53.92361652 145.29294279 -51.96732521 145.76504421 C-47.1815722 146.92194301 -42.39883549 148.09123437 -37.61621094 149.26098633 C-34.91920658 149.92019372 -32.22121921 150.57509472 -29.52212524 151.22569275 C-26.99062975 151.83637443 -24.46073447 152.45373858 -21.93270874 153.07862854 C-12.18250847 155.72446567 -12.18250847 155.72446567 -2.5625 153.9375 C-0.14231925 152.0013554 0.81768129 151.17457921 1.625 148.1875 C1.72411536 145.3597971 1.65385836 142.83461296 0.625 140.1875 C-3.28053631 136.40361842 -7.2468934 135.09756713 -12.421875 133.8984375 C-13.19251282 133.70907623 -13.96315063 133.51971497 -14.75714111 133.32461548 C-17.21030654 132.72498107 -19.66738623 132.14360114 -22.125 131.5625 C-23.76070293 131.16523934 -25.3961231 130.76681251 -27.03125 130.3671875 C-34.46207475 128.56006207 -41.90573274 126.82887934 -49.375 125.1875 C-49.375 124.5275 -49.375 123.8675 -49.375 123.1875 C-48.56047363 122.75518066 -47.74594727 122.32286133 -46.90673828 121.87744141 C-32.51602691 114.23446943 -18.14244919 106.57598438 -3.92626953 98.61181641 C1.62215194 95.51425747 7.18674918 92.44581828 12.75 89.375 C13.68566299 88.85829239 13.68566299 88.85829239 14.64022827 88.33114624 C23.0702839 83.67715655 31.52340898 79.06884334 40 74.5 C48.12536973 70.11535623 56.20677214 65.65867682 64.25 61.125 C65.20438965 60.5885083 66.1587793 60.0520166 67.14208984 59.49926758 C75.868259 54.97953139 75.868259 54.97953139 82.625 48.1875 C83.09297583 43.97571757 83.09065795 41.90150886 80.75 38.3125 C77.9750041 35.5375041 77.09925378 35.24332584 73.140625 34.77734375 C67.37233659 34.86933577 63.17924419 37.82041893 58.375 40.75 C56.33002504 41.95245594 54.28305885 43.15153027 52.234375 44.34765625 C50.62272461 45.29342529 50.62272461 45.29342529 48.97851562 46.25830078 C43.84974009 49.20876556 38.62918072 51.98017968 33.40008545 54.74789429 C22.80666502 60.35530792 12.31013315 66.11223152 1.90625 72.06445312 C-2.46876359 74.56492181 -6.83471887 76.99977378 -11.375 79.1875 C-9.97946016 75.51504866 -8.33548571 72.10004689 -6.46875 68.64453125 C-5.60660889 67.04593262 -5.60660889 67.04593262 -4.72705078 65.41503906 C-4.11587402 64.28807617 -3.50469727 63.16111328 -2.875 62 C-1.94083252 60.26508301 -1.94083252 60.26508301 -0.98779297 58.49511719 C1.8732638 53.1899942 4.7633992 47.90598106 7.7734375 42.68359375 C8.23814453 41.87237061 8.70285156 41.06114746 9.18164062 40.2253418 C10.03620309 38.74235942 10.90148049 37.26547989 11.77929688 35.79614258 C14.10670648 31.75132992 15.20913746 28.86059965 14.625 24.1875 C13.34811154 21.37834539 12.31400183 19.68643236 9.8125 17.875 C3.9751764 16.04041258 1.0156302 17.12575278 -3.375 21.1875 Z M-249.546875 201.64453125 C-253.86613719 207.65273571 -255.31912178 214.13254658 -256.1875 221.375 C-257.64174494 232.17244693 -262.94872828 245.07084623 -270.375 253.1875 C-275.88013293 256.92800521 -281.62063488 257.72042319 -288.0625 258.9375 C-289.7630957 259.28748047 -289.7630957 259.28748047 -291.49804688 259.64453125 C-301.82791769 261.6331058 -310.25541474 260.63578676 -320.375 258.1875 C-320.95894531 258.96673828 -320.95894531 258.96673828 -321.5546875 259.76171875 C-322.11414063 260.45910156 -322.67359375 261.15648437 -323.25 261.875 C-323.78367187 262.55949219 -324.31734375 263.24398437 -324.8671875 263.94921875 C-331.61817006 269.97462842 -340.51282236 272.42186115 -349.0625 274.8125 C-350.11904785 275.11534912 -351.1755957 275.41819824 -352.26416016 275.73022461 C-357.89941485 277.31635189 -363.49230963 278.69805441 -369.25 279.75 C-385.96153376 282.53034564 -385.96153376 282.53034564 -399 292.25 C-399.87205078 293.54357422 -399.87205078 293.54357422 -400.76171875 294.86328125 C-406.13732762 302.60780251 -416.85324672 304.62227716 -425.35620117 307.45922852 C-427.30293963 308.16150458 -429.14725185 308.97674506 -431.0234375 309.84765625 C-434.42690606 311.20825032 -436.81348411 311.40928023 -440.4375 311.5 C-443.60498362 311.8059716 -443.60498362 311.8059716 -446.375 313.1875 C-448.05682014 315.96727696 -449.15976815 318.67205645 -450.23876953 321.72753906 C-452.52667806 328.09574193 -455.51212335 331.80024601 -461.375 335.1875 C-464.41195878 336.27531461 -467.45658973 337.22814128 -470.55737305 338.11547852 C-475.60247092 339.66191483 -479.47070154 341.95150767 -483.625 345.1875 C-484.16157227 345.60306152 -484.69814453 346.01862305 -485.25097656 346.44677734 C-490.54661499 350.78469393 -492.47067945 354.984162 -494.125 361.5 C-496.23797443 368.54856376 -499.06262266 373.63318508 -505.51171875 377.453125 C-508.47406804 378.83865661 -511.37654388 379.95214963 -514.5625 380.703125 C-521.55596733 382.45149183 -526.99265471 386.63025648 -531.3203125 392.33886719 C-534.02299676 397.0760721 -534.18085732 402.73505138 -534.78515625 408.0546875 C-535.57434164 414.63564129 -538.43761133 418.33817445 -543.125 422.8125 C-544.84281051 424.16126682 -546.52841178 425.27247099 -548.44140625 426.33203125 C-555.81505564 430.57668855 -561.63330562 437.05586249 -564.375 445.1875 C-564.91233729 449.23852613 -564.70510317 453.22109608 -564.50024414 457.29101562 C-564.16602222 464.68111647 -565.88212977 469.6573513 -569.375 476.1875 C-570.00285605 477.48434982 -570.62489632 478.78402572 -571.2421875 480.0859375 C-574.19994424 486.2534539 -577.18447263 492.05630654 -581.1875 497.625 C-587.27504404 506.87472367 -588.01029037 518.66493296 -586.7109375 529.40625 C-584.99928716 543.57712259 -584.90680041 563.65126068 -592.44921875 576.1015625 C-593.69931924 578.91824461 -593.32412841 580.28218675 -592.375 583.1875 C-591.0227203 585.79283651 -591.0227203 585.79283651 -589.375 588.3125 C-585.35402805 594.67259506 -584.65306256 599.72422782 -585.375 607.1875 C-586.63214347 611.59994912 -588.27546241 615.66485603 -590.96875 619.39453125 C-594.48891377 626.38596762 -593.8680582 637.08866812 -591.70556641 644.47363281 C-589.7795179 649.33955709 -587.15017243 653.76549587 -584.375 658.1875 C-583.66159599 659.3625751 -582.94932617 660.53833965 -582.23828125 661.71484375 C-580.90315913 663.89427167 -579.55232163 666.06417504 -578.18359375 668.22265625 C-576.53172527 670.93057887 -575.11308958 673.63881836 -573.75 676.5 C-572.18850303 679.76015246 -570.47622324 682.52674379 -568.25 685.375 C-561.38849251 694.27020172 -561.7208472 702.67672244 -562.875 713.4375 C-563.04 714.675 -563.205 715.9125 -563.375 717.1875 C-562.66214844 717.64898438 -561.94929688 718.11046875 -561.21484375 718.5859375 C-555.21209839 722.67394443 -550.95734928 726.49714922 -547.05859375 732.62109375 C-545.29477594 735.3097905 -543.33293518 737.67745419 -541.25 740.125 C-537.9289958 744.22853967 -535.75549688 748.21537061 -533.71875 753.06640625 C-531.7724498 757.58702793 -529.54678742 761.95708112 -527.30761719 766.33862305 C-525.82836251 769.2406379 -524.41017311 772.1018512 -523.171875 775.1171875 C-520.36023342 781.85253784 -515.99394263 785.23982246 -510.1171875 789.27734375 C-507.375 791.1875 -507.375 791.1875 -505.92529297 792.69677734 C-503.8354504 794.7063173 -501.38883869 795.69255309 -498.77685547 796.88818359 C-489.24958209 801.25728264 -483.88435627 805.6361438 -478.75 814.875 C-472.03544546 826.28271178 -463.08014337 833.83897973 -450.73144531 838.47705078 C-444.08426594 840.99824153 -439.07821349 844.10250376 -435.57421875 850.44921875 C-434.82591797 852.14498047 -434.82591797 852.14498047 -434.0625 853.875 C-429.59194091 862.72232202 -422.01989294 866.42441126 -413.55371094 870.95898438 C-411.57082402 872.07708018 -409.75347618 873.27221646 -407.9140625 874.609375 C-400.24042755 880.06016859 -394.19603879 881.15449426 -385.02734375 881.15234375 C-382.05306917 881.18097313 -380.1659325 881.46673491 -377.375 882.1875 C-375.41339886 882.29761067 -373.4513967 882.40453988 -371.48803711 882.47680664 C-355.90777688 883.07336728 -344.01292237 888.68561319 -330.609375 896.3125 C-316.37338644 904.37274871 -303.46799122 907.81272371 -287.01196289 907.73608398 C-278.9270114 907.78559338 -272.57664562 909.87315065 -265.23608398 913.13916016 C-259.9327226 915.3869163 -255.73552643 915.37362806 -250.0625 914.625 C-249.23089355 914.52711182 -248.39928711 914.42922363 -247.54248047 914.32836914 C-241.92985245 913.59331708 -236.82043843 912.3422902 -231.6015625 910.08984375 C-223.3181341 906.7328754 -215.48593482 908.14107916 -207.375 911.1875 C-206.07190042 911.85307532 -204.77934907 912.53984158 -203.5 913.25 C-198.4095773 915.94432474 -193.01786307 916.43910967 -187.375 917.1875 C-186.58867188 917.35765625 -185.80234375 917.5278125 -184.9921875 917.703125 C-179.02474854 918.85811319 -175.18697438 917.16828907 -169.85546875 914.4140625 C-165.89427103 912.45529701 -162.87919129 912.08077993 -158.48828125 912.40625 C-147.97495025 913.35880941 -147.97495025 913.35880941 -138.2421875 910.328125 C-136.0402549 908.02924264 -136.0402549 908.02924264 -134.44921875 905.546875 C-129.21840045 899.59694232 -120.60629641 898.27851308 -113.125 896.9375 C-111.74465576 896.68383667 -111.74465576 896.68383667 -110.33642578 896.42504883 C-102.56427182 895.07375543 -94.83242973 894.243978 -86.99414062 895.59912109 C-78.88072417 896.80623205 -73.46219006 894.83718399 -66.125 891.4375 C-65.00834961 890.9417749 -63.89169922 890.4460498 -62.74121094 889.93530273 C-59.27140655 888.38231309 -55.82175484 886.79092643 -52.375 885.1875 C-51.2715625 884.67912598 -50.168125 884.17075195 -49.03125 883.64697266 C-37.28261808 878.21570156 -26.4019492 873.005917 -16.5 864.5625 C-15.88648682 864.03978516 -15.27297363 863.51707031 -14.64086914 862.97851562 C-10.24313981 859.14379326 -6.54476233 855.0878635 -3.12109375 850.34375 C-1.12385409 847.87736008 1.14886083 846.1629778 3.625 844.1875 C4.77647902 842.78761202 5.88245083 841.34892725 6.9375 839.875 C12.52565679 832.54884197 18.286484 826.85670334 27.625 825.1875 C28.53894531 825.21972656 29.45289063 825.25195312 30.39453125 825.28515625 C33.54974168 825.384431 35.67768105 825.36105253 38.625 824.1875 C40.91522788 820.81008223 42.43502746 817.37295449 44.04296875 813.640625 C47.11552749 806.93410172 51.22686651 804.77546578 57.85717773 801.95336914 C64.07200252 799.26241112 64.07200252 799.26241112 68.4296875 794.16796875 C69.22654393 791.93104171 69.96657285 789.67305469 70.6484375 787.3984375 C73.2592778 778.8139946 78.75420315 774.02156989 85.6640625 768.6640625 C90.840616 764.33433306 95.16298873 759.23185489 99.625 754.1875 C100.285 753.5275 100.945 752.8675 101.625 752.1875 C101.82026259 750.08529549 101.82026259 750.08529549 101.64453125 747.6796875 C101.61552734 746.77476562 101.58652344 745.86984375 101.55664062 744.9375 C101.47816129 743.04370349 101.38732029 741.15037263 101.28320312 739.2578125 C101.09794826 732.53163581 102.34463353 728.41547164 106.625 723.1875 C110.99370639 718.69030224 116.94242671 716.61578001 122.625 714.1875 C122.57859375 712.9809375 122.5321875 711.774375 122.484375 710.53125 C122.44682713 708.91669164 122.41043023 707.30210622 122.375 705.6875 C122.34148438 704.89601563 122.30796875 704.10453125 122.2734375 703.2890625 C122.15552689 696.09651501 123.99203578 691.0181612 128.9140625 685.7265625 C129.68492187 685.09492187 130.45578125 684.46328125 131.25 683.8125 C132.02601563 683.16539062 132.80203125 682.51828125 133.6015625 681.8515625 C134.26929688 681.30242187 134.93703125 680.75328125 135.625 680.1875 C136.285 679.5275 136.945 678.8675 137.625 678.1875 C137.295 677.32125 136.965 676.455 136.625 675.5625 C133.58351086 664.57317793 135.72153506 655.14636824 140.625 645.1875 C143.10752666 640.08024945 143.9895974 636.16998367 144.125 630.5 C144.47567226 621.99002391 145.32461897 613.55875921 149.9375 606.1875 C150.494375 605.1975 151.05125 604.2075 151.625 603.1875 C150.94773144 601.2296209 150.94773144 601.2296209 149.625 599.1875 C144.74504717 590.90675103 141.66783589 583.90659906 143.625 574.1875 C144.70324117 571.62598604 146.00097511 569.19855775 147.3125 566.75 C150.77690839 560.18892302 150.68165514 556.38205366 148.51171875 549.33984375 C146.82865922 543.01186203 147.64181493 536.18028669 148.08959961 529.71313477 C148.30053777 524.16387355 148.07086391 521.01572376 144.26953125 516.796875 C143.63128418 516.1692627 142.99303711 515.54165039 142.33544922 514.89501953 C140.1936675 512.7569063 139.16189755 510.6148859 138.0625 507.8125 C136.46553542 503.99665064 134.71026897 500.55982976 132.5 497.0625 C128.13934422 489.8993662 126.58477793 484.22758984 126.3125 475.8125 C125.89631656 467.31046686 122.80299732 461.92499202 118.15234375 454.9921875 C114.51851187 448.91108109 114.43874487 443.90340127 114.4375 437 C114.53508332 430.3268318 114.53508332 430.3268318 111.5625 424.62109375 C108.96555672 422.89636153 108.96555672 422.89636153 106.18359375 421.5234375 C102.03989923 419.3598596 100.08347187 416.05635836 97.625 412.1875 C97.01140625 411.25164062 96.3978125 410.31578125 95.765625 409.3515625 C91.10758851 402.03952847 87.16676441 394.51055321 83.38671875 386.71875 C79.60505335 379.13864907 74.8346502 371.91554528 67.625 367.1875 C63.7628624 365.95736724 60.09064701 365.33406782 56.08203125 364.76953125 C46.14262589 363.09611724 40.48686032 355.21954756 34.9375 347.4375 C29.70134874 340.31520823 22.94964554 333.58189116 15.875 328.3125 C12.45632338 325.60002888 11.29783132 322.36234302 9.5 318.4375 C4.42979019 308.22710933 -6.28029369 305.02909657 -16.375 301.1875 C-17.6021875 300.71570313 -18.829375 300.24390625 -20.09375 299.7578125 C-26.54554208 297.47973127 -33.12989236 295.90498298 -39.87109375 294.765625 C-49.58080243 293.05127765 -55.05323151 290.41263654 -60.9296875 282.30859375 C-62.08820669 280.60838856 -63.23376391 278.89935413 -64.375 277.1875 C-65.921875 277.6825 -65.921875 277.6825 -67.5 278.1875 C-77.83632226 280.67113927 -86.54705964 280.00324417 -95.828125 274.7734375 C-98.72079572 272.97217322 -101.55953514 271.10713514 -104.375 269.1875 C-105.68412524 268.59663188 -106.99691849 268.01385 -108.3125 267.4375 C-113.15934514 265.12147381 -116.1288342 261.36693847 -119.375 257.1875 C-122.25018089 257.79413157 -124.41341294 258.704667 -126.9375 260.1875 C-134.16992949 263.82376769 -140.96958979 263.92102348 -148.625 261.5 C-151.9811265 260.2484896 -155.10748068 258.88846224 -158.1875 257.0625 C-161.3210499 255.03363776 -161.3210499 255.03363776 -165 254.1875 C-174.55623997 251.35602149 -178.51325957 241.42582094 -182.96484375 233.27734375 C-185.73979104 227.68723254 -186.73687733 223.06983802 -187.09765625 216.875 C-188.21617448 206.03640078 -195.22182711 198.46353708 -203.3125 191.75 C-220.32095843 183.07221509 -237.22180815 187.22608472 -249.546875 201.64453125 Z " fill="#ffff00" transform="translate(865.375,182.8125)"/>
<path d="M0 0 C5.04467402 2.81937869 7.94606028 7.02568084 9.75 12.4375 C10.53396339 18.95339241 9.53673329 24.03313308 5.75 29.4375 C0.23628482 34.67552942 -4.10501337 35.85804749 -11.56640625 35.6796875 C-17.92835226 35.10553808 -21.15318377 31.82109107 -25.05078125 27.15625 C-28.25874595 22.55851558 -27.89301304 16.78619937 -27.25 11.4375 C-25.0700923 5.76222305 -21.59127643 2.34036763 -16.25 -0.5625 C-10.75011677 -2.39579441 -5.3413828 -2.37169559 0 0 Z " fill="#ffff00" transform="translate(387.25,686.5625)"/>
<path d="M0 0 C4.36775158 3.14884416 7.96773395 6.77820184 9.6875 11.9375 C10.44072411 18.59815319 10.17928591 23.75746026 6.18359375 29.28125 C1.83859589 34.09137818 -2.40431171 35.71801409 -8.625 36.1875 C-14.13632646 35.81385075 -17.8444232 34.17201913 -22.0625 30.625 C-26.18499031 25.70091436 -27.90752169 21.63066883 -27.66015625 15.2421875 C-26.83984179 9.80414781 -24.37764197 5.59238665 -20.25 2 C-14.26268581 -2.2038589 -6.85305191 -2.19814873 0 0 Z " fill="#ffff00" transform="translate(803.3125,690.0625)"/>
<path d="M0 0 C4.20832793 3.14478536 6.79383217 7.20286881 7.79296875 12.33984375 C8.29766348 19.02704893 6.60967639 23.48501746 3.04296875 29.08984375 C-1.22949517 33.36230767 -5.39744544 34.51174905 -11.26953125 34.71484375 C-16.49717965 34.51712634 -20.06781727 33.46899084 -23.8671875 29.6875 C-28.71236333 24.26960835 -29.51314479 20.28636153 -29.41796875 13.0625 C-29.00994774 7.79600661 -27.07764985 5.17260937 -23.33203125 1.58984375 C-15.93022808 -3.73945453 -8.08318711 -4.53368379 0 0 Z " fill="#ffff00" transform="translate(865.20703125,910.66015625)"/>
<path d="M0 0 C4.20832793 3.14478536 6.79383217 7.20286881 7.79296875 12.33984375 C8.29766348 19.02704893 6.60967639 23.48501746 3.04296875 29.08984375 C-1.22949517 33.36230767 -5.39744544 34.51174905 -11.26953125 34.71484375 C-16.49717965 34.51712634 -20.06781727 33.46899084 -23.8671875 29.6875 C-28.71236333 24.26960835 -29.51314479 20.28636153 -29.41796875 13.0625 C-29.00994774 7.79600661 -27.07764985 5.17260937 -23.33203125 1.58984375 C-15.93022808 -3.73945453 -8.08318711 -4.53368379 0 0 Z " fill="#ffff00" transform="translate(423.20703125,821.66015625)"/>
<path d="M0 0 C5.52212743 4.62317645 8.35499503 8.86953279 9.0625 16.0625 C8.87530999 22.26316898 6.16338795 26.63355129 2.0625 31.125 C-2.93917218 34.274201 -7.85050407 35.83065122 -13.78125 34.8359375 C-19.49677317 33.10222881 -23.57538326 30.64602309 -27.125 25.75 C-29.10774216 19.90612837 -29.57496839 13.71757983 -27.43359375 7.8359375 C-24.35655534 2.41303813 -20.34391684 -0.48460558 -14.37109375 -2.359375 C-9.25201241 -3.33073768 -4.55488638 -2.40635507 0 0 Z " fill="#ffff00" transform="translate(864.3125,566.75)"/>
<path d="M0 0 C3.81215729 4.0239438 5.95234638 7.75425929 6.03515625 13.39453125 C5.69254319 18.96826074 4.72787693 22.65081025 1 27 C-4.68927849 32.01198343 -8.23846266 32.34737009 -15.7265625 32.28125 C-21.47267071 31.78755097 -24.44366735 29.67920102 -28.375 25.4375 C-31.93965398 20.09051902 -31.56373014 14.20908479 -31 8 C-29.2912816 2.28711619 -25.07377654 -1.22618139 -20 -4 C-13.03490327 -6.56608827 -5.52810265 -4.62817896 0 0 Z " fill="#ffff00" transform="translate(675,964)"/>
<path d="M0 0 C4.50688356 2.32805906 7.67386816 5.83012165 9.83203125 10.3515625 C11.47284016 15.89182467 11.03163222 20.90585814 8.9765625 26.2734375 C6.44126756 30.87677166 2.61008704 33.44277843 -1.98046875 35.7890625 C-7.92787512 36.8386048 -13.15992123 36.39277232 -18.54296875 33.6015625 C-22.93110598 29.84030202 -25.87917327 26.5898594 -26.40625 20.6796875 C-26.56911096 13.92524362 -26.33761703 9.76083594 -22.16796875 4.3515625 C-16.03490505 -1.33274044 -8.03242076 -2.40248981 0 0 Z " fill="#ffff00" transform="translate(922.16796875,794.6484375)"/>
<path d="M0 0 C4.86796194 2.439354 7.99284856 6.36558725 9.83203125 11.38671875 C10.66937138 16.91757063 10.7949319 22.33575029 8.14453125 27.38671875 C4.05389627 32.69348846 0.48556221 35.16690474 -6.16796875 36.38671875 C-12.2359848 36.4820279 -16.41936776 35.36229167 -21.16796875 31.38671875 C-24.98012604 27.36277495 -27.12031513 23.63245946 -27.203125 17.9921875 C-26.77339906 11.00128009 -24.88964081 6.84286183 -19.60546875 2.07421875 C-14.08581669 -1.74707883 -6.36346356 -1.80011492 0 0 Z " fill="#ffff00" transform="translate(494.16796875,545.61328125)"/>
<path d="M0 0 C4.5735995 2.5951323 8.09947967 5.96056091 9.5859375 11.12109375 C10.33954704 17.56575462 10.54964801 23.70402272 6.5859375 29.12109375 C1.83042258 33.66984715 -1.69825395 35.85396504 -8.2265625 36.49609375 C-13.5861972 36.33429346 -17.98709626 34.30843547 -21.95703125 30.73046875 C-26.22980358 25.96902158 -27.66381359 21.52829436 -27.4140625 15.24609375 C-26.69718984 9.654487 -24.38921863 6.03986469 -20.4140625 2.12109375 C-14.78900883 -2.16466143 -6.55324393 -2.38588978 0 0 Z " fill="#ffff00" transform="translate(494.4140625,919.87890625)"/>
<path d="M0 0 C5.03326181 1.75652173 8.99706355 4.97575159 11.37109375 9.8515625 C12.96469108 15.29552852 13.07652975 21.0609785 11.1171875 26.41015625 C8.44962521 31.13580468 5.13050217 34.19044412 0 36 C-5.37120249 37.39360929 -10.02117769 37.37776101 -15.14453125 35.1484375 C-19.8672143 32.22534525 -23.68054098 27.40978198 -25 22 C-25.62215163 15.67479174 -24.67697383 11.24641388 -21 6 C-14.6683971 -0.52542748 -8.8131119 -0.89677279 0 0 Z " fill="#ffff00" transform="translate(759,806)"/>
<path d="M0 0 C4.16456691 3.66878514 6.20271983 6.69873136 7.078125 12.1171875 C7.45081633 18.77480989 6.43061052 23.23451491 2.328125 28.53515625 C-1.47252294 32.50142876 -5.80510315 33.89000429 -11.23046875 34.3671875 C-16.13056835 34.2422305 -20.47089923 32.96082604 -24.20703125 29.7265625 C-28.6702583 24.75294209 -30.89434079 20.28128859 -30.6875 13.4296875 C-29.92351281 8.25367427 -27.40202162 3.94762567 -23.5625 0.4375 C-15.56484212 -4.89427192 -8.33556826 -4.16778413 0 0 Z " fill="#ffff00" transform="translate(576.375,645.6875)"/>
<path d="M0 0 C5.45463308 4.67539978 8.2932866 8.87758044 9 16.0625 C8.83776578 21.43650839 6.82492966 25.92944756 3.12890625 29.828125 C-2.09399006 34.36071332 -6.62010926 34.66662504 -13.29296875 34.5859375 C-17.97510722 34.07559034 -21.03267638 32.54411703 -24.375 29.25 C-28.28224258 24.34374654 -29.07214063 19.09744471 -28.82421875 12.93359375 C-27.84060331 7.05756066 -24.88323459 3.45043161 -20.3125 -0.1875 C-13.66827816 -3.72166055 -6.67488635 -3.46105218 0 0 Z " fill="#ffff00" transform="translate(697.375,550.75)"/>
<path d="M0 0 C4.2858211 2.4052254 7.03537511 5.32006193 8.9453125 9.859375 C10.3846358 15.1339138 10.67556433 20.35680292 8.65625 25.50390625 C6.1071103 29.93396457 3.25610503 32.95562557 -1.42578125 35.1640625 C-7.07675018 36.53169196 -12.2307402 36.68434378 -17.60546875 34.3125 C-22.29836807 31.35174378 -26.10651836 26.57304035 -27.42578125 21.1640625 C-28.04854058 14.83267601 -27.09715607 10.4185072 -23.42578125 5.1640625 C-17.22031947 -1.38164653 -8.54624261 -2.94508199 0 0 Z " fill="#ffff00" transform="translate(573.42578125,794.8359375)"/>
</svg>
