<!--?xml version="1.0" encoding="utf-8"?-->
<!-- Generator: Adobe Illustrator 18.1.1, SVG Export Plug-In . SVG Version: 6.00 Build 0)  -->

<svg version="1.1" id="_x32_" xmlns="http://www.w3.org/2000/svg" xmlns:xlink="http://www.w3.org/1999/xlink" x="0px" y="0px" viewBox="0 0 512 512" style="width: 256px; height: 256px; opacity: 1;" xml:space="preserve">
<style type="text/css">
	.st0{fill:#4B4B4B;}
</style>
<g>
	<path class="st0" d="M259.88,418.96c-25.692,0-46.52,20.827-46.52,46.52c0,25.693,20.827,46.52,46.52,46.52
		c25.688,0,46.516-20.827,46.516-46.52C306.395,439.788,285.568,418.96,259.88,418.96z" style="fill: #800080;"></path>
	<path class="st0" d="M244.371,368.565c0-25.692-20.827-46.511-46.516-46.511c-25.692,0-46.52,20.819-46.52,46.511
		c0,25.693,20.827,46.528,46.52,46.528C223.543,415.093,244.371,394.258,244.371,368.565z" style="fill: #800080;"></path>
	<path class="st0" d="M318.025,322.054c-25.692,0-46.52,20.819-46.52,46.511c0,25.693,20.827,46.528,46.52,46.528
		c25.692,0,46.52-20.834,46.52-46.528C364.545,342.873,343.718,322.054,318.025,322.054z" style="fill: #800080;"></path>
	<path class="st0" d="M182.346,271.659c0-25.692-20.827-46.527-46.516-46.527c-25.693,0-46.52,20.835-46.52,46.527
		c0,25.692,20.827,46.512,46.52,46.512C161.519,318.17,182.346,297.351,182.346,271.659z" style="fill: #800080;"></path>
	<path class="st0" d="M256.001,318.17c25.692,0,46.516-20.82,46.516-46.512c0-25.692-20.823-46.527-46.516-46.527
		c-25.693,0-46.52,20.835-46.52,46.527C209.481,297.351,230.308,318.17,256.001,318.17z" style="fill: #800080;"></path>
	<path class="st0" d="M376.171,225.132c-25.692,0-46.516,20.835-46.516,46.527c0,25.692,20.824,46.512,46.516,46.512
		c25.693,0,46.519-20.82,46.519-46.512C422.69,245.966,401.864,225.132,376.171,225.132z" style="fill: #800080;"></path>
	<path class="st0" d="M267.63,174.744c0,25.692,20.824,46.512,46.516,46.512c25.692,0,46.52-20.82,46.52-46.512
		c0-25.692-20.827-46.52-46.52-46.52C288.454,128.225,267.63,149.052,267.63,174.744z" style="fill: #800080;"></path>
	<path class="st0" d="M240.495,174.744c0-25.692-20.827-46.52-46.519-46.52c-25.693,0-46.52,20.827-46.52,46.52
		c0,25.692,20.826,46.512,46.52,46.512C219.668,221.256,240.495,200.436,240.495,174.744z" style="fill: #800080;"></path>
	<path class="st0" d="M175.454,98.549c0,0-2.413,16.821,5.004,19.085c38.266-5.924,61.533-38.017,69.587-73.386
		c-5.706-30.098-82.994-46.85-90.572-39.698c-7.578,7.152-3.058,23.382-3.058,23.382s-51.274,8.71-65.186,54.462
		C136.061,108.18,175.454,98.549,175.454,98.549z" style="fill: #008000"></path>
	<path class="st0" d="M253.092,149.22c5.89,0,10.663-4.773,10.663-10.659c-0.004-28.67,4.278-52.682,12.44-72.32
		c8.188-19.653,20.129-35.032,36.248-47.026c4.723-3.507,5.717-10.184,2.206-14.911c-3.507-4.727-10.187-5.709-14.914-2.21
		c-19.196,14.22-33.75,33.075-43.231,55.959c-9.508,22.906-14.066,49.743-14.066,80.508
		C242.437,144.447,247.206,149.22,253.092,149.22z" style="fill: #800080;"></path>
</g>
</svg>
